{
.appVersion = "3525";
.formatVersion = 3;
DisplayStrings = (
Wnwn
);
axes = (
{
name = Weight;
tag = wght;
},
{
name = XTRA;
tag = XTRA;
},
{
name = XOPQ;
tag = XOPQ;
},
{
name = YOPQ;
tag = YOPQ;
},
{
name = "Optical size";
tag = opsz;
},
{
name = XTUD;
tag = XTUD;
}
);
classes = (
{
automatic = 1;
code = "A B C D E F G H I J L M N O P Q R S T U V W X Y Z";
name = Uppercase;
}
);
customParameters = (
{
name = fsType;
value = (
);
},
{
name = "Write lastChange";
value = 0;
},
{
name = "Use Line Breaks";
value = 1;
},
{
name = "Use Typo Metrics";
value = 1;
}
);
date = "2026-03-13 20:55:36 +0000";
familyName = Saira;
featurePrefixes = (
{
automatic = 1;
code = "languagesystem DFLT dflt;
";
name = Languagesystems;
}
);
features = (
{
automatic = 1;
code = "lookup ccmp_DFLT_1 {
	@CombiningTopAccents = [acutecomb dieresiscomb dotaccentcomb];
	lookupflag UseMarkFilteringSet @CombiningTopAccents;
	sub i' @CombiningTopAccents by idotless;
	sub j' @CombiningTopAccents by jdotless;
} ccmp_DFLT_1;
";
tag = ccmp;
}
);
fontMaster = (
{
axesValues = (
400,
100,
400,
400,
24,
100
);
customParameters = (
{
name = "Master Icon Glyph Name";
value = R;
},
{
name = underlineThickness;
value = 70.32609;
},
{
name = underlinePosition;
value = -160;
},
{
name = TTFZones;
value = (
{
name = ascender;
pos = 750;
size = 16;
},
{
name = capHeight;
pos = 688;
size = 9;
},
{
name = xHeight;
pos = 510;
size = 9;
},
{
name = baseline;
pos = 0;
size = -9;
},
{
name = descender;
pos = -250;
size = -16;
}
);
},
{
name = hheaAscender;
value = 1130;
},
{
name = hheaDescender;
value = -440;
},
{
name = hheaLineGap;
value = 0;
},
{
name = typoAscender;
value = 1130;
},
{
name = typoDescender;
value = -440;
},
{
name = typoLineGap;
value = 0;
},
{
name = winAscent;
value = 745;
},
{
name = winDescent;
value = 200;
}
);
id = m009;
metricValues = (
{
over = 16;
pos = 743;
},
{
over = 9;
pos = 688;
},
{
over = 9;
pos = 510;
},
{
over = -9;
},
{
over = -9;
pos = -200;
},
{
}
);
name = REGULAR;

glyphs = (
{
color = 4;
glyphname = A;
kernLeft = A;
kernRight = A;
layers = (
{
anchors = (
{
name = bottom;
pos = (313,0);
},
{
name = ogonek;
pos = (563,10);
},
{
name = top;
pos = (313,688);
}
);
layerId = m009;
shapes = (
{
closed = 1;
nodes = (
(97,0,l),
(310,620,l),
(316,620,l),
(529,0,l),
(616,0,l),
(377,688,l),
(249,688,l),
(10,0,l)
);
},
{
closed = 1;
nodes = (
(500,189,l),
(473,263,l),
(152,263,l),
(125,189,l)
);
}
);
width = 626;
},
{
anchors = (
{
name = bottom;
pos = (170,0);
},
{
name = ogonek;
pos = (305,10);
},
{
name = top;
pos = (170,688);
}
);
layerId = m010;
shapes = (
{
closed = 1;
nodes = (
(88,0,l),
(168,620,l),
(172,620,l),
(252,0,l),
(335,0,l),
(238,688,l),
(102,688,l),
(5,0,l)
);
},
{
closed = 1;
nodes = (
(272,189,l),
(247,263,l),
(93,263,l),
(68,189,l)
);
}
);
width = 340;
},
{
anchors = (
{
name = bottom;
pos = (393,0);
},
{
name = ogonek;
pos = (706,10);
},
{
name = top;
pos = (393,688);
}
);
layerId = m011;
shapes = (
{
closed = 1;
nodes = (
(101,0,l),
(391,624,l),
(395,624,l),
(685,0,l),
(776,0,l),
(453,688,l),
(333,688,l),
(10,0,l)
);
},
{
closed = 1;
nodes = (
(636,189,l),
(605,263,l),
(176,263,l),
(145,189,l)
);
}
);
width = 786;
},
{
anchors = (
{
name = bottom;
pos = (275,0);
},
{
name = ogonek;
pos = (495,10);
},
{
name = top;
pos = (275,688);
}
);
layerId = m012;
shapes = (
{
closed = 1;
nodes = (
(97,0,l),
(308,643,l),
(314,643,l),
(529,0,l),
(540,0,l),
(310,688,l),
(240,688,l),
(10,0,l)
);
},
{
closed = 1;
nodes = (
(469,189,l),
(444,263,l),
(153,263,l),
(126,189,l)
);
}
);
width = 550;
},
{
anchors = (
{
name = bottom;
pos = (390,0);
},
{
name = ogonek;
pos = (702,10);
},
{
name = top;
pos = (390,688);
}
);
layerId = m013;
shapes = (
{
closed = 1;
nodes = (
(96,0,l),
(308,570,l),
(314,570,l),
(525,0,l),
(762,0,l),
(497,688,l),
(274,688,l),
(8,0,l)
);
},
{
closed = 1;
nodes = (
(569,189,l),
(547,263,l),
(159,263,l),
(136,189,l)
);
}
);
width = 770;
},
{
anchors = (
{
name = bottom;
pos = (275,0);
},
{
name = ogonek;
pos = (495,10);
},
{
name = top;
pos = (275,688);
}
);
layerId = m014;
shapes = (
{
closed = 1;
nodes = (
(21,0,l),
(236,643,l),
(242,643,l),
(453,0,l),
(540,0,l),
(310,688,l),
(240,688,l),
(10,0,l)
);
},
{
closed = 1;
nodes = (
(414,222,l),
(410,232,l),
(95,232,l),
(92,222,l)
);
}
);
width = 550;
},
{
anchors = (
{
name = bottom;
pos = (380,0);
},
{
name = ogonek;
pos = (692,10);
},
{
name = top;
pos = (380,688);
}
);
layerId = m015;
shapes = (
{
closed = 1;
nodes = (
(245,0,l),
(456,570,l),
(462,570,l),
(674,0,l),
(762,0,l),
(496,688,l),
(273,688,l),
(8,0,l)
);
},
{
closed = 1;
nodes = (
(665,126,l),
(588,326,l),
(252,326,l),
(177,126,l)
);
}
);
width = 770;
},
{
anchors = (
{
name = bottom;
pos = (313,0);
},
{
name = ogonek;
pos = (564,10);
},
{
name = top;
pos = (313,688);
}
);
layerId = m016;
shapes = (
{
closed = 1;
nodes = (
(97,0,l),
(311,600,l),
(315,600,l),
(529,0,l),
(616,0,l),
(366,688,l),
(260,688,l),
(10,0,l)
);
},
{
closed = 1;
nodes = (
(500,191,l),
(476,261,l),
(149,261,l),
(125,191,l)
);
}
);
width = 626;
},
{
anchors = (
{
name = bottom;
pos = (273,0);
},
{
name = ogonek;
pos = (491,10);
},
{
name = top;
pos = (273,688);
}
);
layerId = m017;
name = "OPSZ-max";
shapes = (
{
closed = 1;
nodes = (
(83,0,l),
(269,627,l),
(275,627,l),
(461,0,l),
(537,0,l),
(329,688,l),
(217,688,l),
(9,0,l)
);
},
{
closed = 1;
nodes = (
(436,195,l),
(413,258,l),
(131,258,l),
(108,195,l)
);
}
);
width = 546;
},
{
anchors = (
{
name = bottom;
pos = (313,0);
},
{
name = ogonek;
pos = (563,10);
},
{
name = top;
pos = (313,688);
}
);
layerId = m018;
shapes = (
{
closed = 1;
nodes = (
(97,0,l),
(310,620,l),
(316,620,l),
(529,0,l),
(616,0,l),
(377,688,l),
(249,688,l),
(10,0,l)
);
},
{
closed = 1;
nodes = (
(500,189,l),
(473,263,l),
(152,263,l),
(125,189,l)
);
}
);
width = 626;
}
);
metricLeft = "=H*.1";
metricRight = "=|";
unicode = 65;
userData = {
com.typespan.data.v1 = {
masters = {
"D62D98CA-08C7-4044-A368-BD76CC5E4872" = {
track_data = {
"2026-04-22" = {
"15" = 2.39212;
};
};
};
m009 = {
track_data = {
"2026-04-21" = {
"19" = 2.77669;
};
"2026-04-22" = {
"15" = 0.59691;
};
};
};
};
};
};
},
{
color = 4;
glyphname = B;
kernLeft = H;
kernRight = B;
layers = (
{
anchors = (
{
name = bottom;
pos = (341,0);
},
{
name = top;
pos = (341,688);
}
);
background = {
shapes = (
{
closed = 1;
nodes = (
(416.261,0,l),
(575.283,0,o),
(609.609,84.13,o),
(609.609,181.087,cs),
(609.609,264.761,o),
(586.37,330.913,o),
(484.609,349.457,c),
(484.609,353.457,l),
(567.978,370,o),
(602.152,426.022,o),
(602.152,515.457,cs),
(602.152,620.978,o),
(555.826,688,o),
(419.826,688,cs),
(99.783,688,l),
(99.783,0,l)
);
},
{
closed = 1;
nodes = (
(185.783,311.348,l),
(395.804,311.348,ls),
(489.391,311.348,o),
(523.609,277.478,o),
(523.609,192.239,cs),
(523.609,107.37,o),
(494.13,73.674,o),
(395.804,73.674,cs),
(185.783,73.674,l)
);
},
{
closed = 1;
nodes = (
(185.783,613.783,l),
(391.717,613.783,ls),
(490.13,613.783,o),
(516.152,582.087,o),
(516.152,499.13,cs),
(516.152,422.261,o),
(476.652,385.565,o),
(391.717,385.565,cs),
(185.783,385.565,l)
);
}
);
};
layerId = m009;
shapes = (
{
closed = 1;
nodes = (
(366,0,ls),
(561,0,o),
(614,40,o),
(614,190,cs),
(614,197,ls),
(614,335,o),
(560,375,o),
(366,375,cs),
(166,375,l),
(166,315,l),
(366,315,ls),
(507,315,o),
(532,299,o),
(532,211,cs),
(532,176,ls),
(532,89,o),
(507,74,o),
(366,74,cs),
(145,74,l),
(182,43,l),
(182,645,l),
(145,614,l),
(352,614,ls),
(493,614,o),
(518,600,o),
(518,518,cs),
(518,483,ls),
(518,400,o),
(493,385,o),
(352,385,cs),
(166,385,l),
(166,325,l),
(352,325,ls),
(546,325,o),
(600,364,o),
(600,497,cs),
(600,504,ls),
(600,649,o),
(547,688,o),
(352,688,cs),
(100,688,l),
(100,0,l)
);
}
);
width = 699;
},
{
anchors = (
{
name = bottom;
pos = (281,0);
},
{
name = top;
pos = (281,688);
}
);
layerId = m010;
shapes = (
{
closed = 1;
nodes = (
(166,0,ls),
(305,0,o),
(344,40,o),
(344,190,cs),
(344,197,ls),
(344,335,o),
(304,375,o),
(166,375,cs),
(116,375,l),
(116,315,l),
(166,315,ls),
(246,315,o),
(262,299,o),
(262,211,cs),
(262,176,ls),
(262,89,o),
(246,74,o),
(166,74,cs),
(95,74,l),
(132,43,l),
(132,645,l),
(95,614,l),
(182,614,ls),
(238,614,o),
(248,600,o),
(248,518,cs),
(248,483,ls),
(248,400,o),
(232,385,o),
(152,385,cs),
(116,385,l),
(116,325,l),
(152,325,ls),
(290,325,o),
(330,364,o),
(330,497,cs),
(330,504,ls),
(330,649,o),
(297,688,o),
(182,688,cs),
(50,688,l),
(50,0,l)
);
}
);
width = 387;
},
{
anchors = (
{
name = bottom;
pos = (341.283,0);
},
{
name = top;
pos = (341.283,688);
}
);
layerId = m011;
shapes = (
{
closed = 1;
nodes = (
(486,0,ls),
(713,0,o),
(774,40,o),
(774,190,cs),
(774,197,ls),
(774,335,o),
(712,375,o),
(486,375,cs),
(166,375,l),
(166,315,l),
(486,315,ls),
(659,315,o),
(692,299,o),
(692,211,cs),
(692,176,ls),
(692,89,o),
(659,74,o),
(486,74,cs),
(145,74,l),
(182,43,l),
(182,645,l),
(145,614,l),
(472,614,ls),
(645,614,o),
(678,600,o),
(678,518,cs),
(678,483,ls),
(678,400,o),
(645,385,o),
(472,385,cs),
(166,385,l),
(166,325,l),
(472,325,ls),
(698,325,o),
(760,364,o),
(760,497,cs),
(760,504,ls),
(760,649,o),
(699,688,o),
(472,688,cs),
(100,688,l),
(100,0,l)
);
}
);
width = 859;
},
{
anchors = (
{
name = bottom;
pos = (269,0);
},
{
name = top;
pos = (269,688);
}
);
layerId = m012;
shapes = (
{
closed = 1;
nodes = (
(294,0,ls),
(432,0,o),
(470,40,o),
(470,190,cs),
(470,197,ls),
(470,335,o),
(432,375,o),
(294,375,cs),
(105,375,l),
(105,315,l),
(294,315,ls),
(435,315,o),
(460,299,o),
(460,211,cs),
(460,176,ls),
(460,89,o),
(435,74,o),
(294,74,cs),
(105,74,l),
(110,43,l),
(110,645,l),
(105,614,l),
(280,614,ls),
(421,614,o),
(446,600,o),
(446,518,cs),
(446,483,ls),
(446,400,o),
(421,385,o),
(280,385,cs),
(105,385,l),
(105,325,l),
(280,325,ls),
(418,325,o),
(456,364,o),
(456,497,cs),
(456,504,ls),
(456,649,o),
(418,688,o),
(280,688,cs),
(100,688,l),
(100,0,l)
);
}
);
width = 555;
},
{
anchors = (
{
name = bottom;
pos = (467,0);
},
{
name = top;
pos = (467,688);
}
);
layerId = m013;
shapes = (
{
closed = 1;
nodes = (
(492,0,ls),
(803,0,o),
(888,40,o),
(888,190,cs),
(888,197,ls),
(888,335,o),
(802,375,o),
(492,375,cs),
(263,375,l),
(263,315,l),
(492,315,ls),
(633,315,o),
(658,299,o),
(658,211,cs),
(658,176,ls),
(658,89,o),
(633,74,o),
(492,74,cs),
(204,74,l),
(308,43,l),
(308,645,l),
(204,614,l),
(478,614,ls),
(619,614,o),
(644,600,o),
(644,518,cs),
(644,483,ls),
(644,400,o),
(619,385,o),
(478,385,cs),
(263,385,l),
(263,325,l),
(478,325,ls),
(788,325,o),
(874,364,o),
(874,497,cs),
(874,504,ls),
(874,649,o),
(789,688,o),
(478,688,cs),
(78,688,l),
(78,0,l)
);
}
);
width = 954;
},
{
anchors = (
{
name = bottom;
pos = (341.283,0);
},
{
name = top;
pos = (341.283,688);
}
);
layerId = m014;
shapes = (
{
closed = 1;
nodes = (
(366,0,ls),
(561,0,o),
(614,36,o),
(614,170,cs),
(614,177,ls),
(614,314,o),
(560,353,o),
(366,353,cs),
(166,353,l),
(166,345,l),
(366,345,ls),
(507,345,o),
(532,319,o),
(532,191,cs),
(532,156,ls),
(532,32,o),
(507,10,o),
(366,10,cs),
(145,10,l),
(182,7,l),
(182,683,l),
(145,678,l),
(352,678,ls),
(493,678,o),
(518,657,o),
(518,538,cs),
(518,503,ls),
(518,380,o),
(493,355,o),
(352,355,cs),
(166,355,l),
(166,347,l),
(352,347,ls),
(546,347,o),
(600,385,o),
(600,517,cs),
(600,524,ls),
(600,653,o),
(547,688,o),
(352,688,cs),
(100,688,l),
(100,0,l)
);
}
);
width = 699;
},
{
anchors = (
{
name = bottom;
pos = (319,0);
},
{
name = top;
pos = (319,688);
}
);
layerId = m015;
shapes = (
{
closed = 1;
nodes = (
(344,0,ls),
(539,0,o),
(592,38,o),
(592,180,cs),
(592,187,ls),
(592,333,o),
(538,375,o),
(344,375,cs),
(144,375,l),
(144,260,l),
(394,260,ls),
(493,260,o),
(510,255,o),
(510,225,cs),
(510,214,ls),
(510,185,o),
(493,180,o),
(394,180,cs),
(123,180,l),
(160,43,l),
(160,645,l),
(123,508,l),
(380,508,ls),
(479,508,o),
(496,504,o),
(496,479,cs),
(496,469,ls),
(496,444,o),
(479,440,o),
(380,440,cs),
(144,440,l),
(144,325,l),
(330,325,ls),
(524,325,o),
(578,366,o),
(578,507,cs),
(578,514,ls),
(578,651,o),
(525,688,o),
(330,688,cs),
(78,688,l),
(78,0,l)
);
}
);
width = 658;
},
{
anchors = (
{
name = bottom;
pos = (341,0);
},
{
name = top;
pos = (341,688);
}
);
layerId = m016;
shapes = (
{
closed = 1;
nodes = (
(366,0,ls),
(561,0,o),
(614,40,o),
(614,190,cs),
(614,197,ls),
(614,335,o),
(560,375,o),
(366,375,cs),
(166,375,l),
(166,315,l),
(366,315,ls),
(507,315,o),
(532,299,o),
(532,211,cs),
(532,176,ls),
(532,89,o),
(507,74,o),
(366,74,cs),
(145,74,l),
(182,43,l),
(182,645,l),
(145,614,l),
(352,614,ls),
(493,614,o),
(518,600,o),
(518,518,cs),
(518,483,ls),
(518,400,o),
(493,385,o),
(352,385,cs),
(166,385,l),
(166,325,l),
(352,325,ls),
(546,325,o),
(600,364,o),
(600,497,cs),
(600,504,ls),
(600,649,o),
(547,688,o),
(352,688,cs),
(100,688,l),
(100,0,l)
);
}
);
width = 699;
},
{
anchors = (
{
name = bottom;
pos = (331,0);
},
{
name = top;
pos = (331,688);
}
);
layerId = m017;
shapes = (
{
closed = 1;
nodes = (
(356,0,ls),
(551,0,o),
(604,40,o),
(604,190,cs),
(604,197,ls),
(604,335,o),
(550,375,o),
(356,375,cs),
(156,375,l),
(156,315,l),
(356,315,ls),
(497,315,o),
(522,299,o),
(522,211,cs),
(522,176,ls),
(522,89,o),
(497,74,o),
(356,74,cs),
(135,74,l),
(172,43,l),
(172,645,l),
(135,614,l),
(342,614,ls),
(483,614,o),
(508,600,o),
(508,518,cs),
(508,483,ls),
(508,400,o),
(483,385,o),
(342,385,cs),
(156,385,l),
(156,325,l),
(342,325,ls),
(536,325,o),
(590,364,o),
(590,497,cs),
(590,504,ls),
(590,649,o),
(537,688,o),
(342,688,cs),
(90,688,l),
(90,0,l)
);
}
);
width = 681;
},
{
anchors = (
{
name = bottom;
pos = (341,0);
},
{
name = top;
pos = (341,688);
}
);
background = {
shapes = (
{
closed = 1;
nodes = (
(416.261,0,l),
(575.283,0,o),
(609.609,84.13,o),
(609.609,181.087,cs),
(609.609,264.761,o),
(586.37,330.913,o),
(484.609,349.457,c),
(484.609,353.457,l),
(567.978,370,o),
(602.152,426.022,o),
(602.152,515.457,cs),
(602.152,620.978,o),
(555.826,688,o),
(419.826,688,cs),
(99.783,688,l),
(99.783,0,l)
);
},
{
closed = 1;
nodes = (
(185.783,311.348,l),
(395.804,311.348,ls),
(489.391,311.348,o),
(523.609,277.478,o),
(523.609,192.239,cs),
(523.609,107.37,o),
(494.13,73.674,o),
(395.804,73.674,cs),
(185.783,73.674,l)
);
},
{
closed = 1;
nodes = (
(185.783,613.783,l),
(391.717,613.783,ls),
(490.13,613.783,o),
(516.152,582.087,o),
(516.152,499.13,cs),
(516.152,422.261,o),
(476.652,385.565,o),
(391.717,385.565,cs),
(185.783,385.565,l)
);
}
);
};
layerId = m018;
shapes = (
{
closed = 1;
nodes = (
(366,0,ls),
(561,0,o),
(614,40,o),
(614,190,cs),
(614,197,ls),
(614,335,o),
(560,375,o),
(366,375,cs),
(166,375,l),
(166,315,l),
(366,315,ls),
(507,315,o),
(532,299,o),
(532,211,cs),
(532,176,ls),
(532,89,o),
(507,74,o),
(366,74,cs),
(145,74,l),
(182,43,l),
(182,645,l),
(145,614,l),
(352,614,ls),
(493,614,o),
(518,600,o),
(518,518,cs),
(518,483,ls),
(518,400,o),
(493,385,o),
(352,385,cs),
(166,385,l),
(166,325,l),
(352,325,ls),
(546,325,o),
(600,364,o),
(600,497,cs),
(600,504,ls),
(600,649,o),
(547,688,o),
(352,688,cs),
(100,688,l),
(100,0,l)
);
}
);
width = 699;
}
);
metricLeft = H;
metricRight = "=|*.85";
unicode = 66;
},
{
color = 4;
glyphname = C;
kernLeft = O;
kernRight = C;
layers = (
{
anchors = (
{
name = bottom;
pos = (284,0);
},
{
name = top;
pos = (284,688);
}
);
layerId = m009;
shapes = (
{
closed = 1;
nodes = (
(410,-8,o),
(476,-3,o),
(514,5,c),
(514,76,l),
(477,70,o),
(414,66,o),
(354,66,cs),
(171,66,o),
(158,83,o),
(158,310,cs),
(158,378,ls),
(158,605,o),
(171,622,o),
(354,622,cs),
(411,622,o),
(467,618,o),
(510,612,c),
(510,681,l),
(473,690,o),
(408,696,o),
(354,696,cs),
(118,696,o),
(76,644,o),
(76,349,cs),
(76,339,ls),
(76,44,o),
(118,-8,o),
(354,-8,cs)
);
}
);
width = 609;
},
{
anchors = (
{
name = bottom;
pos = (146,0);
},
{
name = top;
pos = (146,688);
}
);
layerId = m010;
shapes = (
{
closed = 1;
nodes = (
(217,-8,o),
(249,-5,o),
(267,0,c),
(267,73,l),
(248,69,o),
(217,66,o),
(190,66,cs),
(121,66,o),
(117,82,o),
(117,310,cs),
(117,378,ls),
(117,606,o),
(121,622,o),
(190,622,cs),
(209,622,o),
(235,620,o),
(265,615,c),
(265,686,l),
(247,692,o),
(216,696,o),
(190,696,cs),
(54,696,o),
(35,642,o),
(35,349,cs),
(35,339,ls),
(35,46,o),
(54,-8,o),
(190,-8,cs)
);
}
);
width = 315;
},
{
anchors = (
{
name = bottom;
pos = (375,0);
},
{
name = top;
pos = (375,688);
}
);
layerId = m011;
shapes = (
{
closed = 1;
nodes = (
(530,-8,o),
(631,-1,o),
(698,10,c),
(698,81,l),
(643,71,o),
(554,66,o),
(444,66,cs),
(174,66,o),
(152,84,o),
(152,310,cs),
(152,378,ls),
(152,601,o),
(178,622,o),
(444,622,cs),
(547,622,o),
(634,617,o),
(693,607,c),
(693,676,l),
(627,688,o),
(525,696,o),
(444,696,cs),
(129,696,o),
(70,643,o),
(70,349,cs),
(70,339,ls),
(70,43,o),
(124,-8,o),
(444,-8,cs)
);
}
);
width = 793;
},
{
anchors = (
{
name = bottom;
pos = (248,0);
},
{
name = top;
pos = (248,688);
}
);
layerId = m012;
shapes = (
{
closed = 1;
nodes = (
(338,-8,o),
(404,-3,o),
(442,5,c),
(442,76,l),
(405,70,o),
(342,66,o),
(282,66,cs),
(109,66,o),
(86,95,o),
(86,310,cs),
(86,378,ls),
(86,593,o),
(109,622,o),
(282,622,cs),
(339,622,o),
(395,619,o),
(438,612,c),
(438,681,l),
(401,690,o),
(336,696,o),
(282,696,cs),
(107,696,o),
(76,644,o),
(76,349,cs),
(76,339,ls),
(76,44,o),
(107,-8,o),
(282,-8,cs)
);
}
);
width = 537;
},
{
anchors = (
{
name = bottom;
pos = (284,0);
},
{
name = top;
pos = (284,688);
}
);
layerId = m014;
shapes = (
{
closed = 1;
nodes = (
(410,-8,o),
(476,-3,o),
(514,5,c),
(514,14,l),
(477,7,o),
(414,2,o),
(354,2,cs),
(171,2,o),
(158,24,o),
(158,310,cs),
(158,378,ls),
(158,664,o),
(171,686,o),
(354,686,cs),
(411,686,o),
(467,681,o),
(510,673,c),
(510,682,l),
(473,690,o),
(408,696,o),
(354,696,cs),
(118,696,o),
(76,644,o),
(76,349,cs),
(76,339,ls),
(76,44,o),
(118,-8,o),
(354,-8,cs)
);
}
);
width = 609;
},
{
anchors = (
{
name = bottom;
pos = (270,0);
},
{
name = top;
pos = (270,688);
}
);
layerId = m015;
shapes = (
{
closed = 1;
nodes = (
(394,-8,o),
(460,-3,o),
(498,5,c),
(498,177,l),
(461,174,o),
(398,172,o),
(338,172,cs),
(155,172,o),
(142,183,o),
(142,310,cs),
(142,378,ls),
(142,505,o),
(155,516,o),
(338,516,cs),
(395,516,o),
(451,514,o),
(494,511,c),
(494,681,l),
(457,690,o),
(392,696,o),
(338,696,cs),
(102,696,o),
(60,644,o),
(60,349,cs),
(60,339,ls),
(60,44,o),
(102,-8,o),
(338,-8,cs)
);
}
);
width = 572;
},
{
anchors = (
{
name = bottom;
pos = (300,0);
},
{
name = top;
pos = (300,688);
}
);
layerId = m016;
shapes = (
{
closed = 1;
nodes = (
(432,-8,o),
(504,-3,o),
(550,6,c),
(550,88,l),
(509,81,o),
(443,77,o),
(376,77,cs),
(185,77,o),
(172,94,o),
(172,310,cs),
(172,378,ls),
(172,593,o),
(186,611,o),
(376,611,cs),
(438,611,o),
(496,607,o),
(546,600,c),
(546,679,l),
(503,689,o),
(430,696,o),
(370,696,cs),
(120,696,o),
(76,641,o),
(76,350,cs),
(76,338,ls),
(76,47,o),
(119,-8,o),
(370,-8,cs)
);
}
);
width = 645;
},
{
anchors = (
{
name = bottom;
pos = (363,0);
},
{
name = top;
pos = (363,688);
}
);
layerId = m013;
name = "XOPQ-max - 212";
shapes = (
{
closed = 1;
nodes = (
(569,-8,o),
(670,-3,o),
(728,5,c),
(728,76,l),
(682,70,o),
(605,66,o),
(531,66,cs),
(306,66,o),
(290,83,o),
(290,310,cs),
(290,378,ls),
(290,605,o),
(306,622,o),
(531,622,cs),
(601,622,o),
(670,618,o),
(723,612,c),
(723,681,l),
(666,690,o),
(566,696,o),
(484,696,cs),
(124,696,o),
(60,644,o),
(60,349,cs),
(60,339,ls),
(60,44,o),
(124,-8,o),
(484,-8,cs)
);
}
);
width = 802;
},
{
anchors = (
{
name = bottom;
pos = (275,0);
},
{
name = top;
pos = (275,688);
}
);
layerId = m017;
shapes = (
{
closed = 1;
nodes = (
(401,-8,o),
(467,-3,o),
(505,5,c),
(505,76,l),
(468,70,o),
(405,66,o),
(345,66,cs),
(162,66,o),
(149,83,o),
(149,310,cs),
(149,378,ls),
(149,605,o),
(162,622,o),
(345,622,cs),
(402,622,o),
(458,618,o),
(501,612,c),
(501,681,l),
(464,690,o),
(399,696,o),
(345,696,cs),
(109,696,o),
(67,644,o),
(67,349,cs),
(67,339,ls),
(67,44,o),
(109,-8,o),
(345,-8,cs)
);
}
);
width = 591;
},
{
anchors = (
{
name = bottom;
pos = (284,0);
},
{
name = top;
pos = (284,688);
}
);
layerId = m018;
shapes = (
{
closed = 1;
nodes = (
(410,-8,o),
(476,-3,o),
(514,5,c),
(514,76,l),
(477,70,o),
(414,66,o),
(354,66,cs),
(171,66,o),
(158,83,o),
(158,310,cs),
(158,378,ls),
(158,605,o),
(171,622,o),
(354,622,cs),
(411,622,o),
(467,618,o),
(510,612,c),
(510,681,l),
(473,690,o),
(408,696,o),
(354,696,cs),
(118,696,o),
(76,644,o),
(76,349,cs),
(76,339,ls),
(76,44,o),
(118,-8,o),
(354,-8,cs)
);
}
);
width = 609;
}
);
metricLeft = O;
metricRight = "=H*.95";
unicode = 67;
},
{
color = 4;
glyphname = D;
kernLeft = H;
kernRight = O;
layers = (
{
anchors = (
{
name = bottom;
pos = (340,0);
},
{
name = center;
pos = (170,344);
},
{
name = top;
pos = (340,688);
}
);
layerId = m009;
shapes = (
{
closed = 1;
nodes = (
(326,0,ls),
(562,0,o),
(604,51,o),
(604,339,cs),
(604,349,ls),
(604,637,o),
(562,688,o),
(326,688,cs),
(100,688,l),
(100,0,l)
);
},
{
closed = 1;
nodes = (
(182,651,l),
(145,614,l),
(326,614,ls),
(509,614,o),
(522,597,o),
(522,377,cs),
(522,311,ls),
(522,91,o),
(509,74,o),
(326,74,cs),
(145,74,l),
(182,37,l)
);
}
);
width = 680;
},
{
anchors = (
{
name = bottom;
pos = (187,0);
},
{
name = center;
pos = (98,344);
},
{
name = top;
pos = (187,688);
}
);
layerId = m010;
shapes = (
{
closed = 1;
nodes = (
(163,0,ls),
(310,0,o),
(328,38,o),
(328,339,cs),
(328,349,ls),
(328,650,o),
(310,688,o),
(163,688,cs),
(50,688,l),
(50,0,l)
);
},
{
closed = 1;
nodes = (
(132,651,l),
(96,614,l),
(164,614,ls),
(242,614,o),
(246,601,o),
(246,377,cs),
(246,311,ls),
(246,87,o),
(242,74,o),
(164,74,cs),
(96,74,l),
(132,37,l)
);
}
);
width = 363;
},
{
anchors = (
{
name = bottom;
pos = (420,0);
},
{
name = center;
pos = (218,344);
},
{
name = top;
pos = (420,688);
}
);
layerId = m011;
shapes = (
{
closed = 1;
nodes = (
(382,0,ls),
(705,0,o),
(760,49,o),
(760,339,cs),
(760,349,ls),
(760,639,o),
(705,688,o),
(382,688,cs),
(100,688,l),
(100,0,l)
);
},
{
closed = 1;
nodes = (
(182,651,l),
(144,614,l),
(380,614,ls),
(651,614,o),
(678,592,o),
(678,377,cs),
(678,311,ls),
(678,96,o),
(651,74,o),
(380,74,cs),
(144,74,l),
(182,37,l)
);
}
);
width = 830;
},
{
anchors = (
{
name = bottom;
pos = (268,0);
},
{
name = center;
pos = (134,344);
},
{
name = top;
pos = (268,688);
}
);
layerId = m012;
shapes = (
{
closed = 1;
nodes = (
(218,0,ls),
(423,0,o),
(460,51,o),
(460,339,cs),
(460,349,ls),
(460,637,o),
(423,688,o),
(218,688,cs),
(100,688,l),
(100,0,l)
);
},
{
closed = 1;
nodes = (
(110,651,l),
(105,614,l),
(218,614,ls),
(422,614,o),
(450,586,o),
(450,377,cs),
(450,311,ls),
(450,102,o),
(422,74,o),
(218,74,cs),
(105,74,l),
(110,37,l)
);
}
);
width = 536;
},
{
anchors = (
{
name = bottom;
pos = (469,0);
},
{
name = center;
pos = (235,344);
},
{
name = top;
pos = (469,688);
}
);
layerId = m013;
shapes = (
{
closed = 1;
nodes = (
(452,0,ls),
(814,0,o),
(878,51,o),
(878,339,cs),
(878,349,ls),
(878,637,o),
(814,688,o),
(452,688,cs),
(78,688,l),
(78,0,l)
);
},
{
closed = 1;
nodes = (
(308,651,l),
(204,614,l),
(452,614,ls),
(635,614,o),
(648,597,o),
(648,377,cs),
(648,311,ls),
(648,91,o),
(635,74,o),
(452,74,cs),
(204,74,l),
(308,37,l)
);
}
);
width = 938;
},
{
anchors = (
{
name = bottom;
pos = (340,0);
},
{
name = center;
pos = (170,344);
},
{
name = top;
pos = (340,688);
}
);
layerId = m014;
shapes = (
{
closed = 1;
nodes = (
(326,0,ls),
(562,0,o),
(604,51,o),
(604,339,cs),
(604,349,ls),
(604,637,o),
(562,688,o),
(326,688,cs),
(100,688,l),
(100,0,l)
);
},
{
closed = 1;
nodes = (
(182,680,l),
(145,675,l),
(326,675,ls),
(509,675,o),
(522,653,o),
(522,377,cs),
(522,311,ls),
(522,31,o),
(509,10,o),
(326,10,cs),
(145,10,l),
(182,5,l)
);
}
);
width = 680;
},
{
anchors = (
{
name = bottom;
pos = (321,0);
},
{
name = center;
pos = (161,344);
},
{
name = top;
pos = (321,688);
}
);
layerId = m015;
shapes = (
{
closed = 1;
nodes = (
(304,0,ls),
(540,0,o),
(582,51,o),
(582,339,cs),
(582,349,ls),
(582,637,o),
(540,688,o),
(304,688,cs),
(78,688,l),
(78,0,l)
);
},
{
closed = 1;
nodes = (
(160,525,l),
(123,508,l),
(304,508,ls),
(485,508,o),
(500,499,o),
(500,377,cs),
(500,311,ls),
(500,189,o),
(485,180,o),
(304,180,cs),
(123,180,l),
(160,162,l)
);
}
);
width = 642;
},
{
anchors = (
{
name = bottom;
pos = (392,0);
},
{
name = center;
pos = (191,344);
},
{
name = top;
pos = (392,688);
}
);
layerId = m016;
shapes = (
{
closed = 1;
nodes = (
(366,0,ls),
(651,0,o),
(705,54,o),
(705,338,cs),
(705,350,ls),
(705,634,o),
(651,688,o),
(366,688,cs),
(100,688,l),
(100,0,l)
);
},
{
closed = 1;
nodes = (
(196,652,l),
(147,604,l),
(365,604,ls),
(587,604,o),
(609,584,o),
(609,377,cs),
(609,311,ls),
(609,105,o),
(587,84,o),
(365,84,cs),
(147,84,l),
(196,35,l)
);
}
);
width = 781;
},
{
anchors = (
{
name = bottom;
pos = (330,0);
},
{
name = center;
pos = (160,344);
},
{
name = top;
pos = (330,688);
}
);
layerId = m017;
shapes = (
{
closed = 1;
nodes = (
(316,0,ls),
(552,0,o),
(594,51,o),
(594,339,cs),
(594,349,ls),
(594,637,o),
(552,688,o),
(316,688,cs),
(90,688,l),
(90,0,l)
);
},
{
closed = 1;
nodes = (
(172,651,l),
(135,614,l),
(316,614,ls),
(499,614,o),
(512,597,o),
(512,377,cs),
(512,311,ls),
(512,91,o),
(499,74,o),
(316,74,cs),
(135,74,l),
(172,37,l)
);
}
);
width = 661;
},
{
anchors = (
{
name = bottom;
pos = (340,0);
},
{
name = center;
pos = (170,344);
},
{
name = top;
pos = (340,688);
}
);
layerId = m018;
shapes = (
{
closed = 1;
nodes = (
(326,0,ls),
(562,0,o),
(604,51,o),
(604,339,cs),
(604,349,ls),
(604,637,o),
(562,688,o),
(326,688,cs),
(100,688,l),
(100,0,l)
);
},
{
closed = 1;
nodes = (
(182,651,l),
(145,614,l),
(326,614,ls),
(509,614,o),
(522,597,o),
(522,377,cs),
(522,311,ls),
(522,91,o),
(509,74,o),
(326,74,cs),
(145,74,l),
(182,37,l)
);
}
);
width = 680;
}
);
metricLeft = H;
metricRight = O;
unicode = 68;
},
{
color = 4;
glyphname = E;
kernLeft = H;
kernRight = E;
layers = (
{
anchors = (
{
name = bottom;
pos = (297,0);
},
{
name = ogonek;
pos = (534,10);
},
{
name = top;
pos = (297,688);
},
{
name = topleft;
pos = (20,688);
}
);
layerId = m009;
shapes = (
{
closed = 1;
nodes = (
(145,311,l),
(496,311,l),
(496,385,l),
(145,385,l)
);
},
{
closed = 1;
nodes = (
(182,651,l),
(145,614,l),
(543,614,l),
(543,688,l),
(100,688,l),
(100,0,l),
(543,0,l),
(543,74,l),
(145,74,l),
(182,37,l)
);
}
);
width = 593;
},
{
anchors = (
{
name = bottom;
pos = (162,0);
},
{
name = ogonek;
pos = (283,10);
},
{
name = top;
pos = (162,688);
},
{
name = topleft;
pos = (30,688);
}
);
layerId = m010;
shapes = (
{
closed = 1;
nodes = (
(95,311,l),
(266,311,l),
(266,385,l),
(95,385,l)
);
},
{
closed = 1;
nodes = (
(132,651,l),
(95,614,l),
(293,614,l),
(293,688,l),
(50,688,l),
(50,0,l),
(293,0,l),
(293,74,l),
(95,74,l),
(132,37,l)
);
}
);
width = 318;
},
{
anchors = (
{
name = bottom;
pos = (386,0);
},
{
name = ogonek;
pos = (681,10);
},
{
name = top;
pos = (386,688);
},
{
name = topleft;
pos = (36,688);
}
);
layerId = m011;
shapes = (
{
closed = 1;
nodes = (
(145,311,l),
(666,311,l),
(666,385,l),
(145,385,l)
);
},
{
closed = 1;
nodes = (
(182,651,l),
(145,612,l),
(713,612,l),
(713,688,l),
(100,688,l),
(100,0,l),
(713,0,l),
(713,76,l),
(145,76,l),
(182,37,l)
);
}
);
width = 763;
},
{
anchors = (
{
name = bottom;
pos = (252,0);
},
{
name = ogonek;
pos = (453,10);
},
{
name = top;
pos = (252,688);
},
{
name = topleft;
pos = (20,688);
}
);
layerId = m012;
shapes = (
{
closed = 1;
nodes = (
(105,311,l),
(406,311,l),
(406,385,l),
(105,385,l)
);
},
{
closed = 1;
nodes = (
(110,651,l),
(105,614,l),
(453,614,l),
(453,688,l),
(100,688,l),
(100,0,l),
(453,0,l),
(453,74,l),
(105,74,l),
(110,37,l)
);
}
);
width = 503;
},
{
anchors = (
{
name = bottom;
pos = (386,0);
},
{
name = ogonek;
pos = (695,10);
},
{
name = top;
pos = (386,688);
},
{
name = topleft;
pos = (20,688);
}
);
layerId = m013;
shapes = (
{
closed = 1;
nodes = (
(231,311,l),
(688,311,l),
(688,385,l),
(231,385,l)
);
},
{
closed = 1;
nodes = (
(360,651,l),
(231,614,l),
(733,614,l),
(733,688,l),
(78,688,l),
(78,0,l),
(733,0,l),
(733,74,l),
(231,74,l),
(360,37,l)
);
}
);
width = 772;
},
{
anchors = (
{
name = bottom;
pos = (288,0);
},
{
name = ogonek;
pos = (518,10);
},
{
name = top;
pos = (288,688);
},
{
name = topleft;
pos = (20,688);
}
);
layerId = m014;
shapes = (
{
closed = 1;
nodes = (
(145,343,l),
(478,343,l),
(478,353,l),
(145,353,l)
);
},
{
closed = 1;
nodes = (
(182,683,l),
(145,678,l),
(525,678,l),
(525,688,l),
(100,688,l),
(100,0,l),
(525,0,l),
(525,10,l),
(145,10,l),
(182,5,l)
);
}
);
width = 575;
},
{
anchors = (
{
name = bottom;
pos = (286,0);
},
{
name = ogonek;
pos = (515,10);
},
{
name = top;
pos = (286,688);
},
{
name = topleft;
pos = (20,688);
}
);
layerId = m015;
shapes = (
{
closed = 1;
nodes = (
(123,258,l),
(486,258,l),
(486,438,l),
(123,438,l)
);
},
{
closed = 1;
nodes = (
(160,588,l),
(123,508,l),
(533,508,l),
(533,688,l),
(78,688,l),
(78,0,l),
(533,0,l),
(533,180,l),
(123,180,l),
(160,100,l)
);
}
);
width = 572;
},
{
anchors = (
{
name = bottom;
pos = (316,0);
},
{
name = ogonek;
pos = (575,10);
},
{
name = top;
pos = (316,688);
},
{
name = topleft;
pos = (11,688);
}
);
layerId = m016;
shapes = (
{
closed = 1;
nodes = (
(153,306,l),
(538,306,l),
(538,390,l),
(153,390,l)
);
},
{
closed = 1;
nodes = (
(196,647,l),
(153,604,l),
(585,604,l),
(585,688,l),
(100,688,l),
(100,0,l),
(585,0,l),
(585,84,l),
(153,84,l),
(196,41,l)
);
}
);
width = 635;
},
{
anchors = (
{
name = bottom;
pos = (287,0);
},
{
name = ogonek;
pos = (524,10);
},
{
name = top;
pos = (287,688);
},
{
name = topleft;
pos = (10,688);
}
);
layerId = m017;
shapes = (
{
closed = 1;
nodes = (
(135,311,l),
(486,311,l),
(486,385,l),
(135,385,l)
);
},
{
closed = 1;
nodes = (
(172,651,l),
(135,614,l),
(533,614,l),
(533,688,l),
(90,688,l),
(90,0,l),
(533,0,l),
(533,74,l),
(135,74,l),
(172,37,l)
);
}
);
width = 578;
},
{
anchors = (
{
name = bottom;
pos = (297,0);
},
{
name = ogonek;
pos = (534,10);
},
{
name = top;
pos = (297,688);
},
{
name = topleft;
pos = (20,688);
}
);
layerId = m018;
shapes = (
{
closed = 1;
nodes = (
(145,311,l),
(496,311,l),
(496,385,l),
(145,385,l)
);
},
{
closed = 1;
nodes = (
(182,651,l),
(145,614,l),
(543,614,l),
(543,688,l),
(100,688,l),
(100,0,l),
(543,0,l),
(543,74,l),
(145,74,l),
(182,37,l)
);
}
);
width = 593;
}
);
metricLeft = H;
metricRight = "=|*.5";
unicode = 69;
},
{
color = 4;
glyphname = F;
kernLeft = H;
kernRight = E;
layers = (
{
anchors = (
{
name = bottom;
pos = (287,0);
},
{
name = top;
pos = (287,688);
}
);
layerId = m009;
shapes = (
{
closed = 1;
nodes = (
(145,301,l),
(486,301,l),
(486,375,l),
(145,375,l)
);
},
{
closed = 1;
nodes = (
(182,651,l),
(145,614,l),
(533,614,l),
(533,688,l),
(100,688,l),
(100,0,l),
(182,0,l)
);
}
);
width = 573;
},
{
anchors = (
{
name = bottom;
pos = (157,0);
},
{
name = top;
pos = (157,688);
}
);
layerId = m010;
shapes = (
{
closed = 1;
nodes = (
(95,301,l),
(260,301,l),
(260,375,l),
(95,375,l)
);
},
{
closed = 1;
nodes = (
(132,651,l),
(95,614,l),
(287,614,l),
(287,688,l),
(50,688,l),
(50,0,l),
(132,0,l)
);
}
);
width = 307;
},
{
anchors = (
{
name = bottom;
pos = (374,0);
},
{
name = top;
pos = (374,688);
}
);
layerId = m011;
shapes = (
{
closed = 1;
nodes = (
(145,301,l),
(650,301,l),
(650,375,l),
(145,375,l)
);
},
{
closed = 1;
nodes = (
(182,651,l),
(145,612,l),
(697,612,l),
(697,688,l),
(100,688,l),
(100,0,l),
(182,0,l)
);
}
);
width = 737;
},
{
anchors = (
{
name = bottom;
pos = (242,0);
},
{
name = top;
pos = (242,688);
}
);
layerId = m012;
shapes = (
{
closed = 1;
nodes = (
(105,291,l),
(396,291,l),
(396,365,l),
(105,365,l)
);
},
{
closed = 1;
nodes = (
(110,651,l),
(105,614,l),
(443,614,l),
(443,688,l),
(100,688,l),
(100,0,l),
(110,0,l)
);
}
);
width = 483;
},
{
anchors = (
{
name = bottom;
pos = (377,0);
},
{
name = top;
pos = (377,688);
}
);
layerId = m013;
shapes = (
{
closed = 1;
nodes = (
(231,301,l),
(678,301,l),
(678,375,l),
(231,375,l)
);
},
{
closed = 1;
nodes = (
(360,651,l),
(231,614,l),
(723,614,l),
(723,688,l),
(78,688,l),
(78,0,l),
(360,0,l)
);
}
);
width = 754;
},
{
anchors = (
{
name = bottom;
pos = (278,0);
},
{
name = top;
pos = (278,688);
}
);
layerId = m014;
shapes = (
{
closed = 1;
nodes = (
(145,333,l),
(468,333,l),
(468,343,l),
(145,343,l)
);
},
{
closed = 1;
nodes = (
(182,683,l),
(145,678,l),
(515,678,l),
(515,688,l),
(100,688,l),
(100,0,l),
(182,0,l)
);
}
);
width = 555;
},
{
anchors = (
{
name = bottom;
pos = (277,0);
},
{
name = top;
pos = (277,688);
}
);
layerId = m015;
shapes = (
{
closed = 1;
nodes = (
(123,218,l),
(476,218,l),
(476,398,l),
(123,398,l)
);
},
{
closed = 1;
nodes = (
(160,588,l),
(123,508,l),
(523,508,l),
(523,688,l),
(78,688,l),
(78,0,l),
(160,0,l)
);
}
);
width = 554;
},
{
anchors = (
{
name = bottom;
pos = (305,0);
},
{
name = top;
pos = (305,688);
}
);
layerId = m016;
shapes = (
{
closed = 1;
nodes = (
(153,301,l),
(528,301,l),
(528,385,l),
(153,385,l)
);
},
{
closed = 1;
nodes = (
(196,647,l),
(153,604,l),
(575,604,l),
(575,688,l),
(100,688,l),
(100,0,l),
(196,0,l)
);
}
);
width = 615;
},
{
anchors = (
{
name = bottom;
pos = (277,0);
},
{
name = top;
pos = (277,688);
}
);
layerId = m017;
shapes = (
{
closed = 1;
nodes = (
(135,301,l),
(476,301,l),
(476,375,l),
(135,375,l)
);
},
{
closed = 1;
nodes = (
(172,651,l),
(135,614,l),
(523,614,l),
(523,688,l),
(90,688,l),
(90,0,l),
(172,0,l)
);
}
);
width = 559;
},
{
anchors = (
{
name = bottom;
pos = (287,0);
},
{
name = top;
pos = (287,688);
}
);
layerId = m018;
shapes = (
{
closed = 1;
nodes = (
(145,301,l),
(486,301,l),
(486,375,l),
(145,375,l)
);
},
{
closed = 1;
nodes = (
(182,651,l),
(145,614,l),
(533,614,l),
(533,688,l),
(100,688,l),
(100,0,l),
(182,0,l)
);
}
);
width = 573;
}
);
metricLeft = H;
metricRight = "=|*.4";
unicode = 70;
},
{
color = 4;
glyphname = G;
kernLeft = O;
kernRight = G;
layers = (
{
anchors = (
{
name = bottom;
pos = (340,0);
},
{
name = top;
pos = (340,688);
}
);
background = {
shapes = (
{
closed = 1;
nodes = (
(426,-8,o),
(517,0,o),
(584,12,c),
(584,370,l),
(345,370,l),
(345,297,l),
(501,297,l),
(501,73,l),
(468,68,o),
(407,65,o),
(366,65,cs),
(182,65,o),
(158,101,o),
(158,344,cs),
(158,618,o),
(199,622,o),
(406,622,cs),
(445,622,o),
(516,615,o),
(581,606,c),
(581,676,l),
(521,687,o),
(431,696,o),
(364,696,cs),
(124,696,o),
(72,639,o),
(72,344,cs),
(72,49,o),
(121,-8,o),
(364,-8,cs)
);
}
);
};
layerId = m009;
shapes = (
{
closed = 1;
nodes = (
(467,-8,o),
(542,1,o),
(584,15,c),
(584,370,l),
(345,370,l),
(345,300,l),
(504,300,l),
(504,72,l),
(468,68,o),
(431,66,o),
(393,66,cs),
(174,66,o),
(158,83,o),
(158,310,cs),
(158,378,ls),
(158,605,o),
(174,622,o),
(393,622,cs),
(461,622,o),
(527,618,o),
(579,612,c),
(579,681,l),
(537,690,o),
(461,696,o),
(398,696,cs),
(125,696,o),
(76,644,o),
(76,349,cs),
(76,339,ls),
(76,44,o),
(125,-8,o),
(398,-8,cs)
);
}
);
width = 679;
},
{
anchors = (
{
name = bottom;
pos = (190,0);
},
{
name = top;
pos = (190,688);
}
);
layerId = m010;
shapes = (
{
closed = 1;
nodes = (
(244,-8,o),
(283,-3,o),
(304,5,c),
(304,370,l),
(176,370,l),
(176,300,l),
(224,300,l),
(224,67,l),
(215,66,o),
(210,66,o),
(196,66,cs),
(122,66,o),
(117,80,o),
(117,310,cs),
(117,378,ls),
(117,607,o),
(123,622,o),
(209,622,cs),
(243,622,o),
(276,619,o),
(302,615,c),
(302,686,l),
(280,692,o),
(241,696,o),
(209,696,cs),
(59,696,o),
(35,648,o),
(35,349,cs),
(35,339,ls),
(35,40,o),
(59,-8,o),
(209,-8,cs)
);
}
);
width = 352;
},
{
anchors = (
{
name = bottom;
pos = (419,0);
},
{
name = top;
pos = (419,688);
}
);
layerId = m011;
shapes = (
{
closed = 1;
nodes = (
(550,-8,o),
(672,-1,o),
(752,10,c),
(752,370,l),
(385,370,l),
(385,300,l),
(672,300,l),
(672,75,l),
(623,69,o),
(544,66,o),
(444,66,cs),
(174,66,o),
(152,84,o),
(152,310,cs),
(152,378,ls),
(152,601,o),
(178,622,o),
(444,622,cs),
(571,622,o),
(676,617,o),
(749,607,c),
(749,676,l),
(669,688,o),
(543,696,o),
(444,696,cs),
(128,696,o),
(70,642,o),
(70,349,cs),
(70,339,ls),
(70,43,o),
(124,-8,o),
(444,-8,cs)
);
}
);
width = 847;
},
{
anchors = (
{
name = bottom;
pos = (268,0);
},
{
name = top;
pos = (268,688);
}
);
layerId = m012;
shapes = (
{
closed = 1;
nodes = (
(337,-8,o),
(402,-3,o),
(440,5,c),
(440,370,l),
(273,370,l),
(273,300,l),
(430,300,l),
(430,75,l),
(396,70,o),
(338,66,o),
(282,66,cs),
(109,66,o),
(86,95,o),
(86,310,cs),
(86,378,ls),
(86,593,o),
(109,622,o),
(282,622,cs),
(339,622,o),
(395,619,o),
(438,612,c),
(438,681,l),
(401,690,o),
(336,696,o),
(282,696,cs),
(107,696,o),
(76,644,o),
(76,349,cs),
(76,339,ls),
(76,44,o),
(107,-8,o),
(282,-8,cs)
);
}
);
width = 535;
},
{
anchors = (
{
name = bottom;
pos = (465,0);
},
{
name = top;
pos = (465,688);
}
);
layerId = m013;
shapes = (
{
closed = 1;
nodes = (
(653,-8,o),
(783,2,o),
(856,18,c),
(856,370,l),
(477,370,l),
(477,300,l),
(636,300,l),
(636,72,l),
(600,68,o),
(563,66,o),
(525,66,cs),
(306,66,o),
(290,83,o),
(290,310,cs),
(290,378,ls),
(290,605,o),
(307,622,o),
(534,622,cs),
(659,622,o),
(768,619,o),
(848,612,c),
(848,683,l),
(773,691,o),
(643,696,o),
(534,696,cs),
(132,696,o),
(60,644,o),
(60,349,cs),
(60,339,ls),
(60,44,o),
(132,-8,o),
(534,-8,cs)
);
}
);
width = 930;
},
{
anchors = (
{
name = bottom;
pos = (340,0);
},
{
name = top;
pos = (340,688);
}
);
layerId = m014;
shapes = (
{
closed = 1;
nodes = (
(467,-8,o),
(542,1,o),
(584,15,c),
(584,340,l),
(345,340,l),
(345,330,l),
(504,330,l),
(504,10,l),
(468,5,o),
(431,2,o),
(393,2,cs),
(174,2,o),
(158,23,o),
(158,310,cs),
(158,378,ls),
(158,665,o),
(174,686,o),
(393,686,cs),
(461,686,o),
(528,681,o),
(579,673,c),
(579,682,l),
(535,690,o),
(457,696,o),
(393,696,cs),
(124,696,o),
(76,644,o),
(76,349,cs),
(76,339,ls),
(76,44,o),
(125,-8,o),
(398,-8,cs)
);
}
);
width = 679;
},
{
anchors = (
{
name = bottom;
pos = (321,0);
},
{
name = top;
pos = (321,688);
}
);
layerId = m015;
shapes = (
{
closed = 1;
nodes = (
(451,-8,o),
(526,1,o),
(568,15,c),
(568,435,l),
(329,435,l),
(329,255,l),
(488,255,l),
(488,175,l),
(452,173,o),
(415,172,o),
(377,172,cs),
(158,172,o),
(142,183,o),
(142,310,cs),
(142,378,ls),
(142,507,o),
(158,516,o),
(377,516,cs),
(445,516,o),
(512,514,o),
(563,511,c),
(563,681,l),
(519,690,o),
(441,696,o),
(377,696,cs),
(108,696,o),
(60,644,o),
(60,349,cs),
(60,339,ls),
(60,44,o),
(109,-8,o),
(382,-8,cs)
);
}
);
width = 642;
},
{
anchors = (
{
name = bottom;
pos = (339,0);
},
{
name = top;
pos = (339,688);
}
);
layerId = m016;
shapes = (
{
closed = 1;
nodes = (
(467,-8,o),
(542,1,o),
(584,15,c),
(584,370,l),
(345,370,l),
(345,300,l),
(504,300,l),
(504,72,l),
(468,68,o),
(431,66,o),
(393,66,cs),
(174,66,o),
(158,83,o),
(158,310,cs),
(158,378,ls),
(158,605,o),
(174,622,o),
(393,622,cs),
(454,622,o),
(522,618,o),
(579,612,c),
(579,681,l),
(538,690,o),
(463,696,o),
(398,696,cs),
(125,696,o),
(76,644,o),
(76,349,cs),
(76,339,ls),
(76,44,o),
(125,-8,o),
(398,-8,cs)
);
}
);
width = 679;
},
{
anchors = (
{
name = bottom;
pos = (331,0);
},
{
name = top;
pos = (331,688);
}
);
background = {
shapes = (
{
closed = 1;
nodes = (
(417,-8,o),
(508,0,o),
(575,12,c),
(575,370,l),
(336,370,l),
(336,297,l),
(492,297,l),
(492,73,l),
(459,68,o),
(398,65,o),
(357,65,cs),
(173,65,o),
(149,101,o),
(149,344,cs),
(149,618,o),
(190,622,o),
(397,622,cs),
(436,622,o),
(507,615,o),
(572,606,c),
(572,676,l),
(512,687,o),
(422,696,o),
(355,696,cs),
(115,696,o),
(63,639,o),
(63,344,cs),
(63,49,o),
(112,-8,o),
(355,-8,cs)
);
}
);
};
layerId = m017;
shapes = (
{
closed = 1;
nodes = (
(458,-8,o),
(533,1,o),
(575,15,c),
(575,370,l),
(336,370,l),
(336,300,l),
(495,300,l),
(495,72,l),
(459,68,o),
(422,66,o),
(384,66,cs),
(165,66,o),
(149,83,o),
(149,310,cs),
(149,378,ls),
(149,605,o),
(165,622,o),
(384,622,cs),
(452,622,o),
(518,618,o),
(570,612,c),
(570,681,l),
(528,690,o),
(452,696,o),
(389,696,cs),
(116,696,o),
(67,644,o),
(67,349,cs),
(67,339,ls),
(67,44,o),
(116,-8,o),
(389,-8,cs)
);
}
);
width = 661;
},
{
anchors = (
{
name = bottom;
pos = (340,0);
},
{
name = top;
pos = (340,688);
}
);
background = {
shapes = (
{
closed = 1;
nodes = (
(426,-8,o),
(517,0,o),
(584,12,c),
(584,370,l),
(345,370,l),
(345,297,l),
(501,297,l),
(501,73,l),
(468,68,o),
(407,65,o),
(366,65,cs),
(182,65,o),
(158,101,o),
(158,344,cs),
(158,618,o),
(199,622,o),
(406,622,cs),
(445,622,o),
(516,615,o),
(581,606,c),
(581,676,l),
(521,687,o),
(431,696,o),
(364,696,cs),
(124,696,o),
(72,639,o),
(72,344,cs),
(72,49,o),
(121,-8,o),
(364,-8,cs)
);
}
);
};
layerId = m018;
shapes = (
{
closed = 1;
nodes = (
(467,-8,o),
(542,1,o),
(584,15,c),
(584,370,l),
(345,370,l),
(345,300,l),
(504,300,l),
(504,72,l),
(468,68,o),
(431,66,o),
(393,66,cs),
(174,66,o),
(158,83,o),
(158,310,cs),
(158,378,ls),
(158,605,o),
(174,622,o),
(393,622,cs),
(461,622,o),
(527,618,o),
(579,612,c),
(579,681,l),
(537,690,o),
(461,696,o),
(398,696,cs),
(125,696,o),
(76,644,o),
(76,349,cs),
(76,339,ls),
(76,44,o),
(125,-8,o),
(398,-8,cs)
);
}
);
width = 679;
}
);
metricLeft = "=O";
metricRight = "=H*.95";
unicode = 71;
},
{
color = 6;
glyphname = H;
kernLeft = H;
kernRight = H;
layers = (
{
anchors = (
{
name = bottom;
pos = (357,0);
},
{
name = center;
pos = (357,550);
},
{
name = top;
pos = (357,688);
},
{
name = topleft;
pos = (20,688);
}
);
layerId = m009;
shapes = (
{
closed = 1;
nodes = (
(182,0,l),
(182,347,l),
(145,310,l),
(569,310,l),
(532,347,l),
(532,0,l),
(614,0,l),
(614,688,l),
(532,688,l),
(532,347,l),
(569,384,l),
(145,384,l),
(182,347,l),
(182,688,l),
(100,688,l),
(100,0,l)
);
}
);
width = 714;
},
{
anchors = (
{
name = bottom;
pos = (187,0);
},
{
name = center;
pos = (187,550);
},
{
name = top;
pos = (187,688);
},
{
name = topleft;
pos = (30,688);
}
);
layerId = m010;
shapes = (
{
closed = 1;
nodes = (
(132,0,l),
(132,347,l),
(95,310,l),
(279,310,l),
(242,347,l),
(242,0,l),
(324,0,l),
(324,688,l),
(242,688,l),
(242,347,l),
(279,384,l),
(95,384,l),
(132,347,l),
(132,688,l),
(50,688,l),
(50,0,l)
);
}
);
width = 374;
},
{
anchors = (
{
name = bottom;
pos = (437,0);
},
{
name = center;
pos = (437,550);
},
{
name = top;
pos = (437,688);
},
{
name = topleft;
pos = (36,688);
}
);
layerId = m011;
shapes = (
{
closed = 1;
nodes = (
(182,0,l),
(182,347,l),
(145,310,l),
(729,310,l),
(692,347,l),
(692,0,l),
(774,0,l),
(774,688,l),
(692,688,l),
(692,347,l),
(729,384,l),
(145,384,l),
(182,347,l),
(182,688,l),
(100,688,l),
(100,0,l)
);
}
);
width = 874;
},
{
anchors = (
{
name = bottom;
pos = (285,0);
},
{
name = center;
pos = (285,550);
},
{
name = top;
pos = (285,688);
},
{
name = topleft;
pos = (20,688);
}
);
layerId = m012;
shapes = (
{
closed = 1;
nodes = (
(110,0,l),
(110,347,l),
(104,310,l),
(466,310,l),
(460,347,l),
(460,0,l),
(470,0,l),
(470,688,l),
(460,688,l),
(460,347,l),
(466,384,l),
(104,384,l),
(110,347,l),
(110,688,l),
(100,688,l),
(100,0,l)
);
}
);
width = 570;
},
{
anchors = (
{
name = bottom;
pos = (483,0);
},
{
name = center;
pos = (483,550);
},
{
name = top;
pos = (483,688);
},
{
name = topleft;
pos = (20,688);
}
);
layerId = m013;
shapes = (
{
closed = 1;
nodes = (
(308,0,l),
(308,347,l),
(198,310,l),
(768,310,l),
(658,347,l),
(658,0,l),
(888,0,l),
(888,688,l),
(658,688,l),
(658,347,l),
(768,384,l),
(198,384,l),
(308,347,l),
(308,688,l),
(78,688,l),
(78,0,l)
);
}
);
width = 966;
},
{
anchors = (
{
name = bottom;
pos = (357,0);
},
{
name = center;
pos = (357,550);
},
{
name = top;
pos = (357,688);
},
{
name = topleft;
pos = (20,688);
}
);
layerId = m014;
shapes = (
{
closed = 1;
nodes = (
(182,0,l),
(182,347,l),
(145,342,l),
(569,342,l),
(532,347,l),
(532,0,l),
(614,0,l),
(614,688,l),
(532,688,l),
(532,347,l),
(569,352,l),
(145,352,l),
(182,347,l),
(182,688,l),
(100,688,l),
(100,0,l)
);
}
);
width = 714;
},
{
anchors = (
{
name = bottom;
pos = (335,0);
},
{
name = center;
pos = (335,550);
},
{
name = top;
pos = (335,688);
},
{
name = topleft;
pos = (20,688);
}
);
layerId = m015;
shapes = (
{
closed = 1;
nodes = (
(160,0,l),
(160,347,l),
(123,257,l),
(547,257,l),
(510,347,l),
(510,0,l),
(592,0,l),
(592,688,l),
(510,688,l),
(510,347,l),
(547,437,l),
(123,437,l),
(160,347,l),
(160,688,l),
(78,688,l),
(78,0,l)
);
}
);
width = 670;
},
{
anchors = (
{
name = bottom;
pos = (330,0);
},
{
name = center;
pos = (330,550);
},
{
name = top;
pos = (330,688);
},
{
name = topleft;
pos = (21,688);
}
);
associatedMasterId = m017;
layerId = "3F15CB3C-25E3-47AB-A947-8B59BE46CA63";
name = "20 Apr 26 at 09:52";
shapes = (
{
closed = 1;
nodes = (
(171,0,l),
(171,347,l),
(136,313,l),
(522,313,l),
(488,347,l),
(488,0,l),
(566,0,l),
(566,688,l),
(488,688,l),
(488,347,l),
(522,381,l),
(136,381,l),
(171,347,l),
(171,688,l),
(93,688,l),
(93,0,l)
);
}
);
width = 659;
},
{
anchors = (
{
name = bottom;
pos = (321,0);
},
{
name = center;
pos = (321,550);
},
{
name = top;
pos = (321,688);
},
{
name = topleft;
pos = (22,688);
}
);
layerId = m017;
name = "OPSZ-max";
shapes = (
{
closed = 1;
nodes = (
(170,0,l),
(170,347,l),
(134,312,l),
(507,312,l),
(471,347,l),
(471,0,l),
(551,0,l),
(551,688,l),
(471,688,l),
(471,347,l),
(507,382,l),
(134,382,l),
(170,347,l),
(170,688,l),
(90,688,l),
(90,0,l)
);
}
);
width = 641;
},
{
anchors = (
{
name = bottom;
pos = (391,0);
},
{
name = center;
pos = (391,550);
},
{
name = top;
pos = (391,688);
},
{
name = topleft;
pos = (28,688);
}
);
associatedMasterId = m016;
layerId = "733991D0-BC88-40C4-AF6A-A866A25676AD";
name = "20 Apr 26 at 11:45";
shapes = (
{
closed = 1;
nodes = (
(200,0,l),
(200,347,l),
(154,305,l),
(628,305,l),
(582,347,l),
(582,0,l),
(682,0,l),
(682,688,l),
(582,688,l),
(582,347,l),
(628,389,l),
(154,389,l),
(200,347,l),
(200,688,l),
(100,688,l),
(100,0,l)
);
}
);
width = 782;
},
{
anchors = (
{
name = bottom;
pos = (381,0);
},
{
name = center;
pos = (381,550);
},
{
name = top;
pos = (381,688);
},
{
name = topleft;
pos = (26,688);
}
);
layerId = m016;
name = "OPSZ-min";
shapes = (
{
closed = 1;
nodes = (
(200,0,l),
(200,347,l),
(154,305,l),
(608,305,l),
(563,347,l),
(563,0,l),
(662,0,l),
(662,688,l),
(563,688,l),
(563,347,l),
(608,389,l),
(154,389,l),
(200,347,l),
(200,688,l),
(100,688,l),
(100,0,l)
);
}
);
visible = 1;
width = 762;
},
{
anchors = (
{
name = bottom;
pos = (357,0);
},
{
name = center;
pos = (357,550);
},
{
name = top;
pos = (357,688);
},
{
name = topleft;
pos = (20,688);
}
);
layerId = m018;
shapes = (
{
closed = 1;
nodes = (
(182,0,l),
(182,347,l),
(145,310,l),
(569,310,l),
(532,347,l),
(532,0,l),
(614,0,l),
(614,688,l),
(532,688,l),
(532,347,l),
(569,384,l),
(145,384,l),
(182,347,l),
(182,688,l),
(100,688,l),
(100,0,l)
);
}
);
width = 714;
}
);
metricRight = "=|";
unicode = 72;
userData = {
com.typespan.data.v1 = {
masters = {
m009 = {
track_data = {
"2026-04-20" = {
"09" = 1.29887;
"10" = 26.12272;
"11" = 17.07788;
"12" = 24.32314;
"19" = 1.21333;
};
"2026-04-21" = {
"13" = 19.02492;
"14" = 7.63813;
"15" = 13.44754;
};
"2026-04-22" = {
"17" = 9.85162;
};
"2026-04-23" = {
"08" = 2.02649;
"09" = 3.236;
"14" = 13.56695;
"15" = 4.01207;
};
};
};
m010 = {
track_data = {
"2026-04-20" = {
"10" = 0.45391;
"12" = 2.26144;
};
"2026-04-23" = {
"09" = 8.30664;
"14" = 8.43904;
"15" = 10.50974;
"16" = 1.53617;
};
"2026-04-27" = {
"11" = 2.0138;
"12" = 2.04576;
};
};
};
m011 = {
track_data = {
"2026-04-21" = {
"13" = 0.946;
};
"2026-04-23" = {
"14" = 2.56549;
"15" = 5.69738;
};
};
};
m012 = {
track_data = {
"2026-04-23" = {
"14" = 22.31162;
"15" = 4.77809;
};
};
};
m013 = {
track_data = {
"2026-04-23" = {
"14" = 12.78905;
};
"2026-04-24" = {
"15" = 0.93593;
};
};
};
m014 = {
track_data = {
"2026-04-23" = {
"15" = 5.9553;
};
};
};
m015 = {
track_data = {
"2026-04-23" = {
"15" = 1.28283;
};
};
};
m016 = {
track_data = {
"2026-04-20" = {
"09" = 90.44744;
"10" = 5.57151;
"11" = 111.6212;
"12" = 17.03499;
};
};
};
m017 = {
track_data = {
"2026-04-20" = {
"09" = 87.20164;
"12" = 4.91683;
};
};
};
m018 = {
track_data = {
"2026-04-20" = {
"19" = 29.65696;
};
"2026-04-22" = {
"17" = 48.47998;
};
"2026-04-23" = {
"17" = 4.65646;
};
};
};
};
};
};
},
{
color = 4;
glyphname = I;
kernLeft = H;
kernRight = H;
layers = (
{
anchors = (
{
name = bottom;
pos = (141,0);
},
{
name = ogonek;
pos = (254,10);
},
{
name = top;
pos = (141,688);
},
{
name = topleft;
pos = (20,688);
}
);
layerId = m009;
shapes = (
{
closed = 1;
nodes = (
(182,0,l),
(182,688,l),
(100,688,l),
(100,0,l)
);
}
);
width = 282;
},
{
anchors = (
{
name = bottom;
pos = (91,0);
},
{
name = ogonek;
pos = (156,10);
},
{
name = top;
pos = (91,688);
},
{
name = topleft;
pos = (30,688);
}
);
layerId = m010;
shapes = (
{
closed = 1;
nodes = (
(132,0,l),
(132,688,l),
(50,688,l),
(50,0,l)
);
}
);
width = 182;
},
{
anchors = (
{
name = bottom;
pos = (141,0);
},
{
name = ogonek;
pos = (241,10);
},
{
name = top;
pos = (141,688);
},
{
name = topleft;
pos = (36,688);
}
);
layerId = m011;
shapes = (
{
closed = 1;
nodes = (
(182,0,l),
(182,688,l),
(100,688,l),
(100,0,l)
);
}
);
width = 282;
},
{
anchors = (
{
name = bottom;
pos = (105,0);
},
{
name = ogonek;
pos = (189,10);
},
{
name = top;
pos = (105,688);
},
{
name = topleft;
pos = (20,688);
}
);
layerId = m012;
shapes = (
{
closed = 1;
nodes = (
(110,0,l),
(110,688,l),
(100,688,l),
(100,0,l)
);
}
);
width = 210;
},
{
anchors = (
{
name = bottom;
pos = (193,0);
},
{
name = ogonek;
pos = (347,10);
},
{
name = top;
pos = (193,688);
},
{
name = topleft;
pos = (20,688);
}
);
layerId = m013;
shapes = (
{
closed = 1;
nodes = (
(308,0,l),
(308,688,l),
(78,688,l),
(78,0,l)
);
}
);
width = 386;
},
{
anchors = (
{
name = bottom;
pos = (141,0);
},
{
name = ogonek;
pos = (254,10);
},
{
name = top;
pos = (141,688);
},
{
name = topleft;
pos = (20,688);
}
);
layerId = m014;
shapes = (
{
closed = 1;
nodes = (
(182,0,l),
(182,688,l),
(100,688,l),
(100,0,l)
);
}
);
width = 282;
},
{
anchors = (
{
name = bottom;
pos = (119,0);
},
{
name = ogonek;
pos = (214,10);
},
{
name = top;
pos = (119,688);
},
{
name = topleft;
pos = (20,688);
}
);
layerId = m015;
shapes = (
{
closed = 1;
nodes = (
(160,0,l),
(160,688,l),
(78,688,l),
(78,0,l)
);
}
);
width = 238;
},
{
anchors = (
{
name = bottom;
pos = (148,0);
},
{
name = ogonek;
pos = (274,10);
},
{
name = top;
pos = (148,688);
},
{
name = topleft;
pos = (11,688);
}
);
layerId = m016;
shapes = (
{
closed = 1;
nodes = (
(196,0,l),
(196,688,l),
(100,688,l),
(100,0,l)
);
}
);
width = 296;
},
{
anchors = (
{
name = bottom;
pos = (131,0);
},
{
name = ogonek;
pos = (244,10);
},
{
name = top;
pos = (131,688);
},
{
name = topleft;
pos = (10,688);
}
);
layerId = m017;
shapes = (
{
closed = 1;
nodes = (
(172,0,l),
(172,688,l),
(90,688,l),
(90,0,l)
);
}
);
width = 262;
},
{
anchors = (
{
name = bottom;
pos = (141,0);
},
{
name = ogonek;
pos = (254,10);
},
{
name = top;
pos = (141,688);
},
{
name = topleft;
pos = (20,688);
}
);
layerId = m018;
shapes = (
{
closed = 1;
nodes = (
(182,0,l),
(182,688,l),
(100,688,l),
(100,0,l)
);
}
);
width = 282;
}
);
metricLeft = H;
metricRight = "=|";
unicode = 73;
},
{
color = 4;
glyphname = J;
kernLeft = f;
kernRight = f;
layers = (
{
anchors = (
{
name = bottom;
pos = (152,0);
},
{
name = top;
pos = (152,688);
}
);
layerId = m009;
shapes = (
{
closed = 1;
nodes = (
(137,688,l),
(137,141,ls),
(137,78,o),
(116,66,o),
(5,66,c),
(5,-4,l),
(172,-4,o),
(219,29,o),
(219,148,cs),
(219,688,l)
);
}
);
width = 319;
},
{
anchors = (
{
name = bottom;
pos = (105,0);
},
{
name = top;
pos = (105,688);
}
);
layerId = m010;
shapes = (
{
closed = 1;
nodes = (
(94,688,l),
(94,141,ls),
(94,78,o),
(80,66,o),
(2,66,c),
(2,-4,l),
(137,-4,o),
(176,29,o),
(176,148,cs),
(176,688,l)
);
}
);
width = 226;
},
{
anchors = (
{
name = bottom;
pos = (166,0);
},
{
name = top;
pos = (166,688);
}
);
layerId = m011;
shapes = (
{
closed = 1;
nodes = (
(177,688,l),
(177,141,ls),
(177,78,o),
(148,66,o),
(5,66,c),
(5,-4,l),
(204,-4,o),
(259,29,o),
(259,148,cs),
(259,688,l)
);
}
);
width = 359;
},
{
anchors = (
{
name = bottom;
pos = (99,0);
},
{
name = top;
pos = (99,688);
}
);
layerId = m012;
shapes = (
{
closed = 1;
nodes = (
(100,688,l),
(100,141,ls),
(100,78,o),
(85,66,o),
(5,66,c),
(5,-4,l),
(89,-4,o),
(112,29,o),
(112,148,cs),
(112,688,l)
);
}
);
width = 212;
},
{
anchors = (
{
name = bottom;
pos = (234,0);
},
{
name = top;
pos = (234,688);
}
);
layerId = m013;
shapes = (
{
closed = 1;
nodes = (
(172,688,l),
(172,141,ls),
(172,78,o),
(147,66,o),
(4,66,c),
(4,-4,l),
(315,-4,o),
(402,29,o),
(402,148,cs),
(402,688,l)
);
}
);
width = 480;
},
{
anchors = (
{
name = bottom;
pos = (152,0);
},
{
name = top;
pos = (152,688);
}
);
layerId = m014;
shapes = (
{
closed = 1;
nodes = (
(137,688,l),
(137,141,ls),
(137,28,o),
(116,6,o),
(5,6,c),
(5,-4,l),
(172,-4,o),
(219,29,o),
(219,148,cs),
(219,688,l)
);
}
);
width = 319;
},
{
anchors = (
{
name = bottom;
pos = (142,0);
},
{
name = top;
pos = (142,688);
}
);
layerId = m015;
shapes = (
{
closed = 1;
nodes = (
(136,688,l),
(136,271,ls),
(136,191,o),
(115,176,o),
(4,176,c),
(4,-4,l),
(171,-4,o),
(218,57,o),
(218,278,cs),
(218,688,l)
);
}
);
width = 296;
},
{
anchors = (
{
name = bottom;
pos = (156,0);
},
{
name = top;
pos = (156,688);
}
);
layerId = m016;
shapes = (
{
closed = 1;
nodes = (
(137,688,l),
(137,141,ls),
(137,78,o),
(116,66,o),
(5,66,c),
(5,-4,l),
(172,-4,o),
(219,29,o),
(219,148,cs),
(219,688,l)
);
}
);
width = 319;
},
{
anchors = (
{
name = bottom;
pos = (151,0);
},
{
name = top;
pos = (151,688);
}
);
layerId = m017;
shapes = (
{
closed = 1;
nodes = (
(136,688,l),
(136,141,ls),
(136,78,o),
(115,66,o),
(4,66,c),
(4,-4,l),
(171,-4,o),
(218,29,o),
(218,148,cs),
(218,688,l)
);
}
);
width = 308;
},
{
anchors = (
{
name = bottom;
pos = (152,0);
},
{
name = top;
pos = (152,688);
}
);
layerId = m018;
shapes = (
{
closed = 1;
nodes = (
(137,688,l),
(137,141,ls),
(137,78,o),
(116,66,o),
(5,66,c),
(5,-4,l),
(172,-4,o),
(219,29,o),
(219,148,cs),
(219,688,l)
);
}
);
width = 319;
}
);
metricLeft = "=H*.05";
metricRight = "=H";
unicode = 74;
},
{
color = 4;
glyphname = K;
kernLeft = H;
kernRight = X;
layers = (
{
anchors = (
{
name = bottom;
pos = (332,0);
},
{
name = top;
pos = (332,688);
}
);
layerId = m009;
shapes = (
{
closed = 1;
nodes = (
(311,313,l),
(538,0,l),
(637,0,l),
(380,350,l),
(627,688,l),
(528,688,l),
(311,387,l),
(182,387,l),
(182,313,l)
);
},
{
closed = 1;
nodes = (
(182,0,l),
(182,688,l),
(100,688,l),
(100,0,l)
);
}
);
width = 647;
},
{
anchors = (
{
name = bottom;
pos = (258,0);
},
{
name = top;
pos = (258,688);
}
);
background = {
shapes = (
{
closed = 1;
nodes = (
(220,313,l),
(359,688,l),
(273,688,l),
(162,387,l),
(144,387,l),
(144,313,l)
);
},
{
closed = 1;
nodes = (
(144,0,l),
(144,688,l),
(62,688,l),
(62,0,l)
);
},
{
closed = 1;
nodes = (
(364,0,l),
(234,350,l),
(148,350,l),
(278,0,l)
);
}
);
};
layerId = m010;
shapes = (
{
closed = 1;
nodes = (
(162,313,l),
(275,0,l),
(364,0,l),
(230,350,l),
(358,688,l),
(269,688,l),
(162,387,l),
(132,387,l),
(132,313,l)
);
},
{
closed = 1;
nodes = (
(132,0,l),
(132,688,l),
(50,688,l),
(50,0,l)
);
}
);
width = 369;
},
{
anchors = (
{
name = bottom;
pos = (335.717,0);
},
{
name = top;
pos = (335.717,688);
}
);
background = {
shapes = (
{
closed = 1;
nodes = (
(466,313,l),
(773,688,l),
(669,688,l),
(423,387,l),
(182,387,l),
(182,313,l)
);
},
{
closed = 1;
nodes = (
(182,0,l),
(182,688,l),
(100,688,l),
(100,0,l)
);
},
{
closed = 1;
nodes = (
(783,0,l),
(496,350,l),
(392,350,l),
(679,0,l)
);
}
);
};
layerId = m011;
shapes = (
{
closed = 1;
nodes = (
(391,313,l),
(681,0,l),
(783,0,l),
(458,350,l),
(770,688,l),
(669,688,l),
(391,387,l),
(182,387,l),
(182,313,l)
);
},
{
closed = 1;
nodes = (
(182,0,l),
(182,688,l),
(100,688,l),
(100,0,l)
);
}
);
width = 793;
},
{
anchors = (
{
name = bottom;
pos = (202,0);
},
{
name = top;
pos = (202,688);
}
);
layerId = m012;
shapes = (
{
closed = 1;
nodes = (
(303,313,l),
(522,0,l),
(534,0,l),
(289,350,l),
(524,688,l),
(426,688,l),
(218,387,l),
(110,387,l),
(110,313,l)
);
},
{
closed = 1;
nodes = (
(110,0,l),
(110,688,l),
(100,688,l),
(100,0,l)
);
}
);
width = 544;
},
{
anchors = (
{
name = bottom;
pos = (275,0);
},
{
name = top;
pos = (275,688);
}
);
background = {
shapes = (
{
closed = 1;
nodes = (
(312,355,l),
(105,355,l),
(105,345,l),
(304,345,l)
);
}
);
};
layerId = m014;
shapes = (
{
closed = 1;
nodes = (
(233,345,l),
(477,0,l),
(575,0,l),
(328,350,l),
(573,688,l),
(561,688,l),
(319,355,l),
(182,355,l),
(182,345,l)
);
},
{
closed = 1;
nodes = (
(182,0,l),
(182,688,l),
(100,688,l),
(100,0,l)
);
}
);
width = 585;
},
{
anchors = (
{
name = bottom;
pos = (318,0);
},
{
name = top;
pos = (318,688);
}
);
background = {
shapes = (
{
closed = 1;
nodes = (
(361,255,l),
(681,688,l),
(434,688,l),
(258,445,l),
(138,445,l),
(138,255,l)
);
},
{
closed = 1;
nodes = (
(138,0,l),
(138,688,l),
(56,688,l),
(56,0,l)
);
},
{
closed = 1;
nodes = (
(691,0,l),
(431,350,l),
(336,350,l),
(591,0,l)
);
}
);
};
layerId = m015;
shapes = (
{
closed = 1;
nodes = (
(395,260,l),
(584,0,l),
(687,0,l),
(431,350,l),
(677,688,l),
(401,688,l),
(220,440,l),
(160,440,l),
(160,260,l)
);
},
{
closed = 1;
nodes = (
(160,0,l),
(160,688,l),
(78,688,l),
(78,0,l)
);
}
);
width = 695;
},
{
anchors = (
{
name = bottom;
pos = (372,0);
},
{
name = top;
pos = (372,688);
}
);
layerId = m016;
shapes = (
{
closed = 1;
nodes = (
(304,313,l),
(537,0,l),
(637,0,l),
(379,347,l),
(627,688,l),
(528,688,l),
(309,387,l),
(182,387,l),
(182,313,l)
);
},
{
closed = 1;
nodes = (
(182,0,l),
(182,688,l),
(100,688,l),
(100,0,l)
);
}
);
width = 647;
},
{
anchors = (
{
name = bottom;
pos = (421,0);
},
{
name = top;
pos = (421,688);
}
);
layerId = m017;
shapes = (
{
closed = 1;
nodes = (
(294,313,l),
(527,0,l),
(627,0,l),
(369,347,l),
(617,688,l),
(518,688,l),
(299,387,l),
(172,387,l),
(172,313,l)
);
},
{
closed = 1;
nodes = (
(172,0,l),
(172,688,l),
(90,688,l),
(90,0,l)
);
}
);
width = 636;
},
{
anchors = (
{
name = bottom;
pos = (718,0);
},
{
name = top;
pos = (718,688);
}
);
background = {
shapes = (
{
closed = 0;
nodes = (
(463,248,l),
(602,0,l),
(873,0,l),
(614,428,l)
);
}
);
};
layerId = m013;
name = "XOPQ-max";
shapes = (
{
closed = 1;
nodes = (
(368,313,l),
(596,0,l),
(872,0,l),
(617,350,l),
(862,688,l),
(759,688,l),
(543,387,l),
(308,387,l),
(308,313,l)
);
},
{
closed = 1;
nodes = (
(308,0,l),
(308,688,l),
(78,688,l),
(78,0,l)
);
}
);
width = 880;
},
{
anchors = (
{
name = bottom;
pos = (332,0);
},
{
name = top;
pos = (332,688);
}
);
layerId = m018;
shapes = (
{
closed = 1;
nodes = (
(311,313,l),
(538,0,l),
(637,0,l),
(380,350,l),
(627,688,l),
(528,688,l),
(311,387,l),
(182,387,l),
(182,313,l)
);
},
{
closed = 1;
nodes = (
(182,0,l),
(182,688,l),
(100,688,l),
(100,0,l)
);
}
);
width = 647;
}
);
metricLeft = H;
metricRight = "=|*.1";
unicode = 75;
userData = {
com.typespan.data.v1 = {
masters = {
m009 = {
track_data = {
"2026-04-21" = {
"14" = 14.41479;
};
};
};
m012 = {
track_data = {
"2026-04-21" = {
"14" = 13.53889;
};
};
};
m013 = {
track_data = {
"2026-04-21" = {
"14" = 12.61639;
};
};
};
m014 = {
track_data = {
"2026-04-21" = {
"14" = 15.45733;
};
};
};
m015 = {
track_data = {
"2026-04-21" = {
"14" = 6.44743;
};
};
};
};
};
};
},
{
color = 4;
glyphname = L;
kernLeft = H;
kernRight = E;
layers = (
{
anchors = (
{
name = bottom;
pos = (272,0);
},
{
name = center;
pos = (272,344);
},
{
name = top;
pos = (272,688);
},
{
name = topright;
pos = (523,688);
}
);
layerId = m009;
shapes = (
{
closed = 1;
nodes = (
(523,0,l),
(523,74,l),
(145,74,l),
(182,37,l),
(182,688,l),
(100,688,l),
(100,0,l)
);
}
);
width = 543;
},
{
anchors = (
{
name = bottom;
pos = (151,0);
},
{
name = center;
pos = (151,344);
},
{
name = top;
pos = (151,688);
},
{
name = topright;
pos = (272,688);
}
);
layerId = m010;
shapes = (
{
closed = 1;
nodes = (
(284,0,l),
(284,74,l),
(95,74,l),
(132,37,l),
(132,688,l),
(50,688,l),
(50,0,l)
);
}
);
width = 294;
},
{
anchors = (
{
name = bottom;
pos = (358,0);
},
{
name = center;
pos = (358,344);
},
{
name = top;
pos = (358,688);
},
{
name = topright;
pos = (680,688);
}
);
layerId = m011;
shapes = (
{
closed = 1;
nodes = (
(683,0,l),
(683,74,l),
(145,74,l),
(182,35,l),
(182,688,l),
(100,688,l),
(100,0,l)
);
}
);
width = 703;
},
{
anchors = (
{
name = bottom;
pos = (227,0);
},
{
name = center;
pos = (227,344);
},
{
name = top;
pos = (227,688);
},
{
name = topright;
pos = (434,688);
}
);
layerId = m012;
shapes = (
{
closed = 1;
nodes = (
(434,0,l),
(434,74,l),
(105,74,l),
(110,37,l),
(110,688,l),
(100,688,l),
(100,0,l)
);
}
);
width = 454;
},
{
anchors = (
{
name = bottom;
pos = (338,0);
},
{
name = center;
pos = (338,344);
},
{
name = top;
pos = (338,688);
},
{
name = topright;
pos = (656,688);
}
);
layerId = m013;
shapes = (
{
closed = 1;
nodes = (
(660,0,l),
(660,74,l),
(231,74,l),
(308,37,l),
(308,688,l),
(78,688,l),
(78,0,l)
);
}
);
width = 676;
},
{
anchors = (
{
name = bottom;
pos = (263,0);
},
{
name = center;
pos = (263,344);
},
{
name = top;
pos = (263,688);
},
{
name = topright;
pos = (506,688);
}
);
layerId = m014;
shapes = (
{
closed = 1;
nodes = (
(506,0,l),
(506,10,l),
(145,10,l),
(182,5,l),
(182,688,l),
(100,688,l),
(100,0,l)
);
}
);
width = 526;
},
{
anchors = (
{
name = bottom;
pos = (264,0);
},
{
name = center;
pos = (264,344);
},
{
name = top;
pos = (264,688);
},
{
name = topright;
pos = (508,688);
}
);
layerId = m015;
shapes = (
{
closed = 1;
nodes = (
(512,0,l),
(512,180,l),
(123,180,l),
(160,100,l),
(160,688,l),
(78,688,l),
(78,0,l)
);
}
);
width = 528;
},
{
anchors = (
{
name = bottom;
pos = (284,0);
},
{
name = center;
pos = (284,344);
},
{
name = top;
pos = (284,688);
},
{
name = topright;
pos = (557,688);
}
);
layerId = m016;
shapes = (
{
closed = 1;
nodes = (
(555,0,l),
(555,84,l),
(153,84,l),
(196,41,l),
(196,688,l),
(100,688,l),
(100,0,l)
);
}
);
width = 575;
},
{
anchors = (
{
name = bottom;
pos = (262,0);
},
{
name = center;
pos = (262,344);
},
{
name = top;
pos = (262,688);
},
{
name = topright;
pos = (513,688);
}
);
layerId = m017;
shapes = (
{
closed = 1;
nodes = (
(513,0,l),
(513,74,l),
(135,74,l),
(172,37,l),
(172,688,l),
(90,688,l),
(90,0,l)
);
}
);
width = 531;
},
{
anchors = (
{
name = bottom;
pos = (272,0);
},
{
name = center;
pos = (272,344);
},
{
name = top;
pos = (272,688);
},
{
name = topright;
pos = (523,688);
}
);
layerId = m018;
shapes = (
{
closed = 1;
nodes = (
(523,0,l),
(523,74,l),
(145,74,l),
(182,37,l),
(182,688,l),
(100,688,l),
(100,0,l)
);
}
);
width = 543;
}
);
metricLeft = H;
metricRight = "=|*.2";
unicode = 76;
},
{
color = 4;
glyphname = M;
kernLeft = A;
kernRight = A;
layers = (
{
layerId = m009;
shapes = (
{
closed = 1;
nodes = (
(182,0,l),
(182,585,l),
(186,585,l),
(361,0,l),
(457,0,l),
(631,585,l),
(635,585,l),
(635,0,l),
(717,0,l),
(717,688,l),
(581,688,l),
(409,105,l),
(237,688,l),
(100,688,l),
(100,0,l)
);
}
);
width = 817;
},
{
layerId = m010;
shapes = (
{
closed = 1;
nodes = (
(133,0,l),
(133,585,l),
(137,585,l),
(180,0,l),
(274,0,l),
(317,585,l),
(321,585,l),
(321,0,l),
(404,0,l),
(404,688,l),
(262,688,l),
(227,133,l),
(192,688,l),
(50,688,l),
(50,0,l)
);
}
);
width = 454;
},
{
layerId = m011;
shapes = (
{
closed = 1;
nodes = (
(182,0,l),
(182,580,l),
(186,580,l),
(388,0,l),
(496,0,l),
(698,580,l),
(702,580,l),
(702,0,l),
(784,0,l),
(784,688,l),
(656,688,l),
(442,75,l),
(228,688,l),
(100,688,l),
(100,0,l)
);
}
);
width = 884;
},
{
layerId = m012;
shapes = (
{
closed = 1;
nodes = (
(182,0,l),
(182,625,l),
(187,625,l),
(372,0,l),
(427,0,l),
(599,625,l),
(604,625,l),
(604,0,l),
(614,0,l),
(614,688,l),
(536,688,l),
(364,61,l),
(179,688,l),
(100,688,l),
(100,0,l)
);
}
);
width = 714;
},
{
layerId = m013;
shapes = (
{
closed = 1;
nodes = (
(160,0,l),
(160,461,l),
(164,461,l),
(294,0,l),
(426,0,l),
(556,461,l),
(560,461,l),
(560,0,l),
(790,0,l),
(790,688,l),
(547,688,l),
(429,258,l),
(312,688,l),
(78,688,l),
(78,0,l)
);
}
);
width = 868;
},
{
layerId = m014;
shapes = (
{
closed = 1;
nodes = (
(110,0,l),
(110,625,l),
(115,625,l),
(287,0,l),
(342,0,l),
(527,625,l),
(532,625,l),
(532,0,l),
(614,0,l),
(614,688,l),
(535,688,l),
(350,61,l),
(178,688,l),
(100,688,l),
(100,0,l)
);
}
);
width = 714;
},
{
background = {
shapes = (
{
closed = 1;
nodes = (
(341,0,l),
(452,509,l),
(569,0,l),
(809,0,l),
(960,688,l),
(739,688,l),
(621,128,l),
(617,128,l),
(488,688,l),
(271,688,l),
(153,128,l),
(149,128,l),
(20,688,l),
(-57,688,l),
(101,0,l)
);
}
);
};
layerId = m015;
shapes = (
{
closed = 1;
nodes = (
(308,0,l),
(308,461,l),
(312,461,l),
(442,0,l),
(574,0,l),
(704,461,l),
(708,461,l),
(708,0,l),
(790,0,l),
(790,688,l),
(556,688,l),
(439,258,l),
(321,688,l),
(78,688,l),
(78,0,l)
);
}
);
width = 868;
},
{
layerId = m016;
shapes = (
{
closed = 1;
nodes = (
(182,0,l),
(182,585,l),
(186,585,l),
(361,0,l),
(457,0,l),
(631,585,l),
(635,585,l),
(635,0,l),
(717,0,l),
(717,688,l),
(581,688,l),
(409,105,l),
(237,688,l),
(100,688,l),
(100,0,l)
);
}
);
width = 817;
},
{
layerId = m017;
shapes = (
{
closed = 1;
nodes = (
(172,0,l),
(172,585,l),
(176,585,l),
(351,0,l),
(447,0,l),
(621,585,l),
(625,585,l),
(625,0,l),
(707,0,l),
(707,688,l),
(571,688,l),
(399,105,l),
(227,688,l),
(90,688,l),
(90,0,l)
);
}
);
width = 797;
},
{
layerId = m018;
shapes = (
{
closed = 1;
nodes = (
(184,0,l),
(184,580,l),
(188,580,l),
(456,0,l),
(529,0,l),
(796,580,l),
(800,580,l),
(800,0,l),
(884,0,l),
(883,688,l),
(763,688,l),
(492,95,l),
(220,688,l),
(100,688,l),
(100,0,l)
);
}
);
width = 984;
}
);
metricLeft = H;
metricRight = "=|";
unicode = 77;
userData = {
com.typespan.data.v1 = {
masters = {
"012BA043-702D-495A-8F59-5B92BD9EF877" = {
track_data = {
"2026-04-21" = {
"21" = 0.55047;
};
};
};
"01D6653B-8400-4FD7-AFA0-145425155DB8" = {
track_data = {
"2026-04-21" = {
"21" = 0.04996;
};
};
};
"01FE7FD4-FB4D-494C-B865-C9618DBB85E0" = {
track_data = {
"2026-04-21" = {
"21" = 0.03407;
};
};
};
"027E756A-8C9A-4AB3-A2DE-6E6D301AC9A1" = {
track_data = {
"2026-04-21" = {
"21" = 0.31754;
};
};
};
"099D79F7-CA7D-4912-9D95-CA748F9A9BC2" = {
track_data = {
"2026-04-21" = {
"21" = 0.01645;
};
};
};
"09DCC71A-ADB4-45C4-AC60-CB50C77D7E32" = {
track_data = {
"2026-04-21" = {
"21" = 0.11487;
};
};
};
"11C70CAF-772B-49B5-8B17-595177B84692" = {
track_data = {
"2026-04-21" = {
"21" = 0.1337;
};
};
};
"1B6C3D3F-AC6F-43BF-AA05-2B19D8DE3EB4" = {
track_data = {
"2026-04-21" = {
"21" = 0.08246;
};
};
};
"1CBF3786-0AA2-4597-8440-5EFD0C3ECC3D" = {
track_data = {
"2026-04-21" = {
"21" = 0.11639;
};
};
};
"1DEE16B4-FC66-4C4C-9B4B-2C0183C24481" = {
track_data = {
"2026-04-21" = {
"21" = 0.13346;
};
};
};
"21DD4F4C-B5DE-4292-B958-282D35485658" = {
track_data = {
"2026-04-21" = {
"21" = 0.41258;
};
};
};
"223D7E8E-DC2F-4D52-98CE-B0E86C77EC53" = {
track_data = {
"2026-04-21" = {
"21" = 0.11647;
};
};
};
"2A1A5069-6365-4376-B29A-7C9FBBFE18E7" = {
track_data = {
"2026-04-21" = {
"21" = 0.47152;
};
};
};
"2B29617D-1298-4ED2-B1B4-7A0E7FAF4CDA" = {
track_data = {
"2026-04-21" = {
"21" = 0.11379;
};
};
};
"2BF7284D-0FF1-449B-895A-41F55359E923" = {
track_data = {
"2026-04-21" = {
"21" = 0.1173;
};
};
};
"33574681-E013-42D2-AD0C-E384E956F6E2" = {
track_data = {
"2026-04-21" = {
"21" = 0.09887;
};
};
};
"39853AF5-2BE7-4363-872C-B3007E9544BA" = {
track_data = {
};
};
"39EE723B-EE2E-476A-BB6A-3BD0C5B07645" = {
track_data = {
"2026-04-21" = {
"21" = 0.01695;
};
};
};
"3AA76B79-C480-4E77-B3B7-CB8EF1AD74B1" = {
track_data = {
"2026-04-21" = {
"21" = 0.11661;
};
};
};
"3DCA8F09-8D7E-459C-BF81-E3BC93FB50C2" = {
track_data = {
"2026-04-21" = {
"21" = 0.08619;
};
};
};
"3EAE91A0-F418-4613-B0B9-5FB2D0765A19" = {
track_data = {
"2026-04-21" = {
"21" = 0.11765;
};
};
};
"3F09F7BB-0CDE-49F0-BBD6-554D2D6761A1" = {
track_data = {
"2026-04-22" = {
"15" = 5.14073;
};
};
};
"3F406764-EDB7-4275-9C48-57A03F956460" = {
track_data = {
"2026-04-21" = {
"21" = 0.43611;
};
};
};
"4250E827-3B6B-4CCE-92A5-CD42B0B54699" = {
track_data = {
"2026-04-21" = {
"21" = 0.11654;
};
};
};
"425D7807-CFB5-4251-ADBD-D220EC706AF6" = {
track_data = {
"2026-04-21" = {
"21" = 0.09929;
};
};
};
"45BA3BD7-5489-4EAC-BEB9-E68305983974" = {
track_data = {
"2026-04-21" = {
"21" = 0.11658;
};
};
};
"47945C83-DF11-44DA-A18B-BCDCAED937A2" = {
track_data = {
"2026-04-21" = {
"21" = 0.01638;
};
};
};
"47AFBA12-B401-47CD-891D-6D345CF19C6E" = {
track_data = {
"2026-04-21" = {
"21" = 0.45448;
};
};
};
"488EC664-F0EE-4E9B-BA11-95ECDD2728ED" = {
track_data = {
"2026-04-21" = {
"21" = 0.08381;
};
};
};
"4934A496-5E40-49BA-92C5-E6C1FD2492D5" = {
track_data = {
"2026-04-21" = {
"21" = 0.301;
};
};
};
"4B29BC5C-5C77-4C1E-9266-2050560F4783" = {
track_data = {
"2026-04-21" = {
"21" = 0.11659;
};
};
};
"4C604F4B-21B0-4D5F-8734-1F714CDDE183" = {
track_data = {
"2026-04-21" = {
"21" = 0.03078;
};
};
};
"53BC680A-FB44-4FA4-A7DA-B28F48A71165" = {
track_data = {
"2026-04-21" = {
"21" = 0.15261;
};
};
};
"543E4FD3-CA18-4759-9999-0D5E6AD84C62" = {
track_data = {
"2026-04-21" = {
"21" = 0.28378;
};
};
};
"5929ED90-B37B-4234-AF18-A69BFE54514B" = {
track_data = {
"2026-04-21" = {
"21" = 0.35311;
};
};
};
"5A1C49AE-7D3B-4525-B8CC-8D41C2233BEA" = {
track_data = {
"2026-04-21" = {
"21" = 0.02648;
};
};
};
"606F372C-207C-415A-A8B8-D7C84B2B6BC9" = {
track_data = {
"2026-04-21" = {
"21" = 0.87765;
};
};
};
"60F05A1F-F60B-4AD6-ADA7-6315E4B417B9" = {
track_data = {
"2026-04-21" = {
"21" = 0.10022;
};
};
};
"62FB0758-C049-4E6A-BEF2-27EEB37BCFD7" = {
track_data = {
"2026-04-21" = {
"21" = 0.08392;
};
};
};
"65D2980F-DA79-407F-87EB-F8659F6AC61B" = {
track_data = {
"2026-04-21" = {
"21" = 0.28795;
};
};
};
"66F47844-853C-4C07-A533-C43F9D967ED3" = {
track_data = {
"2026-04-22" = {
"15" = 20.67765;
};
};
};
"6702BF57-F173-49B9-90BB-43A0B4E57A84" = {
track_data = {
"2026-04-21" = {
"21" = 0.1172;
};
};
};
"6850C09F-9013-4AD5-BE40-004CFB9641B4" = {
track_data = {
"2026-04-21" = {
"21" = 0.55004;
};
};
};
"6A319616-9B1D-418E-BF65-592DF0C255E3" = {
track_data = {
"2026-04-21" = {
"21" = 0.11323;
};
};
};
"703EEF78-E13D-441C-8BA3-2BC07FBAFD37" = {
track_data = {
"2026-04-21" = {
"21" = 0.03331;
};
};
};
"73593169-9BB5-4C24-802B-0B6ECBD1381E" = {
track_data = {
"2026-04-21" = {
"21" = 0.25095;
};
};
};
"758A93BA-8633-48CA-93EA-0E72DE1B8F85" = {
track_data = {
"2026-04-21" = {
"21" = 0.41667;
};
};
};
"75960EAE-3A4E-4FC2-BEED-F26B646632C4" = {
track_data = {
};
};
"77641502-1765-4510-9102-0AFDA1CBE2B8" = {
track_data = {
"2026-04-21" = {
"21" = 0.21465;
};
};
};
"789B44BE-2996-4643-9AD8-C4F3BDA48A51" = {
track_data = {
"2026-04-21" = {
"21" = 0.11635;
};
};
};
"78F03773-9286-406A-9BCB-7CF1CB9BE67C" = {
track_data = {
"2026-04-21" = {
"21" = 0.78761;
};
};
};
"79B5A596-8B8B-44A8-A4F3-34BD60A8CBB5" = {
track_data = {
"2026-04-21" = {
"21" = 0.48448;
};
};
};
"7DB6A66A-9AD1-45BC-B461-54A9F49FAADF" = {
track_data = {
"2026-04-21" = {
"21" = 0.09065;
};
};
};
"80DDC7E2-85C9-490B-937F-591396DAB479" = {
track_data = {
"2026-04-21" = {
"21" = 0.55401;
};
};
};
"81682F13-423A-45A6-9AD5-1EB68289CF5F" = {
track_data = {
"2026-04-21" = {
"21" = 0.11478;
};
};
};
"844D6BB3-747A-4C6A-9D93-8A8BD27A74CF" = {
track_data = {
"2026-04-21" = {
"21" = 0.11679;
};
};
};
"8578F7F6-A9CF-4E03-A69C-0C8FC15BC1E4" = {
track_data = {
"2026-04-21" = {
"21" = 0.21922;
};
};
};
"86B66FD5-BC22-4D2E-A9C4-7F2F8A721A4D" = {
track_data = {
};
};
"8C5425AC-9F82-444D-8B68-CC2271BCBEA5" = {
track_data = {
"2026-04-21" = {
"21" = 0.11696;
};
};
};
"8E4EA137-DAF4-44EA-9E76-FA892554C169" = {
track_data = {
"2026-04-21" = {
"21" = 0.11446;
};
};
};
"8F014373-A270-4CB6-8406-BE4B052A6ED8" = {
track_data = {
"2026-04-21" = {
"21" = 0.12299;
};
};
};
"90188A6F-3C71-4857-93E2-47FA51EBAC15" = {
track_data = {
"2026-04-21" = {
"21" = 0.11669;
};
};
};
"935C9D1E-1192-43E2-B56F-380F583DAA20" = {
track_data = {
"2026-04-21" = {
"21" = 0.09907;
};
};
};
"94A85A35-1124-47BC-AF46-9787F1ADE7D1" = {
track_data = {
"2026-04-21" = {
"21" = 0.79958;
};
};
};
"963698E6-36FC-4667-9E34-47B3C811FADD" = {
track_data = {
"2026-04-21" = {
"21" = 0.11739;
};
};
};
"975AD37C-BB1E-4FA7-B1F2-60A94952CA22" = {
track_data = {
"2026-04-21" = {
"21" = 0.48623;
};
};
};
"984CD4CD-8C2E-41E1-A4B9-43BF0BBAE28E" = {
track_data = {
"2026-04-21" = {
"21" = 0.33067;
};
};
};
"9860F239-244E-4D3B-9A03-3D05A35DB288" = {
track_data = {
"2026-04-21" = {
"21" = 0.01721;
};
};
};
"988129DA-4BFE-4D75-A458-C1722C8D7A32" = {
track_data = {
"2026-04-21" = {
"21" = 0.09936;
};
};
};
"9A5B2FFC-B37C-44F6-859A-349EB5EBEBFB" = {
track_data = {
"2026-04-21" = {
"21" = 0.06618;
};
};
};
"9A61E395-C410-4A73-8076-D6734F9A6F51" = {
track_data = {
"2026-04-21" = {
"21" = 0.01753;
};
};
};
"9B85E4ED-22D9-4D29-A6A7-14188FA61200" = {
track_data = {
"2026-04-21" = {
"21" = 0.04711;
};
};
};
"9E44692E-7085-4B8E-9518-347EBB79DC0F" = {
track_data = {
"2026-04-21" = {
"21" = 0.11745;
};
};
};
"9F30F831-1491-411F-9598-251D526EA195" = {
track_data = {
"2026-04-21" = {
"21" = 0.28442;
};
};
};
"A0D8A7D8-C2A9-4BAB-9149-E079CF5AA286" = {
track_data = {
"2026-04-21" = {
"21" = 0.0845;
};
};
};
"A1EF3DF8-8165-42FC-BD58-98C4A247BFAD" = {
track_data = {
"2026-04-21" = {
"21" = 0.1171;
};
};
};
"A1F8016F-D18C-4930-8022-6FB7FA244083" = {
track_data = {
"2026-04-21" = {
"21" = 0.4183;
};
};
};
"A20E0CC4-3241-4C87-830B-A0A152CD1EA0" = {
track_data = {
"2026-04-21" = {
"21" = 0.09975;
};
};
};
"A37B4B12-3148-4ACC-B776-BC94483B91E5" = {
track_data = {
"2026-04-21" = {
"21" = 0.11655;
};
};
};
"A425377E-5420-4E26-A9DB-15BF863ACA0A" = {
track_data = {
"2026-04-21" = {
"21" = 0.10177;
};
};
};
"A709BB90-8F59-4130-A314-7FC650FD4274" = {
track_data = {
"2026-04-21" = {
"21" = 0.42932;
};
};
};
"A7E4855F-BD29-4211-8DB1-805134D9834C" = {
track_data = {
"2026-04-21" = {
"21" = 0.10046;
};
};
};
"A83A129C-8389-41CF-A598-2FDD70EF2392" = {
track_data = {
"2026-04-21" = {
"21" = 0.9152;
};
};
};
"AB9EFA2D-EFD5-4857-99CB-F171256FCC6D" = {
track_data = {
"2026-04-21" = {
"21" = 0.17969;
};
};
};
"ACC77C13-39D1-43BC-BFAD-39FF3ACAC63E" = {
track_data = {
"2026-04-21" = {
"21" = 0.23859;
};
};
};
"ACD46AA7-7410-41E1-90D2-D8CC1962385E" = {
track_data = {
"2026-04-21" = {
"21" = 0.39961;
};
};
};
"B0B57F5B-AB1E-4CC1-90F8-836A5C7F4698" = {
track_data = {
"2026-04-21" = {
"21" = 0.11634;
};
};
};
"B56D5719-BA9A-4062-9E9E-FE7728665B5C" = {
track_data = {
"2026-04-21" = {
"21" = 0.11611;
};
};
};
"B710092D-D3C7-4565-B28F-041187E3B77C" = {
track_data = {
"2026-04-21" = {
"21" = 0.63764;
};
};
};
"B8E9D561-A7B4-4F46-BA05-301D11ED63CD" = {
track_data = {
"2026-04-21" = {
"21" = 0.51519;
};
};
};
"B977B789-BA7F-4395-A6A2-21D18718DE7F" = {
track_data = {
"2026-04-21" = {
"21" = 0.1165;
};
};
};
"BBFB3176-1346-4600-BB4F-A36E314F67D6" = {
track_data = {
"2026-04-21" = {
"21" = 0.15477;
};
};
};
"BC674F57-EBDC-471E-9307-F4B9E1E33033" = {
track_data = {
"2026-04-21" = {
"21" = 0.11688;
};
};
};
"BDEFCD3E-CE59-4899-AF3D-4DE90992F470" = {
track_data = {
"2026-04-21" = {
"21" = 0.07104;
};
};
};
"BFA47CC9-0743-4144-B240-46AB70362066" = {
track_data = {
"2026-04-21" = {
"21" = 0.11657;
};
};
};
"C031210D-FB50-4CD5-B33A-284346C42CE6" = {
track_data = {
"2026-04-21" = {
"21" = 0.11597;
};
};
};
"C9302F9C-3ECB-4A80-83DF-7EA85523D884" = {
track_data = {
"2026-04-21" = {
"21" = 0.1167;
};
};
};
"C93E59B5-7662-4BFC-9939-B51AACA846CC" = {
track_data = {
};
};
"CDC9F3FD-FC0C-4E47-8313-BDA6F2092AC5" = {
track_data = {
"2026-04-21" = {
"21" = 0.26635;
};
};
};
"CEF6BC50-4A9B-488D-80D1-8C28FF0010F2" = {
track_data = {
};
};
"D0258893-504E-44D2-A6A3-4D84243F21BB" = {
track_data = {
"2026-04-21" = {
"21" = 0.11538;
};
};
};
"D178D739-314B-48D9-84E1-C02E7A4D735B" = {
track_data = {
"2026-04-21" = {
"21" = 0.11654;
};
};
};
"D1AAB19A-5FF2-4E8C-9ED0-A710D9EF4D06" = {
track_data = {
"2026-04-21" = {
"21" = 0.49554;
};
};
};
"D27A112A-176A-4D14-9D8C-1E71CC76C65D" = {
track_data = {
"2026-04-21" = {
"21" = 0.70073;
};
};
};
"D62D98CA-08C7-4044-A368-BD76CC5E4872" = {
track_data = {
"2026-04-22" = {
"15" = 29.77588;
};
};
};
"DA1AE983-6944-458D-9802-A424E26124B2" = {
track_data = {
"2026-04-21" = {
"21" = 0.09275;
};
};
};
"DEA5E9A0-4BA5-4CD8-8D05-8914CD9E5F78" = {
track_data = {
"2026-04-21" = {
"21" = 0.18194;
};
};
};
"DF62876F-CDC4-4BF2-8187-00039005691C" = {
track_data = {
"2026-04-21" = {
"21" = 0.04717;
};
};
};
"E10DF811-EC88-481F-A048-59A9D33AEB8C" = {
track_data = {
"2026-04-21" = {
"21" = 0.26865;
};
};
};
"E21B6F3A-BC69-4502-9CC1-4B05A2F0B8B2" = {
track_data = {
"2026-04-21" = {
"21" = 0.1137;
};
};
};
"E3C3E628-1021-4996-9F55-AC7788E6E066" = {
track_data = {
"2026-04-21" = {
"21" = 0.14657;
};
};
};
"EA92342C-EFDF-422B-921A-73771BFA9885" = {
track_data = {
"2026-04-21" = {
"21" = 0.11718;
};
};
};
"EB78D1E5-8AC2-403C-9650-63422763717D" = {
track_data = {
};
};
"EEC59CFE-B82E-40DD-9A7E-AAEE9C12374C" = {
track_data = {
"2026-04-21" = {
"21" = 0.78151;
};
};
};
"EF16B5B7-11BC-41BF-AE72-D3FEE389EC6B" = {
track_data = {
"2026-04-21" = {
"21" = 0.04318;
};
};
};
"F2625EF9-1E7C-4400-82AC-1C65A5EEE1DE" = {
track_data = {
"2026-04-21" = {
"21" = 0.11751;
};
};
};
"F262F647-2DD9-403A-BABC-E2C7E6F68958" = {
track_data = {
"2026-04-21" = {
"21" = 0.34282;
};
};
};
"F2D60C1C-1C51-4FCD-B322-7B99438E3517" = {
track_data = {
"2026-04-21" = {
"21" = 0.63371;
};
};
};
"F31AD237-0440-4B76-A0A4-0B2DA0EC66F5" = {
track_data = {
"2026-04-21" = {
"21" = 0.28374;
};
};
};
"F4267F91-B47E-4FD4-9A7B-C631E5DA6D01" = {
track_data = {
"2026-04-21" = {
"21" = 0.58335;
};
};
};
"F46E84A9-AB2B-4392-ADDE-77B4B0A5E18A" = {
track_data = {
"2026-04-21" = {
"21" = 0.40094;
};
};
};
"F86B4493-C639-4F11-8028-C70A35C7FFEE" = {
track_data = {
"2026-04-21" = {
"21" = 0.11371;
};
};
};
"FD4DD227-C674-4150-8A3E-C0F86F5EE7A9" = {
track_data = {
"2026-04-21" = {
"21" = 0.12057;
};
};
};
"FE2C1D16-473A-4144-AC25-825465668782" = {
track_data = {
"2026-04-21" = {
"21" = 0.11889;
};
};
};
"FEF6D5A7-0C55-4456-B29E-265C2706ACC4" = {
track_data = {
"2026-04-21" = {
"21" = 0.12237;
};
};
};
m009 = {
track_data = {
"2026-04-21" = {
"08" = 134.68023;
"10" = 41.6159;
"12" = 107.15738;
"13" = 423.14157;
"14" = 194.7181;
"15" = 94.32215;
"16" = 45.19361;
"18" = 180.39536;
"19" = 31.83897;
};
"2026-04-22" = {
"11" = 26.52386;
"15" = 135.81511;
"16" = 8.31822;
"17" = 2.54615;
};
"2026-04-23" = {
"08" = 2.35957;
"11" = 58.11418;
"14" = 55.66242;
"17" = 41.97494;
"18" = 78.86608;
"19" = 227.47449;
};
};
};
m010 = {
track_data = {
"2026-04-20" = {
"18" = 1.1806;
};
"2026-04-21" = {
"08" = 35.86864;
"10" = 97.93447;
"12" = 181.17941;
"13" = 132.17921;
"15" = 168.70656;
"16" = 155.66586;
"21" = 7.5075;
};
"2026-04-22" = {
"07" = 6.55877;
"11" = 51.32782;
};
"2026-04-23" = {
"09" = 7.60683;
"11" = 56.33939;
"14" = 10.56168;
"17" = 53.12179;
"18" = 38.52588;
"19" = 195.2674;
};
"2026-04-27" = {
"11" = 4.05112;
};
};
};
m011 = {
track_data = {
"2026-04-20" = {
"18" = 3.82661;
};
"2026-04-21" = {
"08" = 4.96256;
"10" = 64.79563;
"12" = 23.98712;
"13" = 340.98723;
"16" = 126.56537;
};
"2026-04-22" = {
"15" = 13.06275;
};
"2026-04-23" = {
"11" = 24.79136;
"14" = 33.01024;
"17" = 36.95729;
"18" = 13.72298;
"19" = 140.27547;
};
};
};
m012 = {
track_data = {
"2026-04-20" = {
"18" = 0.76286;
};
"2026-04-21" = {
"08" = 10.09629;
"10" = 383.47176;
"12" = 199.31357;
"13" = 18.21052;
"15" = 45.5541;
"16" = 19.39089;
};
"2026-04-22" = {
"15" = 2.01596;
};
"2026-04-23" = {
"14" = 17.71347;
"17" = 402.89141;
"18" = 168.33355;
"19" = 271.87302;
};
};
};
m013 = {
track_data = {
"2026-04-21" = {
"08" = 4.41755;
"10" = 129.16172;
"12" = 231.17894;
"13" = 65.59363;
"15" = 13.12008;
"16" = 57.65192;
"18" = 30.40884;
"19" = 116.83414;
};
"2026-04-22" = {
"15" = 2.72001;
};
"2026-04-23" = {
"09" = 18.64024;
"11" = 35.37864;
"14" = 22.63293;
"17" = 148.87341;
"18" = 108.73964;
"19" = 316.33499;
};
"2026-04-24" = {
"15" = 1.40293;
};
};
};
m014 = {
track_data = {
"2026-04-21" = {
"08" = 3.69071;
"10" = 225.89143;
"11" = 14.90885;
"12" = 324.77446;
"13" = 11.69184;
"15" = 30.0873;
"16" = 7.90437;
};
"2026-04-22" = {
"15" = 3.65623;
};
"2026-04-23" = {
"17" = 92.87799;
"18" = 53.00166;
"19" = 97.74516;
};
};
};
m015 = {
track_data = {
"2026-04-21" = {
"08" = 4.53593;
"10" = 13.72773;
"11" = 1.17377;
"12" = 457.03882;
"13" = 17.254;
"16" = 11.03649;
};
"2026-04-22" = {
"15" = 5.81879;
};
"2026-04-23" = {
"09" = 32.98689;
"11" = 13.03831;
"14" = 32.23498;
"17" = 22.04408;
"18" = 10.81784;
"19" = 91.86638;
};
};
};
m016 = {
track_data = {
"2026-04-20" = {
"18" = 2.69611;
};
"2026-04-21" = {
"13" = 9.49074;
};
"2026-04-22" = {
"15" = 7.25084;
};
"2026-04-23" = {
"14" = 10.6369;
"17" = 0.10133;
"18" = 3.7683;
"19" = 20.07697;
};
};
};
m017 = {
track_data = {
"2026-04-22" = {
"15" = 4.93435;
"16" = 5.16315;
};
"2026-04-23" = {
"14" = 8.4993;
"17" = 1.96595;
"18" = 4.83911;
"19" = 22.83157;
};
};
};
m018 = {
track_data = {
"2026-04-20" = {
"18" = 276.23742;
"19" = 17.02676;
};
"2026-04-22" = {
"15" = 37.86972;
"16" = 158.59835;
"17" = 91.11839;
};
"2026-04-23" = {
"08" = 59.87272;
"09" = 40.95402;
"10" = 2.66999;
"11" = 83.82166;
"14" = 118.61386;
"17" = 64.73876;
"18" = 57.99217;
"19" = 119.596;
};
};
};
m019 = {
track_data = {
"2026-04-22" = {
"15" = 11.93119;
};
};
};
};
};
};
},
{
color = 4;
glyphname = N;
kernLeft = H;
kernRight = H;
layers = (
{
anchors = (
{
name = bottom;
pos = (380,0);
},
{
name = top;
pos = (380,688);
}
);
layerId = m016;
shapes = (
{
closed = 1;
nodes = (
(196,0,l),
(196,523,l),
(200,523,l),
(568,0,l),
(660,0,l),
(660,688,l),
(564,688,l),
(564,165,l),
(560,165,l),
(191,688,l),
(100,688,l),
(100,0,l)
);
}
);
width = 760;
},
{
anchors = (
{
name = bottom;
pos = (357,0);
},
{
name = top;
pos = (357,688);
}
);
background = {
shapes = (
{
closed = 1;
nodes = (
(182,0,l),
(182,588,l),
(186,588,l),
(583,0,l),
(614,0,l),
(614,688,l),
(532,688,l),
(532,100,l),
(528,100,l),
(131,688,l),
(100,688,l),
(100,0,l)
);
}
);
};
layerId = m012;
shapes = (
{
closed = 1;
nodes = (
(182,0,l),
(182,598,l),
(186,598,l),
(575,0,l),
(614,0,l),
(614,688,l),
(532,688,l),
(532,90,l),
(528,90,l),
(139,688,l),
(100,688,l),
(100,0,l)
);
}
);
width = 714;
},
{
anchors = (
{
name = bottom;
pos = (419,0);
},
{
name = top;
pos = (419,688);
}
);
layerId = m011;
shapes = (
{
closed = 1;
nodes = (
(182,0,l),
(182,558,l),
(186,558,l),
(649,0,l),
(738,0,l),
(738,688,l),
(656,688,l),
(656,130,l),
(652,130,l),
(189,688,l),
(100,688,l),
(100,0,l)
);
}
);
width = 838;
},
{
anchors = (
{
name = bottom;
pos = (213,0);
},
{
name = top;
pos = (213,688);
}
);
background = {
shapes = (
{
closed = 1;
nodes = (
(38,0,l),
(38,561,l),
(42,561,l),
(367,0,l),
(398,0,l),
(398,688,l),
(388,688,l),
(388,127,l),
(384,127,l),
(59,688,l),
(28,688,l),
(28,0,l)
);
}
);
};
layerId = m014;
shapes = (
{
closed = 1;
nodes = (
(110,0,l),
(110,598,l),
(114,598,l),
(417,0,l),
(470,0,l),
(470,688,l),
(460,688,l),
(460,90,l),
(456,90,l),
(153,688,l),
(100,688,l),
(100,0,l)
);
}
);
width = 570;
},
{
anchors = (
{
name = bottom;
pos = (357,0);
},
{
name = top;
pos = (357,688);
}
);
layerId = m009;
shapes = (
{
closed = 1;
nodes = (
(182,0,l),
(182,543,l),
(186,543,l),
(527,0,l),
(614,0,l),
(614,688,l),
(532,688,l),
(532,145,l),
(528,145,l),
(187,688,l),
(100,688,l),
(100,0,l)
);
}
);
width = 714;
},
{
anchors = (
{
name = bottom;
pos = (609,0);
},
{
name = top;
pos = (609,688);
}
);
layerId = m015;
shapes = (
{
closed = 1;
nodes = (
(308,0,l),
(308,543,l),
(312,543,l),
(653,0,l),
(888,0,l),
(888,688,l),
(658,688,l),
(658,145,l),
(654,145,l),
(313,688,l),
(78,688,l),
(78,0,l)
);
}
);
width = 966;
},
{
anchors = (
{
name = bottom;
pos = (195,0);
},
{
name = top;
pos = (195,688);
}
);
layerId = m010;
shapes = (
{
closed = 1;
nodes = (
(132,0,l),
(132,474,l),
(136,474,l),
(253,0,l),
(340,0,l),
(340,688,l),
(258,688,l),
(258,214,l),
(254,214,l),
(137,688,l),
(50,688,l),
(50,0,l)
);
}
);
width = 390;
},
{
anchors = (
{
name = bottom;
pos = (314,0);
},
{
name = top;
pos = (314,688);
}
);
layerId = m013;
shapes = (
{
closed = 1;
nodes = (
(160,0,l),
(160,355,l),
(164,355,l),
(505,0,l),
(592,0,l),
(592,688,l),
(510,688,l),
(510,333,l),
(506,333,l),
(165,688,l),
(78,688,l),
(78,0,l)
);
}
);
width = 670;
},
{
anchors = (
{
name = bottom;
pos = (60,0);
},
{
name = top;
pos = (60,688);
}
);
layerId = m017;
name = "OPSZ-max";
shapes = (
{
closed = 1;
nodes = (
(168,0,l),
(168,531,l),
(172,531,l),
(449,0,l),
(532,0,l),
(532,688,l),
(455,688,l),
(455,157,l),
(451,157,l),
(173,688,l),
(90,688,l),
(90,0,l)
);
}
);
width = 622;
},
{
anchors = (
{
name = bottom;
pos = (357,0);
},
{
name = top;
pos = (357,688);
}
);
layerId = m018;
shapes = (
{
closed = 1;
nodes = (
(182,0,l),
(182,543,l),
(186,543,l),
(527,0,l),
(614,0,l),
(614,688,l),
(532,688,l),
(532,145,l),
(528,145,l),
(187,688,l),
(100,688,l),
(100,0,l)
);
}
);
width = 714;
}
);
metricLeft = H;
metricRight = "=|";
unicode = 78;
userData = {
com.typespan.data.v1 = {
masters = {
m009 = {
track_data = {
"2026-04-21" = {
"19" = 28.75312;
};
"2026-04-23" = {
"09" = 1.19576;
};
};
};
m010 = {
track_data = {
"2026-04-21" = {
"19" = 41.79397;
};
};
};
m011 = {
track_data = {
"2026-04-21" = {
"19" = 56.37916;
};
};
};
m012 = {
track_data = {
"2026-04-21" = {
"19" = 80.25781;
};
};
};
m013 = {
track_data = {
"2026-04-21" = {
"19" = 14.23345;
};
};
};
m014 = {
track_data = {
"2026-04-21" = {
"19" = 131.41548;
};
};
};
m015 = {
track_data = {
"2026-04-21" = {
"19" = 22.10955;
};
};
};
};
};
};
},
{
color = 6;
glyphname = O;
kernLeft = O;
kernRight = O;
layers = (
{
anchors = (
{
name = bottom;
pos = (354,-2);
},
{
name = center;
pos = (354,344);
},
{
name = ogonek;
pos = (637,10);
},
{
name = top;
pos = (354,688);
},
{
name = topleft;
pos = (20,688);
},
{
name = topright;
pos = (688,688);
}
);
layerId = m009;
shapes = (
{
closed = 1;
nodes = (
(590,-8,o),
(632,44,o),
(632,339,cs),
(632,349,ls),
(632,644,o),
(590,696,o),
(354,696,cs),
(118,696,o),
(76,644,o),
(76,349,cs),
(76,339,ls),
(76,44,o),
(118,-8,o),
(354,-8,cs)
);
},
{
closed = 1;
nodes = (
(171,66,o),
(158,83,o),
(158,310,cs),
(158,378,ls),
(158,605,o),
(171,622,o),
(354,622,cs),
(537,622,o),
(550,605,o),
(550,378,cs),
(550,310,ls),
(550,83,o),
(537,66,o),
(354,66,cs)
);
}
);
width = 708;
},
{
anchors = (
{
name = bottom;
pos = (183,-2);
},
{
name = center;
pos = (183,344);
},
{
name = ogonek;
pos = (329,10);
},
{
name = top;
pos = (183,688);
},
{
name = topleft;
pos = (20,688);
},
{
name = topright;
pos = (346,688);
}
);
layerId = m010;
shapes = (
{
closed = 1;
nodes = (
(309,-8,o),
(331,44,o),
(331,339,cs),
(331,349,ls),
(331,644,o),
(309,696,o),
(183,696,cs),
(57,696,o),
(35,644,o),
(35,349,cs),
(35,339,ls),
(35,44,o),
(57,-8,o),
(183,-8,cs)
);
},
{
closed = 1;
nodes = (
(123,66,o),
(117,87,o),
(117,310,cs),
(117,378,ls),
(117,601,o),
(123,622,o),
(183,622,cs),
(243,622,o),
(249,601,o),
(249,378,cs),
(249,310,ls),
(249,87,o),
(243,66,o),
(183,66,cs)
);
}
);
width = 366;
},
{
anchors = (
{
name = bottom;
pos = (438,-2);
},
{
name = center;
pos = (438,344);
},
{
name = ogonek;
pos = (784,10);
},
{
name = top;
pos = (438,688);
},
{
name = topleft;
pos = (26,688);
},
{
name = topright;
pos = (850,688);
}
);
layerId = m011;
shapes = (
{
closed = 1;
nodes = (
(751,-8,o),
(806,44,o),
(806,339,cs),
(806,349,ls),
(806,644,o),
(751,696,o),
(438,696,cs),
(125,696,o),
(70,644,o),
(70,349,cs),
(70,339,ls),
(70,44,o),
(125,-8,o),
(438,-8,cs)
);
},
{
closed = 1;
nodes = (
(180,66,o),
(152,89,o),
(152,310,cs),
(152,378,ls),
(152,599,o),
(180,622,o),
(438,622,cs),
(696,622,o),
(724,599,o),
(724,378,cs),
(724,310,ls),
(724,89,o),
(696,66,o),
(438,66,cs)
);
}
);
width = 876;
},
{
anchors = (
{
name = bottom;
pos = (282,-2);
},
{
name = center;
pos = (282,344);
},
{
name = ogonek;
pos = (508,10);
},
{
name = top;
pos = (282,688);
},
{
name = topleft;
pos = (20,688);
},
{
name = topright;
pos = (544,688);
}
);
layerId = m012;
shapes = (
{
closed = 1;
nodes = (
(457,-8,o),
(488,44,o),
(488,339,cs),
(488,349,ls),
(488,644,o),
(457,696,o),
(282,696,cs),
(107,696,o),
(76,644,o),
(76,349,cs),
(76,339,ls),
(76,44,o),
(107,-8,o),
(282,-8,cs)
);
},
{
closed = 1;
nodes = (
(110,66,o),
(86,95,o),
(86,310,cs),
(86,378,ls),
(86,593,o),
(110,622,o),
(282,622,cs),
(454,622,o),
(478,593,o),
(478,378,cs),
(478,310,ls),
(478,95,o),
(454,66,o),
(282,66,cs)
);
}
);
width = 564;
},
{
anchors = (
{
name = bottom;
pos = (486,-2);
},
{
name = center;
pos = (486,344);
},
{
name = ogonek;
pos = (875,10);
},
{
name = top;
pos = (486,688);
},
{
name = topleft;
pos = (20,688);
},
{
name = topright;
pos = (952,688);
}
);
layerId = m013;
shapes = (
{
closed = 1;
nodes = (
(827,-8,o),
(912,61,o),
(912,339,cs),
(912,349,ls),
(912,627,o),
(827,696,o),
(486,696,cs),
(145,696,o),
(60,627,o),
(60,349,cs),
(60,339,ls),
(60,61,o),
(145,-8,o),
(486,-8,cs)
);
},
{
closed = 1;
nodes = (
(303,66,o),
(290,83,o),
(290,310,cs),
(290,378,ls),
(290,605,o),
(303,622,o),
(486,622,cs),
(669,622,o),
(682,605,o),
(682,378,cs),
(682,310,ls),
(682,83,o),
(669,66,o),
(486,66,cs)
);
}
);
width = 972;
},
{
anchors = (
{
name = bottom;
pos = (354,-2);
},
{
name = center;
pos = (354,344);
},
{
name = ogonek;
pos = (637,10);
},
{
name = top;
pos = (354,688);
},
{
name = topleft;
pos = (20,688);
},
{
name = topright;
pos = (688,688);
}
);
layerId = m014;
shapes = (
{
closed = 1;
nodes = (
(590,-8,o),
(632,44,o),
(632,339,cs),
(632,349,ls),
(632,644,o),
(590,696,o),
(354,696,cs),
(118,696,o),
(76,644,o),
(76,349,cs),
(76,339,ls),
(76,44,o),
(118,-8,o),
(354,-8,cs)
);
},
{
closed = 1;
nodes = (
(171,2,o),
(158,23,o),
(158,302,cs),
(158,386,ls),
(158,665,o),
(171,686,o),
(354,686,cs),
(537,686,o),
(550,665,o),
(550,386,cs),
(550,302,ls),
(550,23,o),
(537,2,o),
(354,2,cs)
);
}
);
width = 708;
},
{
anchors = (
{
name = bottom;
pos = (338,-2);
},
{
name = center;
pos = (338,344);
},
{
name = ogonek;
pos = (608,10);
},
{
name = top;
pos = (338,688);
},
{
name = topleft;
pos = (20,688);
},
{
name = topright;
pos = (656,688);
}
);
layerId = m015;
shapes = (
{
closed = 1;
nodes = (
(574,-8,o),
(616,44,o),
(616,339,cs),
(616,349,ls),
(616,644,o),
(574,696,o),
(338,696,cs),
(102,696,o),
(60,644,o),
(60,349,cs),
(60,339,ls),
(60,44,o),
(102,-8,o),
(338,-8,cs)
);
},
{
closed = 1;
nodes = (
(155,172,o),
(142,184,o),
(142,325,cs),
(142,363,ls),
(142,504,o),
(155,516,o),
(338,516,cs),
(521,516,o),
(534,504,o),
(534,363,cs),
(534,325,ls),
(534,184,o),
(521,172,o),
(338,172,cs)
);
}
);
width = 676;
},
{
anchors = (
{
name = bottom;
pos = (354,-2);
},
{
name = center;
pos = (354,344);
},
{
name = ogonek;
pos = (637,10);
},
{
name = top;
pos = (354,688);
},
{
name = topleft;
pos = (20,688);
},
{
name = topright;
pos = (688,688);
}
);
associatedMasterId = m017;
layerId = "A2D1E04C-DF78-4E3B-A4E5-811960556B44";
name = "20 Apr 26 at 11:15";
shapes = (
{
closed = 1;
nodes = (
(590,-8,o),
(632,44,o),
(632,339,cs),
(632,349,ls),
(632,644,o),
(590,696,o),
(354,696,cs),
(118,696,o),
(76,644,o),
(76,349,cs),
(76,339,ls),
(76,44,o),
(118,-8,o),
(354,-8,cs)
);
},
{
closed = 1;
nodes = (
(171,66,o),
(158,83,o),
(158,310,cs),
(158,378,ls),
(158,605,o),
(171,622,o),
(354,622,cs),
(537,622,o),
(550,605,o),
(550,378,cs),
(550,310,ls),
(550,83,o),
(537,66,o),
(354,66,cs)
);
}
);
width = 708;
},
{
anchors = (
{
name = bottom;
pos = (317,-2);
},
{
name = center;
pos = (317,344);
},
{
name = ogonek;
pos = (571,10);
},
{
name = top;
pos = (317,688);
},
{
name = topleft;
pos = (20,688);
},
{
name = topright;
pos = (615,688);
}
);
layerId = m017;
name = "OPSZ-max";
shapes = (
{
closed = 1;
nodes = (
(529,-8,o),
(567,44,o),
(567,339,cs),
(567,349,ls),
(567,644,o),
(529,696,o),
(317,696,cs),
(104,696,o),
(67,644,o),
(67,349,cs),
(67,339,ls),
(67,44,o),
(104,-8,o),
(317,-8,cs)
);
},
{
closed = 1;
nodes = (
(159,62,o),
(147,80,o),
(147,309,cs),
(147,379,ls),
(147,608,o),
(159,626,o),
(317,626,cs),
(475,626,o),
(487,608,o),
(487,379,cs),
(487,309,ls),
(487,80,o),
(475,62,o),
(317,62,cs)
);
}
);
width = 634;
},
{
anchors = (
{
name = bottom;
pos = (389,-2);
},
{
name = center;
pos = (389,344);
},
{
name = ogonek;
pos = (696,10);
},
{
name = top;
pos = (389,688);
},
{
name = topleft;
pos = (25,688);
},
{
name = topright;
pos = (753,688);
}
);
associatedMasterId = m016;
background = {
shapes = (
{
closed = 1;
nodes = (
(653,-8,o),
(703,46,o),
(703,339,cs),
(703,349,ls),
(703,642,o),
(653,696,o),
(389,696,cs),
(125,696,o),
(75,642,o),
(75,349,cs),
(75,339,ls),
(75,46,o),
(125,-8,o),
(389,-8,cs)
);
},
{
closed = 1;
nodes = (
(191,77,o),
(175,94,o),
(175,312,cs),
(175,377,ls),
(175,594,o),
(191,611,o),
(389,611,cs),
(587,611,o),
(603,594,o),
(603,377,cs),
(603,312,ls),
(603,94,o),
(587,77,o),
(389,77,cs)
);
}
);
};
layerId = "E0915D33-0A97-4C76-BD32-A29470B35AB2";
name = "20 Apr 26 at 11:46";
shapes = (
{
closed = 1;
nodes = (
(620,-8,o),
(701,81,o),
(701,337,cs),
(701,347,ls),
(701,603,o),
(620,692,o),
(389,692,cs),
(158,692,o),
(77,603,o),
(77,347,cs),
(77,337,ls),
(77,81,o),
(158,-8,o),
(389,-8,cs)
);
},
{
closed = 1;
nodes = (
(225,77,o),
(177,125,o),
(177,310,cs),
(177,375,ls),
(177,559,o),
(225,607,o),
(389,607,cs),
(553,607,o),
(601,559,o),
(601,375,cs),
(601,310,ls),
(601,125,o),
(553,77,o),
(389,77,cs)
);
}
);
width = 778;
},
{
anchors = (
{
name = bottom;
pos = (379,-2);
},
{
name = center;
pos = (379,344);
},
{
name = ogonek;
pos = (678,10);
},
{
name = top;
pos = (379,688);
},
{
name = topleft;
pos = (24,688);
},
{
name = topright;
pos = (733,688);
}
);
layerId = m016;
name = "OPSZ-min";
shapes = (
{
closed = 1;
nodes = (
(604,-8,o),
(682,82,o),
(682,339,cs),
(682,349,ls),
(682,606,o),
(604,696,o),
(379,696,cs),
(154,696,o),
(76,606,o),
(76,349,cs),
(76,339,ls),
(76,82,o),
(154,-8,o),
(379,-8,cs)
);
},
{
closed = 1;
nodes = (
(224,77,o),
(176,133,o),
(176,312,cs),
(176,377,ls),
(176,555,o),
(224,611,o),
(379,611,cs),
(534,611,o),
(582,555,o),
(582,377,cs),
(582,312,ls),
(582,133,o),
(534,77,o),
(379,77,cs)
);
}
);
width = 758;
},
{
anchors = (
{
name = bottom;
pos = (354,-2);
},
{
name = center;
pos = (354,344);
},
{
name = ogonek;
pos = (637,10);
},
{
name = top;
pos = (354,688);
},
{
name = topleft;
pos = (20,688);
},
{
name = topright;
pos = (688,688);
}
);
layerId = m018;
shapes = (
{
closed = 1;
nodes = (
(590,-8,o),
(632,44,o),
(632,339,cs),
(632,349,ls),
(632,644,o),
(590,696,o),
(354,696,cs),
(118,696,o),
(76,644,o),
(76,349,cs),
(76,339,ls),
(76,44,o),
(118,-8,o),
(354,-8,cs)
);
},
{
closed = 1;
nodes = (
(171,66,o),
(158,83,o),
(158,310,cs),
(158,378,ls),
(158,605,o),
(171,622,o),
(354,622,cs),
(537,622,o),
(550,605,o),
(550,378,cs),
(550,310,ls),
(550,83,o),
(537,66,o),
(354,66,cs)
);
}
);
width = 708;
}
);
metricRight = "=|";
unicode = 79;
userData = {
com.typespan.data.v1 = {
masters = {
"014AEDB6-97B4-4AAC-84A2-9214CBDCDF6E" = {
track_data = {
"2026-04-20" = {
"11" = 0.35144;
};
};
};
"0241491C-A9AD-4F80-B1F7-876BB19A6978" = {
track_data = {
"2026-04-20" = {
"11" = 0.36505;
};
};
};
"02A02B7A-D1AA-4848-B5BA-A78CC5D9AA10" = {
track_data = {
"2026-04-20" = {
"11" = 0.11738;
};
};
};
"041DB1BA-FD0B-4907-88E7-92E091DD59B7" = {
track_data = {
"2026-04-20" = {
"11" = 0.02884;
};
};
};
"06C32573-660E-40FC-8B50-8B0CC9D66B3A" = {
track_data = {
"2026-04-20" = {
"11" = 0.14491;
};
};
};
"07A93A46-F0DC-421C-A160-19D28B9264FA" = {
track_data = {
"2026-04-20" = {
"11" = 0.12538;
};
};
};
"08A39B11-D0F2-4FF8-BDA9-192CB5C6FAD0" = {
track_data = {
"2026-04-20" = {
"11" = 0.28483;
};
};
};
"08B6FAB0-5749-42CD-8294-0F4948CEBC94" = {
track_data = {
"2026-04-20" = {
"11" = 0.23322;
};
};
};
"0A0AC43C-4F1B-468F-B058-EAE3FE216976" = {
track_data = {
"2026-04-20" = {
"11" = 0.03292;
};
};
};
"0BC3D779-1379-4FD7-8C70-FF51573B5A9C" = {
track_data = {
"2026-04-20" = {
"11" = 0.08309;
};
};
};
"0BD27F1B-81EA-48CA-A6AB-0E7F42D7C6AD" = {
track_data = {
"2026-04-20" = {
"11" = 0.11784;
};
};
};
"0C04A654-503F-407D-9112-FBA996B0128D" = {
track_data = {
"2026-04-20" = {
"11" = 0.33278;
};
};
};
"0CEF96A4-F1D1-4AAC-B1B7-078A928D9CD0" = {
track_data = {
"2026-04-20" = {
"11" = 0.11746;
};
};
};
"0EAC8DE8-994F-441C-AACA-2815E15EF636" = {
track_data = {
"2026-04-20" = {
"11" = 0.11681;
};
};
};
"0F34529C-585F-4FA4-91AF-1D5F45F8E1FE" = {
track_data = {
"2026-04-20" = {
"11" = 0.13373;
};
};
};
"119FAADB-D0D9-4BFC-A4FB-C81B93B64518" = {
track_data = {
};
};
"171435DC-92A8-419B-B9FA-69929BD3C8A7" = {
track_data = {
"2026-04-20" = {
"11" = 0.17428;
};
};
};
"180DE134-DB3D-4AF7-A3F3-CC25C8CB1615" = {
track_data = {
"2026-04-20" = {
"11" = 0.2369;
};
};
};
"18D90DB2-F139-4C24-A2D8-DF352C369C69" = {
track_data = {
"2026-04-20" = {
"11" = 0.23284;
};
};
};
"192E99AB-1A1B-4BE6-B052-E4DCEA7D1906" = {
track_data = {
"2026-04-20" = {
"11" = 0.18363;
};
};
};
"19E1EA5F-2108-4B17-9D66-33A8D9532612" = {
track_data = {
"2026-04-20" = {
"11" = 0.11811;
};
};
};
"1AB05F80-B57A-4030-9DB9-874CB064AD70" = {
track_data = {
};
};
"1CF8871D-F636-412A-BFE1-414C864BCFF1" = {
track_data = {
"2026-04-20" = {
"11" = 0.03321;
};
};
};
"1DB65430-24E6-4FC8-A2E1-9A55605AD1E5" = {
track_data = {
"2026-04-20" = {
"11" = 0.27072;
};
};
};
"1E3431E1-51A9-4948-9F60-56BA106E0EA5" = {
track_data = {
"2026-04-20" = {
"11" = 0.56783;
};
};
};
"1F2B1AB3-D5DA-4C41-8E9D-C52531F0B29F" = {
track_data = {
"2026-04-20" = {
"11" = 0.22776;
};
};
};
"1F85E16D-F120-47A4-95B1-BCCA475F80DF" = {
track_data = {
"2026-04-20" = {
"11" = 0.11804;
};
};
};
"1FA4E057-439B-4A44-8DE0-73D366110769" = {
track_data = {
"2026-04-20" = {
"11" = 0.09114;
};
};
};
"260A978D-2770-4F9E-A713-7D741FF4FB10" = {
track_data = {
"2026-04-20" = {
"11" = 0.12027;
};
};
};
"270721DE-DDC8-40AE-B01F-F4395C88F628" = {
track_data = {
"2026-04-20" = {
"11" = 0.06663;
};
};
};
"276BDBC3-AEEA-4477-A188-8D1F0D19FB9C" = {
track_data = {
"2026-04-20" = {
"11" = 0.08763;
};
};
};
"29ECE59F-0A8A-464A-B19D-161515F60F88" = {
track_data = {
"2026-04-20" = {
"11" = 0.11655;
};
};
};
"2B4D17AF-98AE-403A-90A3-2C1C35FD09B2" = {
track_data = {
"2026-04-20" = {
"11" = 0.03451;
};
};
};
"2C1F840F-BE66-419E-B701-36DFF5B9A490" = {
track_data = {
"2026-04-20" = {
"11" = 0.06243;
};
};
};
"2C246C65-2CE9-41D2-AF92-B8A3F71C9AB1" = {
track_data = {
"2026-04-20" = {
"11" = 0.11635;
};
};
};
"33C69998-26A2-4E76-8C8F-4493CCFFB442" = {
track_data = {
"2026-04-20" = {
"11" = 0.3313;
};
};
};
"33D56413-EC74-442A-9C4D-80CF4886E21A" = {
track_data = {
"2026-04-20" = {
"11" = 0.74548;
};
};
};
"36527060-A4A5-49B0-86BC-3165D92FA71D" = {
track_data = {
"2026-04-20" = {
"11" = 0.28608;
};
};
};
"36C48C94-FBD2-44BB-92C4-2ACBDFFC10DB" = {
track_data = {
"2026-04-20" = {
"11" = 0.22927;
};
};
};
"3835A366-7891-4624-9781-9DDD30AEE95C" = {
track_data = {
"2026-04-20" = {
"11" = 0.21969;
};
};
};
"398E9B09-24FD-4A08-9BEC-50911536FA9C" = {
track_data = {
"2026-04-20" = {
"11" = 0.11624;
};
};
};
"3AF7E98B-0027-40D2-A494-CEF65E71838E" = {
track_data = {
"2026-04-20" = {
"11" = 0.23376;
};
};
};
"3B447DD2-B1CB-4654-869B-F48E462F3B3C" = {
track_data = {
"2026-04-20" = {
"11" = 0.01704;
};
};
};
"3BD66AD7-1759-4B91-9553-1C743E8B470C" = {
track_data = {
"2026-04-20" = {
"11" = 0.13278;
};
};
};
"3C108C41-4EF4-4E8A-8E52-229A08B11A53" = {
track_data = {
"2026-04-20" = {
"11" = 0.11747;
};
};
};
"3DB584A1-7061-4FB2-B4C9-5CFC673B83B6" = {
track_data = {
"2026-04-20" = {
"11" = 0.04986;
};
};
};
"3EF1F6A1-D4D6-4044-BE16-8B9A01CABA16" = {
track_data = {
"2026-04-20" = {
"11" = 0.3172;
};
};
};
"423EA95F-9607-4803-B4FF-D9E4A69777FF" = {
track_data = {
"2026-04-20" = {
"11" = 0.11703;
};
};
};
"424F8D70-8678-4A01-ABCA-1C321927AC5D" = {
track_data = {
"2026-04-20" = {
"11" = 0.04431;
};
};
};
"45EF0C45-5557-419F-9188-1B6E6B343B4A" = {
track_data = {
"2026-04-20" = {
"11" = 0.03283;
};
};
};
"46018903-2814-4D26-A3F8-025BF5267657" = {
track_data = {
"2026-04-20" = {
"11" = 0.11643;
};
};
};
"4850A122-CE00-4BD0-BF10-8AC946EF3E02" = {
track_data = {
"2026-04-20" = {
"11" = 0.50031;
};
};
};
"49ACC0DE-749A-4C33-8B8D-CA1CBBB62556" = {
track_data = {
};
};
"4C33F3B5-BB5D-4BF4-ADBC-9543151C4DED" = {
track_data = {
"2026-04-20" = {
"11" = 0.03229;
};
};
};
"4C824A2B-6EBB-4B88-8357-563D64960887" = {
track_data = {
"2026-04-20" = {
"11" = 0.04947;
};
};
};
"5015B6AB-05B9-460A-8AB3-B5C4F1D20443" = {
track_data = {
"2026-04-20" = {
"11" = 0.12129;
};
};
};
"5153E135-A2B8-4F60-90B1-8FF3F2E000A8" = {
track_data = {
"2026-04-20" = {
"11" = 0.14921;
};
};
};
"538D9299-1A2B-4556-8F74-747D0FC83A4B" = {
track_data = {
"2026-04-20" = {
"11" = 0.06664;
};
};
};
"540276C6-1E3D-425D-A486-7C66E23483D1" = {
track_data = {
"2026-04-20" = {
"11" = 0.11703;
};
};
};
"548EF0A4-A1F4-401D-9369-8A8B11C7B2D3" = {
track_data = {
"2026-04-20" = {
"11" = 0.11599;
};
};
};
"5504BC7A-4FEF-49D4-8C84-F8BECDF2506D" = {
track_data = {
"2026-04-20" = {
"11" = 0.06608;
};
};
};
"57FD694F-C23A-4565-B78B-4E1074DEC22F" = {
track_data = {
"2026-04-20" = {
"11" = 0.11476;
};
};
};
"5D5F5E47-742A-4EF5-830D-1DFD744979B6" = {
track_data = {
"2026-04-20" = {
"11" = 0.13662;
};
};
};
"5F872FF5-F326-441C-A7FA-324A7A8FDC3F" = {
track_data = {
"2026-04-20" = {
"11" = 0.12822;
};
};
};
"6057DE27-9C3B-4D44-BF95-FB34114EAF58" = {
track_data = {
"2026-04-20" = {
"11" = 0.21533;
};
};
};
"60763417-6C6E-4992-AB25-2F1BFE905917" = {
track_data = {
"2026-04-20" = {
"11" = 0.39248;
};
};
};
"63E7484C-0793-40BB-B75F-670D4B7C1ED8" = {
track_data = {
"2026-04-20" = {
"11" = 0.5003;
};
};
};
"6448EB09-C433-4746-B673-7A21566B340C" = {
track_data = {
"2026-04-20" = {
"11" = 0.54247;
};
};
};
"653B54A9-5253-45EE-832C-C4B62FB075FE" = {
track_data = {
"2026-04-20" = {
"11" = 0.11787;
};
};
};
"683203FC-28B0-479A-B25E-F2E6275F855C" = {
track_data = {
"2026-04-20" = {
"11" = 0.11633;
};
};
};
"692A5307-C5BA-4DEA-A5B5-289ACEA96A1F" = {
track_data = {
"2026-04-20" = {
"11" = 0.09899;
};
};
};
"6A368DFF-E90E-4E35-854A-FED14E4B699A" = {
track_data = {
"2026-04-20" = {
"11" = 0.01654;
};
};
};
"6A6AEAE6-7477-4D47-87BC-6C3A2A13F5D2" = {
track_data = {
"2026-04-20" = {
"11" = 0.06574;
};
};
};
"6FFA6840-45D3-4D6D-A605-F7BE5C1B8E48" = {
track_data = {
"2026-04-20" = {
"11" = 0.0659;
};
};
};
"70EE08C6-3E9D-46C9-9910-556A7860B47E" = {
track_data = {
"2026-04-20" = {
"11" = 0.10049;
};
};
};
"721F48FE-800C-4975-930B-A736D96522BA" = {
track_data = {
"2026-04-20" = {
"11" = 0.0837;
};
};
};
"7624D6BE-7ADF-4502-8F39-4FEAE96F230F" = {
track_data = {
"2026-04-20" = {
"11" = 0.11894;
};
};
};
"7628D768-1CE1-4EA0-910F-FAA5C1F4D25A" = {
track_data = {
"2026-04-20" = {
"11" = 0.11651;
};
};
};
"770F3182-0BCD-41E3-B883-55FCAFDB7A50" = {
track_data = {
"2026-04-20" = {
"11" = 0.1216;
};
};
};
"7B002169-7714-4324-9C8F-2FC978B7FB03" = {
track_data = {
"2026-04-20" = {
"11" = 0.09366;
};
};
};
"7B6D0594-47E4-4DA4-96FA-16BDF61463E0" = {
track_data = {
"2026-04-20" = {
"11" = 0.02999;
};
};
};
"7B7E2620-5DF1-449D-B379-08D62D797138" = {
track_data = {
"2026-04-20" = {
"11" = 0.61786;
};
};
};
"7D566350-CBE3-4510-8264-679DB066BA68" = {
track_data = {
"2026-04-20" = {
"11" = 0.48267;
};
};
};
"7D954ECA-403C-4DD5-BBCE-711244B07FCE" = {
track_data = {
"2026-04-20" = {
"11" = 0.08378;
};
};
};
"7E0D7896-746F-41EB-B5A1-803A2118EA43" = {
track_data = {
"2026-04-20" = {
"11" = 0.0999;
};
};
};
"7F67B707-758F-455D-922F-7D4F9AE3C455" = {
track_data = {
"2026-04-20" = {
"11" = 0.20805;
};
};
};
"7F99C43F-99E9-4378-AB3B-EDFF7C999042" = {
track_data = {
"2026-04-20" = {
"11" = 0.07762;
};
};
};
"7FECAAA2-872C-4D12-BCAD-D6E5BB3656EC" = {
track_data = {
"2026-04-20" = {
"11" = 0.09769;
};
};
};
"801F6CDF-925C-414F-83C7-259D3F2A675A" = {
track_data = {
"2026-04-20" = {
"11" = 0.13689;
};
};
};
"80B707ED-929A-4142-9744-D94554F527CE" = {
track_data = {
"2026-04-20" = {
"11" = 0.18381;
};
};
};
"8103F1CA-31F3-4C8D-8268-2E5664B55801" = {
track_data = {
"2026-04-20" = {
"11" = 0.04837;
};
};
};
"8187EA2A-C6ED-47B1-B120-64DFB72CF531" = {
track_data = {
"2026-04-20" = {
"11" = 0.04937;
};
};
};
"81DB6ECC-6771-4C3F-9046-C171C0B09AF8" = {
track_data = {
"2026-04-20" = {
"11" = 0.36685;
};
};
};
"82DE0D4D-FB8A-4873-8EDF-10A6EB20F94C" = {
track_data = {
"2026-04-20" = {
"11" = 0.81848;
};
};
};
"834EDF3C-A87B-4F18-929F-B424C74AD520" = {
track_data = {
"2026-04-20" = {
"11" = 0.08415;
};
};
};
"83D6FC0C-382A-47D7-A680-990A6380CB24" = {
track_data = {
"2026-04-20" = {
"11" = 0.28514;
};
};
};
"852BA7EC-32D6-452C-9E17-5FDC63373EE4" = {
track_data = {
"2026-04-20" = {
"11" = 0.24929;
};
};
};
"85417C00-D282-4A60-9043-6CCBA86AA692" = {
track_data = {
"2026-04-20" = {
"11" = 0.23227;
};
};
};
"869BC32B-AB2F-4E7E-ABBB-137BD18CF6B4" = {
track_data = {
"2026-04-20" = {
"11" = 0.31759;
};
};
};
"872DCDAD-547E-4E9C-B134-0DF1DEA40D27" = {
track_data = {
"2026-04-20" = {
"11" = 0.23;
};
};
};
"8A2074E3-1231-49B9-962F-47CB42BD44A9" = {
track_data = {
"2026-04-20" = {
"11" = 0.04943;
};
};
};
"8A44D135-2506-4D9D-B171-01B9F97FE225" = {
track_data = {
"2026-04-20" = {
"11" = 0.11659;
};
};
};
"8D7C9ADE-DE33-49ED-A43A-54793C022600" = {
track_data = {
"2026-04-20" = {
"11" = 0.18716;
};
};
};
"8DBE210A-AD92-485A-ADB0-98197223FD8D" = {
track_data = {
"2026-04-20" = {
"11" = 0.11864;
};
};
};
"8EB9C29B-C60E-4B87-999B-47D16195DF3E" = {
track_data = {
"2026-04-20" = {
"11" = 0.11798;
};
};
};
"90A22876-4937-45C2-AD4C-843EF1EC90C6" = {
track_data = {
"2026-04-20" = {
"11" = 0.19931;
};
};
};
"91A60C3C-69C4-4D81-96C0-B2975D3199C0" = {
track_data = {
"2026-04-20" = {
"11" = 0.11593;
};
};
};
"9290F6E9-9564-42EB-8759-7B770F4B0A9E" = {
track_data = {
"2026-04-20" = {
"11" = 0.20175;
};
};
};
"9309409D-3A63-4470-9558-30104E51E91E" = {
track_data = {
"2026-04-20" = {
"11" = 0.11704;
};
};
};
"931C542B-9D05-47AE-8E96-7BEB038F084E" = {
track_data = {
"2026-04-20" = {
"11" = 0.11731;
};
};
};
"945C8285-2E0F-4EE3-A7A1-95A295C2F819" = {
track_data = {
"2026-04-20" = {
"11" = 0.26597;
};
};
};
"94D64DFE-F360-44E8-91FD-F91D670A0359" = {
track_data = {
"2026-04-20" = {
"11" = 0.02281;
};
};
};
"9610F3A7-A5DF-4AC3-A6ED-CB01FF2F568E" = {
track_data = {
"2026-04-20" = {
"11" = 0.47072;
};
};
};
"96D00EC9-083F-447E-B1A4-A7E50845333A" = {
track_data = {
};
};
"97690455-8F1D-425F-B443-9556B83C1DC7" = {
track_data = {
"2026-04-20" = {
"11" = 0.92384;
};
};
};
"977D01C4-B97B-4B9B-BD94-A507F36BD760" = {
track_data = {
"2026-04-20" = {
"11" = 0.53335;
};
};
};
"99571865-D120-49BC-8A04-FA2B48EDFC1C" = {
track_data = {
"2026-04-20" = {
"11" = 0.11675;
};
};
};
"9BF28DAD-3C69-4FD3-9BD2-752E97CF9CB3" = {
track_data = {
"2026-04-20" = {
"11" = 0.28495;
};
};
};
"9C5A3254-2DB7-4DB4-8B1D-E95C1093FB8F" = {
track_data = {
"2026-04-20" = {
"11" = 0.16708;
};
};
};
"9D0A3696-92B3-4F76-A796-66D0D6265DA1" = {
track_data = {
"2026-04-20" = {
"11" = 0.04463;
};
};
};
"9F8BB305-C3E0-455D-A21F-605E24E893CC" = {
track_data = {
"2026-04-20" = {
"11" = 0.03206;
};
};
};
"A1B5921B-EEA9-4ADB-A01F-586CD199838D" = {
track_data = {
"2026-04-20" = {
"11" = 0.08153;
};
};
};
"A1D897F3-774B-4DD4-9158-515405C21A88" = {
track_data = {
"2026-04-20" = {
"11" = 0.06658;
};
};
};
"A57FD239-2020-469F-9E43-0C11D4429464" = {
track_data = {
"2026-04-20" = {
"11" = 0.11835;
};
};
};
"A5D76E73-D12A-4BA0-83D7-7DAD4F9B1731" = {
track_data = {
"2026-04-20" = {
"11" = 0.11528;
};
};
};
"A69387D0-852D-4B60-B80A-33C862C60F0F" = {
track_data = {
"2026-04-20" = {
"11" = 0.11503;
};
};
};
"A848B7A0-2E8E-431F-B385-A699F9A6C064" = {
track_data = {
"2026-04-20" = {
"11" = 0.11486;
};
};
};
"AC15F8E5-C8AA-4B9E-B849-152450CAC160" = {
track_data = {
"2026-04-20" = {
"11" = 0.36579;
};
};
};
"ACB443AE-BC88-4868-9BA6-DAD5FD5BDE5A" = {
track_data = {
"2026-04-20" = {
"11" = 0.11647;
};
};
};
"ADC1503F-35E6-4F6E-96DD-4CB2E2B3FA94" = {
track_data = {
"2026-04-20" = {
"11" = 0.01093;
};
};
};
"B04FF7D6-8C40-4B55-9509-87618875E587" = {
track_data = {
"2026-04-20" = {
"11" = 0.05079;
};
};
};
"B2F27BDD-2721-4190-9EC4-C7FEB59754D2" = {
track_data = {
"2026-04-20" = {
"11" = 0.11555;
};
};
};
"B3D17B52-ABF3-4082-8FB3-DEC23C34F20C" = {
track_data = {
"2026-04-20" = {
"11" = 0.39598;
};
};
};
"B551B916-BB8C-4CC4-A622-EA31A93FD7CB" = {
track_data = {
"2026-04-20" = {
"11" = 0.65658;
};
};
};
"B63B4592-8943-4BFF-9C1D-E70A080DE09D" = {
track_data = {
"2026-04-20" = {
"11" = 0.11982;
};
};
};
"B7F01EEB-1416-44AD-89F7-AF80F2CD4BDA" = {
track_data = {
};
};
"BB029D97-2447-4821-AEE9-64636E693BAE" = {
track_data = {
"2026-04-20" = {
"11" = 0.03399;
};
};
};
"BB4077CA-DE81-4ED3-A4FE-046ED5FA88DD" = {
track_data = {
"2026-04-20" = {
"11" = 0.11406;
};
};
};
"BC606977-45E6-4F7F-B210-2CD1081A498B" = {
track_data = {
"2026-04-20" = {
"11" = 0.03289;
};
};
};
"C0A9A56A-665C-4790-82BC-9659E9D05AFD" = {
track_data = {
"2026-04-20" = {
"11" = 0.06661;
};
};
};
"C1AE8530-A572-4882-A6A5-790C9C5A28F4" = {
track_data = {
"2026-04-20" = {
"11" = 0.11678;
};
};
};
"C1D444A8-CD01-4A7A-A27B-5AB0082BC34B" = {
track_data = {
"2026-04-20" = {
"11" = 0.15118;
};
};
};
"C3D41105-DE27-4B98-87C3-36C2018BAAD8" = {
track_data = {
"2026-04-20" = {
"11" = 0.0826;
};
};
};
"C3DE2E59-BA3F-418F-9CC6-3D6D079A7CEF" = {
track_data = {
"2026-04-20" = {
"11" = 0.08796;
};
};
};
"C401B827-6E29-46BB-9D47-8FF830C9A698" = {
track_data = {
"2026-04-20" = {
"11" = 0.11666;
};
};
};
"C576A33C-0E26-43D3-AFCE-D526F5FF2D0B" = {
track_data = {
"2026-04-20" = {
"11" = 0.11667;
};
};
};
"C6D2C06D-6798-4546-B19C-BA534ED5BCDC" = {
track_data = {
"2026-04-20" = {
"11" = 0.2368;
};
};
};
"C82C71E6-8BA1-41E8-BEB3-8E3775251170" = {
track_data = {
"2026-04-20" = {
"11" = 0.08993;
};
};
};
"C8D7CA7A-DB6B-4113-8356-6C5B8C18083F" = {
track_data = {
"2026-04-20" = {
"11" = 0.2353;
};
};
};
"C98B0F13-7136-436F-ADBB-BAEEB8EC148E" = {
track_data = {
"2026-04-20" = {
"11" = 0.23311;
};
};
};
"CA242C0A-615B-4453-95E8-229D92C1E08F" = {
track_data = {
"2026-04-20" = {
"11" = 0.11425;
};
};
};
"CB43BE63-EAF3-409E-966E-A7430DE3AAD6" = {
track_data = {
"2026-04-20" = {
"11" = 0.20356;
};
};
};
"CD45ACDF-CA41-4FEC-945A-D629D21146F7" = {
track_data = {
"2026-04-20" = {
"11" = 0.11663;
};
};
};
"CF5EDEC8-144E-45A6-A86B-BB378B754E0F" = {
track_data = {
"2026-04-20" = {
"11" = 0.0987;
};
};
};
"D076C39D-EBD1-42D4-87CA-8B4A1E6EA0F7" = {
track_data = {
"2026-04-20" = {
"11" = 0.11798;
};
};
};
"D07E059B-35F6-447E-98B5-E1FE23D63D5D" = {
track_data = {
"2026-04-20" = {
"11" = 0.80363;
};
};
};
"D0ABB161-590A-4F6A-9891-9BD5A2B2C923" = {
track_data = {
"2026-04-20" = {
"11" = 0.12042;
};
};
};
"D150CDF9-348B-4742-B9F4-866ED82DE7EC" = {
track_data = {
"2026-04-20" = {
"11" = 0.03382;
};
};
};
"D19BC3E2-BD28-4329-B6A4-AE36E13C15DF" = {
track_data = {
"2026-04-20" = {
"11" = 0.08403;
};
};
};
"D5AD36D4-A836-4209-BCDD-92BAF1EAD2C4" = {
track_data = {
"2026-04-20" = {
"11" = 0.23369;
};
};
};
"D5FB24FD-84FE-47B2-8971-F157AE04A013" = {
track_data = {
"2026-04-20" = {
"11" = 0.11971;
};
};
};
"D71AE961-1810-4D10-99CA-6CC6A04C00F7" = {
track_data = {
"2026-04-20" = {
"11" = 0.13296;
};
};
};
"DAD61D8C-E351-4657-BCC0-00B72F8662CC" = {
track_data = {
"2026-04-20" = {
"11" = 0.65005;
};
};
};
"DCF75ECE-9982-4C71-A274-897D1F69C195" = {
track_data = {
"2026-04-20" = {
"11" = 0.33438;
};
};
};
"E00837CC-CE79-4389-9412-A6284A404BC1" = {
track_data = {
"2026-04-20" = {
"11" = 0.20054;
};
};
};
"E61A40D7-7F40-47AB-9CC1-7C036C98EBD9" = {
track_data = {
"2026-04-20" = {
"11" = 0.78339;
};
};
};
"E624C5E5-C4D1-4316-9BBA-7C8ECE586C61" = {
track_data = {
"2026-04-20" = {
"11" = 0.11753;
};
};
};
"E67EDE83-B463-44BB-99CC-0059884A0B6D" = {
track_data = {
"2026-04-20" = {
"11" = 0.38419;
};
};
};
"E6D2A355-5C9E-4BE0-82A6-0F1FF07B65F1" = {
track_data = {
"2026-04-20" = {
"11" = 0.1186;
};
};
};
"E8C5FA70-A440-425A-87E8-D06428B6D8F4" = {
track_data = {
"2026-04-20" = {
"11" = 0.30134;
};
};
};
"EBFEAE52-C1FF-421A-A30F-8ED6A3C8E903" = {
track_data = {
"2026-04-20" = {
"11" = 0.15002;
};
};
};
"EC01D822-CDFB-4F9D-B21C-037500FC4943" = {
track_data = {
"2026-04-20" = {
"11" = 0.11587;
};
};
};
"EDF8F2F5-B4F0-4FEA-B360-C00238D5DCB3" = {
track_data = {
"2026-04-20" = {
"11" = 0.76658;
};
};
};
"F1EC68ED-AAEE-4415-BB5B-45BCA23E93FA" = {
track_data = {
"2026-04-20" = {
"11" = 0.03332;
};
};
};
"F3D24115-524D-4DE6-A621-81AD94D589C5" = {
track_data = {
"2026-04-20" = {
"11" = 0.16918;
};
};
};
"F4D37F30-415D-47EB-91E6-4240D30271E9" = {
track_data = {
"2026-04-20" = {
"11" = 0.08503;
};
};
};
"F67571CC-67BC-4F3B-980E-A15E79C07D51" = {
track_data = {
"2026-04-20" = {
"11" = 0.11652;
};
};
};
"FAC5DF6C-3ED9-4E4A-ACA5-E1D1967BD25C" = {
track_data = {
"2026-04-20" = {
"11" = 0.10049;
};
};
};
"FB6D3B4A-681E-4EFF-8879-C6C6D015585B" = {
track_data = {
"2026-04-20" = {
"11" = 0.28868;
};
};
};
"FF9A8E54-3369-4772-A07D-E32C732F31F7" = {
track_data = {
"2026-04-20" = {
"11" = 0.68344;
};
};
};
m009 = {
track_data = {
"2026-04-20" = {
"11" = 63.2081;
"12" = 135.11172;
};
};
};
m010 = {
track_data = {
"2026-04-23" = {
"09" = 3.84555;
};
};
};
m016 = {
track_data = {
"2026-04-20" = {
"11" = 256.07714;
"12" = 25.81682;
};
};
};
m017 = {
track_data = {
"2026-04-20" = {
"11" = 35.56874;
"12" = 32.34095;
};
};
};
m018 = {
track_data = {
"2026-04-22" = {
"17" = 15.1253;
};
};
};
};
};
};
},
{
color = 4;
glyphname = P;
kernLeft = H;
kernRight = P;
layers = (
{
anchors = (
{
name = bottom;
pos = (293,0);
},
{
name = top;
pos = (293,688);
}
);
layerId = m009;
shapes = (
{
closed = 1;
nodes = (
(182,0,l),
(182,645,l),
(145,614,l),
(307,614,ls),
(463,614,o),
(473,605,o),
(473,485,cs),
(473,450,ls),
(473,330,o),
(463,321,o),
(307,321,cs),
(166,321,l),
(166,247,l),
(307,247,ls),
(518,247,o),
(555,280,o),
(555,464,cs),
(555,471,ls),
(555,655,o),
(518,688,o),
(307,688,cs),
(100,688,l),
(100,0,l)
);
}
);
width = 585;
},
{
anchors = (
{
name = bottom;
pos = (173,0);
},
{
name = top;
pos = (173,688);
}
);
layerId = m010;
shapes = (
{
closed = 1;
nodes = (
(132,0,l),
(132,645,l),
(95,614,l),
(183,614,ls),
(238,614,o),
(242,606,o),
(242,485,cs),
(242,450,ls),
(242,329,o),
(238,321,o),
(183,321,cs),
(111,321,l),
(111,247,l),
(173,247,ls),
(298,247,o),
(324,285,o),
(324,464,cs),
(324,471,ls),
(324,650,o),
(298,688,o),
(173,688,cs),
(50,688,l),
(50,0,l)
);
}
);
width = 339;
},
{
anchors = (
{
name = bottom;
pos = (391,0);
},
{
name = top;
pos = (391,688);
}
);
layerId = m011;
shapes = (
{
closed = 1;
nodes = (
(182,0,l),
(182,645,l),
(145,614,l),
(458,614,ls),
(643,614,o),
(659,603,o),
(659,485,cs),
(659,450,ls),
(659,332,o),
(643,321,o),
(458,321,cs),
(171,321,l),
(171,247,l),
(438,247,ls),
(691,247,o),
(741,280,o),
(741,464,cs),
(741,471,ls),
(741,655,o),
(691,688,o),
(438,688,cs),
(100,688,l),
(100,0,l)
);
}
);
width = 771;
},
{
anchors = (
{
name = bottom;
pos = (221,0);
},
{
name = top;
pos = (221,688);
}
);
layerId = m012;
shapes = (
{
closed = 1;
nodes = (
(110,0,l),
(110,645,l),
(106,614,l),
(235,614,ls),
(381,614,o),
(401,598,o),
(401,485,cs),
(401,450,ls),
(401,337,o),
(381,321,o),
(235,321,cs),
(105,321,l),
(105,247,l),
(235,247,ls),
(385,247,o),
(411,280,o),
(411,464,cs),
(411,471,ls),
(411,655,o),
(385,688,o),
(235,688,cs),
(100,688,l),
(100,0,l)
);
}
);
width = 441;
},
{
anchors = (
{
name = bottom;
pos = (426,0);
},
{
name = top;
pos = (426,688);
}
);
layerId = m013;
shapes = (
{
closed = 1;
nodes = (
(308,0,l),
(308,645,l),
(209,614,l),
(433,614,ls),
(588,614,o),
(599,606,o),
(599,485,cs),
(599,450,ls),
(599,329,o),
(588,321,o),
(433,321,cs),
(265,321,l),
(265,247,l),
(433,247,ls),
(769,247,o),
(829,280,o),
(829,464,cs),
(829,471,ls),
(829,655,o),
(769,688,o),
(433,688,cs),
(78,688,l),
(78,0,l)
);
}
);
width = 852;
},
{
anchors = (
{
name = bottom;
pos = (293,0);
},
{
name = top;
pos = (293,688);
}
);
layerId = m014;
shapes = (
{
closed = 1;
nodes = (
(182,0,l),
(182,683,l),
(145,678,l),
(307,678,ls),
(456,678,o),
(473,660,o),
(473,500,cs),
(473,467,ls),
(473,307,o),
(456,289,o),
(307,289,cs),
(166,289,l),
(166,279,l),
(307,279,ls),
(518,279,o),
(555,310,o),
(555,480,cs),
(555,487,ls),
(555,657,o),
(518,688,o),
(307,688,cs),
(100,688,l),
(100,0,l)
);
}
);
width = 585;
},
{
anchors = (
{
name = bottom;
pos = (278,0);
},
{
name = top;
pos = (278,688);
}
);
layerId = m015;
shapes = (
{
closed = 1;
nodes = (
(160,0,l),
(160,541,l),
(123,508,l),
(355,508,ls),
(442,508,o),
(451,502,o),
(451,442,cs),
(451,430,ls),
(451,370,o),
(442,364,o),
(355,364,cs),
(144,364,l),
(144,184,l),
(285,184,ls),
(479,184,o),
(533,239,o),
(533,433,cs),
(533,439,ls),
(533,633,o),
(479,688,o),
(285,688,cs),
(78,688,l),
(78,0,l)
);
}
);
width = 556;
},
{
anchors = (
{
name = bottom;
pos = (319,0);
},
{
name = top;
pos = (319,688);
}
);
layerId = m016;
shapes = (
{
closed = 1;
nodes = (
(196,0,l),
(196,642,l),
(152,604,l),
(340,604,ls),
(495,604,o),
(517,589,o),
(517,482,cs),
(517,449,ls),
(517,342,o),
(495,327,o),
(340,327,cs),
(176,327,l),
(176,243,l),
(340,243,ls),
(555,243,o),
(613,289,o),
(613,462,cs),
(613,469,ls),
(613,642,o),
(555,688,o),
(340,688,cs),
(100,688,l),
(100,0,l)
);
}
);
width = 643;
},
{
anchors = (
{
name = bottom;
pos = (283,0);
},
{
name = top;
pos = (283,688);
}
);
layerId = m017;
shapes = (
{
closed = 1;
nodes = (
(172,0,l),
(172,645,l),
(135,614,l),
(297,614,ls),
(453,614,o),
(463,605,o),
(463,485,cs),
(463,450,ls),
(463,330,o),
(453,321,o),
(297,321,cs),
(156,321,l),
(156,247,l),
(297,247,ls),
(508,247,o),
(545,280,o),
(545,464,cs),
(545,471,ls),
(545,655,o),
(508,688,o),
(297,688,cs),
(90,688,l),
(90,0,l)
);
}
);
width = 572;
},
{
anchors = (
{
name = bottom;
pos = (293,0);
},
{
name = top;
pos = (293,688);
}
);
layerId = m018;
shapes = (
{
closed = 1;
nodes = (
(182,0,l),
(182,645,l),
(145,614,l),
(307,614,ls),
(463,614,o),
(473,605,o),
(473,485,cs),
(473,450,ls),
(473,330,o),
(463,321,o),
(307,321,cs),
(166,321,l),
(166,247,l),
(307,247,ls),
(518,247,o),
(555,280,o),
(555,464,cs),
(555,471,ls),
(555,655,o),
(518,688,o),
(307,688,cs),
(100,688,l),
(100,0,l)
);
}
);
width = 585;
}
);
metricLeft = H;
metricRight = "=H*.3";
unicode = 80;
},
{
color = 4;
glyphname = R;
kernLeft = H;
kernRight = P;
layers = (
{
anchors = (
{
name = bottom;
pos = (320,0);
},
{
name = top;
pos = (320,688);
}
);
layerId = m009;
shapes = (
{
closed = 1;
nodes = (
(182,0,l),
(182,645,l),
(145,614,l),
(317,614,ls),
(478,614,o),
(483,610,o),
(483,494,cs),
(483,461,ls),
(483,345,o),
(478,341,o),
(317,341,cs),
(166,341,l),
(166,267,l),
(317,267,ls),
(527,267,o),
(565,298,o),
(565,474,cs),
(565,481,ls),
(565,657,o),
(527,688,o),
(317,688,cs),
(100,688,l),
(100,0,l)
);
},
{
closed = 1;
nodes = (
(575,0,l),
(458,289,l),
(372,289,l),
(486,0,l)
);
}
);
width = 640;
},
{
anchors = (
{
name = bottom;
pos = (192,0);
},
{
name = top;
pos = (192,688);
}
);
layerId = m010;
shapes = (
{
closed = 1;
nodes = (
(132,0,l),
(132,645,l),
(95,614,l),
(167,614,ls),
(250,614,o),
(252,611,o),
(252,494,cs),
(252,461,ls),
(252,344,o),
(250,341,o),
(167,341,cs),
(116,341,l),
(116,267,l),
(157,267,ls),
(304,267,o),
(334,303,o),
(334,474,cs),
(334,481,ls),
(334,652,o),
(304,688,o),
(157,688,cs),
(50,688,l),
(50,0,l)
);
},
{
closed = 1;
nodes = (
(348,0,l),
(256,289,l),
(173,289,l),
(262,0,l)
);
}
);
width = 381;
},
{
anchors = (
{
name = bottom;
pos = (416,0);
},
{
name = top;
pos = (416,688);
}
);
layerId = m011;
shapes = (
{
closed = 1;
nodes = (
(182,0,l),
(182,645,l),
(145,614,l),
(468,614,ls),
(653,614,o),
(669,604,o),
(669,495,cs),
(669,460,ls),
(669,351,o),
(653,341,o),
(468,341,cs),
(171,341,l),
(171,267,l),
(448,267,ls),
(701,267,o),
(751,297,o),
(751,464,cs),
(751,471,ls),
(751,655,o),
(701,688,o),
(448,688,cs),
(100,688,l),
(100,0,l)
);
},
{
closed = 1;
nodes = (
(761,0,l),
(616,294,l),
(528,294,l),
(670,0,l)
);
}
);
width = 826;
},
{
anchors = (
{
name = bottom;
pos = (243,0);
},
{
name = top;
pos = (243,688);
}
);
layerId = m012;
shapes = (
{
closed = 1;
nodes = (
(110,0,l),
(110,645,l),
(106,614,l),
(245,614,ls),
(391,614,o),
(411,599,o),
(411,495,cs),
(411,460,ls),
(411,356,o),
(391,341,o),
(245,341,cs),
(105,341,l),
(105,267,l),
(245,267,ls),
(394,267,o),
(421,298,o),
(421,474,cs),
(421,481,ls),
(421,657,o),
(395,688,o),
(245,688,cs),
(100,688,l),
(100,0,l)
);
},
{
closed = 1;
nodes = (
(421,0,l),
(307,282,l),
(292,288,l),
(408,0,l)
);
}
);
width = 486;
},
{
anchors = (
{
name = bottom;
pos = (450,0);
},
{
name = top;
pos = (450,688);
}
);
layerId = m013;
shapes = (
{
closed = 1;
nodes = (
(308,0,l),
(308,645,l),
(209,614,l),
(443,614,ls),
(598,614,o),
(609,607,o),
(609,495,cs),
(609,460,ls),
(609,348,o),
(598,341,o),
(443,341,cs),
(265,341,l),
(265,267,l),
(443,267,ls),
(779,267,o),
(839,299,o),
(839,474,cs),
(839,481,ls),
(839,657,o),
(779,688,o),
(443,688,cs),
(78,688,l),
(78,0,l)
);
},
{
closed = 1;
nodes = (
(849,0,l),
(702,299,l),
(467,284,l),
(604,0,l)
);
}
);
width = 900;
},
{
anchors = (
{
name = bottom;
pos = (318,0);
},
{
name = top;
pos = (318,688);
}
);
layerId = m014;
shapes = (
{
closed = 1;
nodes = (
(182,0,l),
(182,683,l),
(145,678,l),
(317,678,ls),
(466,678,o),
(483,661,o),
(483,510,cs),
(483,477,ls),
(483,326,o),
(466,309,o),
(317,309,cs),
(166,309,l),
(166,299,l),
(317,299,ls),
(528,299,o),
(565,327,o),
(565,490,cs),
(565,497,ls),
(565,659,o),
(528,688,o),
(317,688,cs),
(100,688,l),
(100,0,l)
);
},
{
closed = 1;
nodes = (
(571,0,l),
(445,311,l),
(362,305,l),
(482,0,l)
);
}
);
width = 636;
},
{
anchors = (
{
name = bottom;
pos = (302,0);
},
{
name = top;
pos = (302,688);
}
);
layerId = m015;
shapes = (
{
closed = 1;
nodes = (
(160,0,l),
(160,541,l),
(123,508,l),
(365,508,ls),
(452,508,o),
(461,502,o),
(461,447,cs),
(461,435,ls),
(461,378,o),
(452,374,o),
(365,374,cs),
(144,374,l),
(144,194,l),
(295,194,ls),
(489,194,o),
(543,248,o),
(543,438,cs),
(543,444,ls),
(543,634,o),
(489,688,o),
(295,688,cs),
(78,688,l),
(78,0,l)
);
},
{
closed = 1;
nodes = (
(553,0,l),
(448,259,l),
(362,259,l),
(464,0,l)
);
}
);
width = 604;
},
{
anchors = (
{
name = bottom;
pos = (319,0);
},
{
name = top;
pos = (319,688);
}
);
layerId = m016;
shapes = (
{
closed = 1;
nodes = (
(182,0,l),
(182,645,l),
(145,614,l),
(317,614,ls),
(473,614,o),
(483,614,o),
(483,494,cs),
(483,461,ls),
(483,341,o),
(473,341,o),
(317,341,cs),
(166,341,l),
(166,267,l),
(317,267,ls),
(528,267,o),
(565,299,o),
(565,474,cs),
(565,481,ls),
(565,656,o),
(528,688,o),
(317,688,cs),
(100,688,l),
(100,0,l)
);
},
{
closed = 1;
nodes = (
(575,0,l),
(458,289,l),
(372,289,l),
(486,0,l)
);
}
);
width = 640;
},
{
anchors = (
{
name = bottom;
pos = (310,0);
},
{
name = top;
pos = (310,688);
}
);
layerId = m017;
shapes = (
{
closed = 1;
nodes = (
(172,0,l),
(172,645,l),
(135,614,l),
(307,614,ls),
(468,614,o),
(473,610,o),
(473,494,cs),
(473,461,ls),
(473,345,o),
(468,341,o),
(307,341,cs),
(156,341,l),
(156,267,l),
(307,267,ls),
(517,267,o),
(555,298,o),
(555,474,cs),
(555,481,ls),
(555,657,o),
(517,688,o),
(307,688,cs),
(90,688,l),
(90,0,l)
);
},
{
closed = 1;
nodes = (
(565,0,l),
(448,289,l),
(362,289,l),
(476,0,l)
);
}
);
width = 624;
},
{
anchors = (
{
name = bottom;
pos = (320,0);
},
{
name = top;
pos = (320,688);
}
);
layerId = m018;
shapes = (
{
closed = 1;
nodes = (
(182,0,l),
(182,645,l),
(145,614,l),
(317,614,ls),
(478,614,o),
(483,610,o),
(483,494,cs),
(483,461,ls),
(483,345,o),
(478,341,o),
(317,341,cs),
(166,341,l),
(166,267,l),
(317,267,ls),
(527,267,o),
(565,298,o),
(565,474,cs),
(565,481,ls),
(565,657,o),
(527,688,o),
(317,688,cs),
(100,688,l),
(100,0,l)
);
},
{
closed = 1;
nodes = (
(575,0,l),
(458,289,l),
(372,289,l),
(486,0,l)
);
}
);
width = 640;
}
);
metricLeft = H;
metricRight = "=H*.65";
unicode = 82;
},
{
color = 4;
glyphname = S;
kernLeft = S;
kernRight = S;
layers = (
{
anchors = (
{
name = bottom;
pos = (318,0);
},
{
name = top;
pos = (318,688);
}
);
background = {
shapes = (
{
closed = 1;
nodes = (
(462,-8,o),
(557,6,o),
(557,196,cs),
(557,246,o),
(553,282,o),
(542,310,cs),
(520,366,o),
(472,377,o),
(401,384,cs),
(234,403,ls),
(159,411,o),
(149,426,o),
(149,506,cs),
(149,550,o),
(152,581,o),
(182,599,cs),
(208,615,o),
(251,622,o),
(325,622,cs),
(387,622,o),
(470,617,o),
(522,609,c),
(522,680,l),
(475,689,o),
(386,696,o),
(309,696,cs),
(154,696,o),
(63,671,o),
(63,504,cs),
(63,400,o),
(79,336,o),
(208,322,cs),
(378,303,ls),
(465,294,o),
(470,281,o),
(470,190,cs),
(470,144,o),
(467,106,o),
(438,88,cs),
(408,71,o),
(369,66,o),
(299,66,cs),
(245,66,o),
(153,72,o),
(83,79,c),
(83,6,l),
(150,-2,o),
(250,-8,o),
(324,-8,cs)
);
}
);
};
layerId = m009;
shapes = (
{
closed = 1;
nodes = (
(508,-8,o),
(565,41,o),
(565,198,cs),
(565,319,o),
(529,363,o),
(418,375,cs),
(236,395,ls),
(166,404,o),
(153,420,o),
(153,494,cs),
(153,601,o),
(178,622,o),
(309,622,cs),
(382,622,o),
(472,615,o),
(537,605,c),
(537,677,l),
(458,688,o),
(369,696,o),
(313,696,cs),
(130,696,o),
(71,648,o),
(71,496,cs),
(71,377,o),
(110,330,o),
(216,319,cs),
(398,299,ls),
(473,289,o),
(483,278,o),
(483,198,cs),
(483,88,o),
(456,66,o),
(325,66,cs),
(246,66,o),
(148,73,o),
(77,83,c),
(77,11,l),
(165,-1,o),
(262,-8,o),
(323,-8,cs)
);
}
);
width = 636;
},
{
anchors = (
{
name = bottom;
pos = (180,0);
},
{
name = top;
pos = (180,688);
}
);
layerId = m010;
shapes = (
{
closed = 1;
nodes = (
(292,-8,o),
(327,40,o),
(327,198,cs),
(327,339,o),
(304,380,o),
(220,389,cs),
(156,396,ls),
(119,400,o),
(115,409,o),
(115,494,cs),
(115,601,o),
(127,622,o),
(190,622,cs),
(225,622,o),
(269,615,o),
(299,605,c),
(299,677,l),
(264,688,o),
(218,696,o),
(185,696,cs),
(79,696,o),
(33,635,o),
(33,496,cs),
(33,365,o),
(54,329,o),
(138,320,cs),
(202,313,ls),
(241,309,o),
(245,297,o),
(245,198,cs),
(245,89,o),
(231,66,o),
(165,66,cs),
(126,66,o),
(76,73,o),
(39,83,c),
(39,11,l),
(84,-1,o),
(138,-8,o),
(175,-8,cs)
);
}
);
width = 360;
},
{
anchors = (
{
name = bottom;
pos = (382,0);
},
{
name = top;
pos = (382,688);
}
);
layerId = m011;
shapes = (
{
closed = 1;
nodes = (
(626,-8,o),
(699,39,o),
(699,193,cs),
(699,314,o),
(663,358,o),
(552,370,cs),
(230,400,ls),
(161,409,o),
(147,425,o),
(147,499,cs),
(147,601,o),
(185,622,o),
(373,622,cs),
(465,622,o),
(583,615,o),
(671,605,c),
(671,677,l),
(565,689,o),
(450,696,o),
(377,696,cs),
(139,696,o),
(65,650,o),
(65,501,cs),
(65,382,o),
(104,335,o),
(210,324,cs),
(532,294,ls),
(608,283,o),
(617,272,o),
(617,193,cs),
(617,88,o),
(578,66,o),
(389,66,cs),
(291,66,o),
(165,73,o),
(71,83,c),
(71,11,l),
(187,-1,o),
(310,-8,o),
(387,-8,cs)
);
}
);
width = 764;
},
{
anchors = (
{
name = bottom;
pos = (246,0);
},
{
name = top;
pos = (246,688);
}
);
layerId = m012;
shapes = (
{
closed = 1;
nodes = (
(381,-8,o),
(421,41,o),
(421,198,cs),
(421,314,o),
(406,335,o),
(320,344,cs),
(180,359,ls),
(96,369,o),
(81,389,o),
(81,494,cs),
(81,601,o),
(106,622,o),
(237,622,cs),
(283,622,o),
(345,615,o),
(393,605,c),
(393,677,l),
(342,689,o),
(283,696,o),
(241,696,cs),
(112,696,o),
(71,648,o),
(71,496,cs),
(71,387,o),
(90,359,o),
(170,350,cs),
(310,335,ls),
(400,324,o),
(411,309,o),
(411,198,cs),
(411,88,o),
(384,66,o),
(253,66,cs),
(201,66,o),
(131,73,o),
(77,83,c),
(77,11,l),
(145,-1,o),
(212,-8,o),
(251,-8,cs)
);
}
);
width = 492;
},
{
anchors = (
{
name = bottom;
pos = (426,0);
},
{
name = top;
pos = (426,688);
}
);
layerId = m013;
shapes = (
{
closed = 1;
nodes = (
(712,-8,o),
(796,32,o),
(796,198,cs),
(796,329,o),
(742,370,o),
(520,396,cs),
(364,414,ls),
(306,421,o),
(286,446,o),
(286,505,cs),
(286,603,o),
(319,622,o),
(487,622,cs),
(571,622,o),
(683,615,o),
(770,605,c),
(770,677,l),
(675,688,o),
(564,696,o),
(491,696,cs),
(140,696,o),
(56,657,o),
(56,496,cs),
(56,358,o),
(109,314,o),
(330,288,cs),
(486,270,ls),
(547,263,o),
(566,244,o),
(566,190,cs),
(566,86,o),
(532,66,o),
(359,66,cs),
(271,66,o),
(153,73,o),
(62,83,c),
(62,11,l),
(164,-1,o),
(282,-8,o),
(361,-8,cs)
);
}
);
width = 852;
},
{
anchors = (
{
name = bottom;
pos = (318,0);
},
{
name = top;
pos = (318,688);
}
);
layerId = m014;
shapes = (
{
closed = 1;
nodes = (
(507,-8,o),
(565,36,o),
(565,178,cs),
(565,314,o),
(528,363,o),
(418,375,cs),
(236,395,ls),
(162,404,o),
(153,417,o),
(153,516,cs),
(153,647,o),
(189,686,o),
(309,686,cs),
(378,686,o),
(468,679,o),
(537,669,c),
(537,677,l),
(458,688,o),
(369,696,o),
(313,696,cs),
(130,696,o),
(71,652,o),
(71,516,cs),
(71,383,o),
(110,331,o),
(216,319,cs),
(398,299,ls),
(475,291,o),
(483,278,o),
(483,176,cs),
(483,43,o),
(445,2,o),
(325,2,cs),
(250,2,o),
(152,9,o),
(77,19,c),
(77,11,l),
(165,-1,o),
(262,-8,o),
(323,-8,cs)
);
}
);
width = 636;
},
{
anchors = (
{
name = bottom;
pos = (303,0);
},
{
name = top;
pos = (303,688);
}
);
layerId = m015;
shapes = (
{
closed = 1;
nodes = (
(493,-8,o),
(550,45,o),
(550,218,cs),
(550,346,o),
(514,392,o),
(403,405,cs),
(221,425,ls),
(152,433,o),
(138,441,o),
(138,471,cs),
(138,509,o),
(163,516,o),
(294,516,cs),
(359,516,o),
(449,509,o),
(522,499,c),
(522,677,l),
(443,688,o),
(354,696,o),
(298,696,cs),
(114,696,o),
(56,643,o),
(56,476,cs),
(56,352,o),
(94,302,o),
(201,289,cs),
(383,269,ls),
(456,261,o),
(468,254,o),
(468,221,cs),
(468,180,o),
(442,172,o),
(310,172,cs),
(239,172,o),
(141,179,o),
(62,189,c),
(62,11,l),
(150,-1,o),
(247,-8,o),
(308,-8,cs)
);
}
);
width = 606;
},
{
anchors = (
{
name = bottom;
pos = (318,0);
},
{
name = top;
pos = (318,688);
}
);
layerId = m016;
shapes = (
{
closed = 1;
nodes = (
(508,-8,o),
(565,41,o),
(565,198,cs),
(565,319,o),
(529,363,o),
(418,375,cs),
(236,395,ls),
(166,404,o),
(153,420,o),
(153,494,cs),
(153,601,o),
(178,622,o),
(309,622,cs),
(382,622,o),
(472,615,o),
(537,605,c),
(537,677,l),
(458,688,o),
(369,696,o),
(313,696,cs),
(130,696,o),
(71,648,o),
(71,496,cs),
(71,377,o),
(110,330,o),
(216,319,cs),
(398,299,ls),
(473,289,o),
(483,278,o),
(483,198,cs),
(483,88,o),
(456,66,o),
(325,66,cs),
(246,66,o),
(148,73,o),
(77,83,c),
(77,11,l),
(165,-1,o),
(262,-8,o),
(323,-8,cs)
);
}
);
width = 636;
},
{
anchors = (
{
name = bottom;
pos = (309,0);
},
{
name = top;
pos = (309,688);
}
);
layerId = m017;
shapes = (
{
closed = 1;
nodes = (
(499,-8,o),
(556,41,o),
(556,198,cs),
(556,319,o),
(520,363,o),
(409,375,cs),
(227,395,ls),
(157,404,o),
(144,420,o),
(144,494,cs),
(144,601,o),
(169,622,o),
(300,622,cs),
(373,622,o),
(463,615,o),
(528,605,c),
(528,677,l),
(449,688,o),
(360,696,o),
(304,696,cs),
(121,696,o),
(62,648,o),
(62,496,cs),
(62,377,o),
(101,330,o),
(207,319,cs),
(389,299,ls),
(464,289,o),
(474,278,o),
(474,198,cs),
(474,88,o),
(447,66,o),
(316,66,cs),
(237,66,o),
(139,73,o),
(68,83,c),
(68,11,l),
(156,-1,o),
(253,-8,o),
(314,-8,cs)
);
}
);
width = 618;
},
{
anchors = (
{
name = bottom;
pos = (318,0);
},
{
name = top;
pos = (318,688);
}
);
background = {
shapes = (
{
closed = 1;
nodes = (
(462,-8,o),
(557,6,o),
(557,196,cs),
(557,246,o),
(553,282,o),
(542,310,cs),
(520,366,o),
(472,377,o),
(401,384,cs),
(234,403,ls),
(159,411,o),
(149,426,o),
(149,506,cs),
(149,550,o),
(152,581,o),
(182,599,cs),
(208,615,o),
(251,622,o),
(325,622,cs),
(387,622,o),
(470,617,o),
(522,609,c),
(522,680,l),
(475,689,o),
(386,696,o),
(309,696,cs),
(154,696,o),
(63,671,o),
(63,504,cs),
(63,400,o),
(79,336,o),
(208,322,cs),
(378,303,ls),
(465,294,o),
(470,281,o),
(470,190,cs),
(470,144,o),
(467,106,o),
(438,88,cs),
(408,71,o),
(369,66,o),
(299,66,cs),
(245,66,o),
(153,72,o),
(83,79,c),
(83,6,l),
(150,-2,o),
(250,-8,o),
(324,-8,cs)
);
}
);
};
layerId = m018;
shapes = (
{
closed = 1;
nodes = (
(508,-8,o),
(565,41,o),
(565,198,cs),
(565,319,o),
(529,363,o),
(418,375,cs),
(236,395,ls),
(166,404,o),
(153,420,o),
(153,494,cs),
(153,601,o),
(178,622,o),
(309,622,cs),
(382,622,o),
(472,615,o),
(537,605,c),
(537,677,l),
(458,688,o),
(369,696,o),
(313,696,cs),
(130,696,o),
(71,648,o),
(71,496,cs),
(71,377,o),
(110,330,o),
(216,319,cs),
(398,299,ls),
(473,289,o),
(483,278,o),
(483,198,cs),
(483,88,o),
(456,66,o),
(325,66,cs),
(246,66,o),
(148,73,o),
(77,83,c),
(77,11,l),
(165,-1,o),
(262,-8,o),
(323,-8,cs)
);
}
);
width = 636;
}
);
metricLeft = "=O*.93";
metricRight = "=|";
unicode = 83;
},
{
color = 4;
glyphname = T;
kernLeft = T;
kernRight = T;
layers = (
{
anchors = (
{
name = bottom;
pos = (261,0);
},
{
name = center;
pos = (261,344);
},
{
name = top;
pos = (261,688);
}
);
layerId = m009;
shapes = (
{
closed = 1;
nodes = (
(302,0,l),
(302,649,l),
(267,612,l),
(512,612,l),
(512,688,l),
(10,688,l),
(10,612,l),
(255,612,l),
(220,649,l),
(220,0,l)
);
}
);
width = 522;
},
{
anchors = (
{
name = bottom;
pos = (151,0);
},
{
name = center;
pos = (151,344);
},
{
name = top;
pos = (151,688);
}
);
layerId = m010;
shapes = (
{
closed = 1;
nodes = (
(192,0,l),
(192,649,l),
(157,612,l),
(297,612,l),
(297,688,l),
(5,688,l),
(5,612,l),
(145,612,l),
(110,649,l),
(110,0,l)
);
}
);
width = 302;
},
{
anchors = (
{
name = bottom;
pos = (315,0);
},
{
name = center;
pos = (315,344);
},
{
name = top;
pos = (315,688);
}
);
layerId = m011;
shapes = (
{
closed = 1;
nodes = (
(356,0,l),
(356,649,l),
(321,612,l),
(620,612,l),
(620,688,l),
(10,688,l),
(10,612,l),
(309,612,l),
(274,649,l),
(274,0,l)
);
}
);
width = 630;
},
{
anchors = (
{
name = bottom;
pos = (205,0);
},
{
name = center;
pos = (205,344);
},
{
name = top;
pos = (205,688);
}
);
layerId = m012;
shapes = (
{
closed = 1;
nodes = (
(210,0,l),
(210,649,l),
(206,612,l),
(400,612,l),
(400,688,l),
(10,688,l),
(10,612,l),
(204,612,l),
(200,649,l),
(200,0,l)
);
}
);
width = 410;
},
{
anchors = (
{
name = bottom;
pos = (333,0);
},
{
name = center;
pos = (333,344);
},
{
name = top;
pos = (333,688);
}
);
layerId = m013;
shapes = (
{
closed = 1;
nodes = (
(448,0,l),
(448,649,l),
(349,612,l),
(658,612,l),
(658,688,l),
(8,688,l),
(8,612,l),
(317,612,l),
(218,649,l),
(218,0,l)
);
}
);
width = 666;
},
{
anchors = (
{
name = bottom;
pos = (241,0);
},
{
name = center;
pos = (241,344);
},
{
name = top;
pos = (241,688);
}
);
layerId = m014;
shapes = (
{
closed = 1;
nodes = (
(282,0,l),
(282,683,l),
(247,678,l),
(472,678,l),
(472,688,l),
(10,688,l),
(10,678,l),
(235,678,l),
(200,683,l),
(200,0,l)
);
}
);
width = 482;
},
{
anchors = (
{
name = bottom;
pos = (259,0);
},
{
name = center;
pos = (259,344);
},
{
name = top;
pos = (259,688);
}
);
layerId = m015;
shapes = (
{
closed = 1;
nodes = (
(300,0,l),
(300,585,l),
(265,508,l),
(510,508,l),
(510,688,l),
(8,688,l),
(8,508,l),
(253,508,l),
(218,585,l),
(218,0,l)
);
}
);
width = 518;
},
{
anchors = (
{
name = bottom;
pos = (261,0);
},
{
name = center;
pos = (261,344);
},
{
name = top;
pos = (261,688);
}
);
layerId = m016;
shapes = (
{
closed = 1;
nodes = (
(304,0,l),
(304,649,l),
(267,612,l),
(512,612,l),
(512,688,l),
(10,688,l),
(10,612,l),
(255,612,l),
(218,649,l),
(218,0,l)
);
}
);
width = 522;
},
{
anchors = (
{
name = bottom;
pos = (260,0);
},
{
name = center;
pos = (260,344);
},
{
name = top;
pos = (260,688);
}
);
layerId = m017;
shapes = (
{
closed = 1;
nodes = (
(301,0,l),
(301,649,l),
(266,612,l),
(511,612,l),
(511,688,l),
(9,688,l),
(9,612,l),
(254,612,l),
(219,649,l),
(219,0,l)
);
}
);
width = 520;
},
{
anchors = (
{
name = bottom;
pos = (261,0);
},
{
name = center;
pos = (261,344);
},
{
name = top;
pos = (261,688);
}
);
layerId = m018;
shapes = (
{
closed = 1;
nodes = (
(302,0,l),
(302,649,l),
(267,612,l),
(512,612,l),
(512,688,l),
(10,688,l),
(10,612,l),
(255,612,l),
(220,649,l),
(220,0,l)
);
}
);
width = 522;
}
);
metricLeft = "=H*.10";
metricRight = "=|";
unicode = 84;
userData = {
com.typespan.data.v1 = {
masters = {
m012 = {
track_data = {
"2026-04-23" = {
"17" = 0.92554;
};
};
};
};
};
};
},
{
color = 4;
glyphname = U;
kernLeft = O;
kernRight = O;
layers = (
{
anchors = (
{
name = bottom;
pos = (352,0);
},
{
name = ogonek;
pos = (634,10);
},
{
name = top;
pos = (352,688);
},
{
name = topright;
pos = (684,688);
}
);
layerId = m009;
shapes = (
{
closed = 1;
nodes = (
(570,-8,o),
(609,50,o),
(609,326,cs),
(609,688,l),
(527,688,l),
(527,297,ls),
(527,91,o),
(515,68,o),
(352,68,cs),
(189,68,o),
(177,91,o),
(177,297,cs),
(177,688,l),
(95,688,l),
(95,326,ls),
(95,51,o),
(134,-8,o),
(352,-8,cs)
);
}
);
width = 704;
},
{
anchors = (
{
name = bottom;
pos = (190,0);
},
{
name = ogonek;
pos = (334,10);
},
{
name = top;
pos = (190,688);
},
{
name = topright;
pos = (350,688);
}
);
layerId = m010;
shapes = (
{
closed = 1;
nodes = (
(304,-8,o),
(332,38,o),
(332,216,cs),
(332,688,l),
(250,688,l),
(250,187,ls),
(250,78,o),
(245,68,o),
(190,68,cs),
(135,68,o),
(130,78,o),
(130,187,cs),
(130,688,l),
(48,688,l),
(48,216,ls),
(48,38,o),
(76,-8,o),
(190,-8,cs)
);
}
);
width = 380;
},
{
anchors = (
{
name = bottom;
pos = (437,0);
},
{
name = ogonek;
pos = (775,10);
},
{
name = top;
pos = (437,688);
},
{
name = topright;
pos = (839,688);
}
);
layerId = m011;
shapes = (
{
closed = 1;
nodes = (
(726,-8,o),
(779,43,o),
(779,326,cs),
(779,688,l),
(697,688,l),
(697,297,ls),
(697,89,o),
(672,68,o),
(437,68,cs),
(202,68,o),
(177,89,o),
(177,297,cs),
(177,688,l),
(95,688,l),
(95,326,ls),
(95,43,o),
(148,-8,o),
(437,-8,cs)
);
}
);
width = 874;
},
{
anchors = (
{
name = bottom;
pos = (316,0);
},
{
name = ogonek;
pos = (569,10);
},
{
name = top;
pos = (316,688);
},
{
name = topright;
pos = (612,688);
}
);
layerId = m012;
shapes = (
{
closed = 1;
nodes = (
(486,-8,o),
(537,65,o),
(537,326,cs),
(537,688,l),
(455,688,l),
(455,297,ls),
(455,98,o),
(432,68,o),
(280,68,cs),
(132,68,o),
(105,103,o),
(105,297,cs),
(105,688,l),
(95,688,l),
(95,301,ls),
(95,49,o),
(134,-8,o),
(306,-8,cs)
);
}
);
width = 632;
},
{
anchors = (
{
name = bottom;
pos = (405,0);
},
{
name = ogonek;
pos = (729,10);
},
{
name = top;
pos = (405,688);
},
{
name = topright;
pos = (790,688);
}
);
background = {
shapes = (
{
closed = 1;
nodes = (
(670,-8,o),
(736,65,o),
(736,356,cs),
(736,688,l),
(654,688,l),
(654,328,ls),
(654,117,o),
(616,68,o),
(452,68,cs),
(329,68,o),
(304,113,o),
(304,328,cs),
(304,688,l),
(74,688,l),
(74,356,ls),
(74,65,o),
(141,-8,o),
(406,-8,cs)
);
}
);
};
layerId = m013;
shapes = (
{
closed = 1;
nodes = (
(664,-8,o),
(736,65,o),
(736,326,cs),
(736,688,l),
(654,688,l),
(654,297,ls),
(654,111,o),
(621,68,o),
(479,68,cs),
(334,68,o),
(304,107,o),
(304,297,cs),
(304,688,l),
(74,688,l),
(74,378,ls),
(74,76,o),
(147,-8,o),
(405,-8,cs)
);
}
);
width = 810;
},
{
anchors = (
{
name = bottom;
pos = (316,0);
},
{
name = ogonek;
pos = (569,10);
},
{
name = top;
pos = (316,688);
},
{
name = topright;
pos = (612,688);
}
);
layerId = m014;
shapes = (
{
closed = 1;
nodes = (
(496,-8,o),
(537,53,o),
(537,326,cs),
(537,688,l),
(527,688,l),
(527,322,ls),
(527,75,o),
(487,2,o),
(352,2,cs),
(208,2,o),
(177,54,o),
(177,297,cs),
(177,688,l),
(95,688,l),
(95,326,ls),
(95,66,o),
(144,-8,o),
(316,-8,cs)
);
}
);
width = 632;
},
{
anchors = (
{
name = bottom;
pos = (375,0);
},
{
name = ogonek;
pos = (681,10);
},
{
name = top;
pos = (375,688);
},
{
name = topright;
pos = (738,688);
}
);
layerId = m016;
shapes = (
{
closed = 1;
nodes = (
(598,-8,o),
(654,59,o),
(654,327,cs),
(654,688,l),
(559,688,l),
(559,299,ls),
(559,107,o),
(534,77,o),
(374,77,cs),
(215,77,o),
(190,107,o),
(190,299,cs),
(190,688,l),
(95,688,l),
(95,327,ls),
(95,59,o),
(151,-8,o),
(374,-8,cs)
);
}
);
width = 749;
},
{
anchors = (
{
name = bottom;
pos = (405,0);
},
{
name = ogonek;
pos = (729,10);
},
{
name = top;
pos = (405,688);
},
{
name = topright;
pos = (790,688);
}
);
background = {
shapes = (
{
closed = 0;
nodes = (
(736,378,ls),
(736,688,l),
(506,688,l),
(506,297,ls)
);
}
);
};
layerId = m015;
name = "YOPQ-max - 212";
shapes = (
{
closed = 1;
nodes = (
(657,-8,o),
(736,91,o),
(736,403,cs),
(736,688,l),
(506,688,l),
(506,323,ls),
(506,192,o),
(483,172,o),
(331,172,cs),
(179,172,o),
(156,203,o),
(156,403,cs),
(156,688,l),
(74,688,l),
(74,432,ls),
(74,79,o),
(140,-8,o),
(405,-8,cs)
);
}
);
width = 810;
},
{
anchors = (
{
name = bottom;
pos = (343,0);
},
{
name = ogonek;
pos = (625,10);
},
{
name = top;
pos = (343,688);
},
{
name = topright;
pos = (675,688);
}
);
layerId = m017;
shapes = (
{
closed = 1;
nodes = (
(561,-8,o),
(600,50,o),
(600,326,cs),
(600,688,l),
(518,688,l),
(518,297,ls),
(518,91,o),
(506,68,o),
(343,68,cs),
(180,68,o),
(168,91,o),
(168,297,cs),
(168,688,l),
(86,688,l),
(86,326,ls),
(86,51,o),
(125,-8,o),
(343,-8,cs)
);
}
);
width = 686;
},
{
anchors = (
{
name = bottom;
pos = (352,0);
},
{
name = ogonek;
pos = (634,10);
},
{
name = top;
pos = (352,688);
},
{
name = topright;
pos = (684,688);
}
);
layerId = m018;
shapes = (
{
closed = 1;
nodes = (
(570,-8,o),
(609,50,o),
(609,326,cs),
(609,688,l),
(527,688,l),
(527,297,ls),
(527,91,o),
(515,68,o),
(352,68,cs),
(189,68,o),
(177,91,o),
(177,297,cs),
(177,688,l),
(95,688,l),
(95,326,ls),
(95,51,o),
(134,-8,o),
(352,-8,cs)
);
}
);
width = 704;
}
);
metricLeft = "=H*.95";
metricRight = "=|";
unicode = 85;
userData = {
com.typespan.data.v1 = {
masters = {
m012 = {
track_data = {
};
};
};
};
};
},
{
color = 4;
glyphname = V;
kernLeft = A;
kernRight = A;
layers = (
{
layerId = m009;
shapes = (
{
closed = 1;
nodes = (
(342,0,l),
(568,688,l),
(482,688,l),
(292,102,l),
(286,102,l),
(96,688,l),
(10,688,l),
(236,0,l)
);
}
);
width = 578;
},
{
layerId = m010;
shapes = (
{
closed = 1;
nodes = (
(202,0,l),
(281,688,l),
(198,688,l),
(145,103,l),
(141,103,l),
(88,688,l),
(5,688,l),
(84,0,l)
);
}
);
width = 286;
},
{
layerId = m011;
shapes = (
{
closed = 1;
nodes = (
(420,0,l),
(734,688,l),
(644,688,l),
(374,93,l),
(370,93,l),
(100,688,l),
(10,688,l),
(324,0,l)
);
}
);
width = 744;
},
{
background = {
anchors = (
{
name = bottom;
pos = (144,0);
},
{
name = top;
pos = (144,688);
}
);
shapes = (
{
closed = 1;
nodes = (
(166,0,l),
(427,688,l),
(340,688,l),
(111,76,l),
(105,76,l),
(-121,688,l),
(-132,688,l),
(122,0,l)
);
}
);
};
layerId = m012;
shapes = (
{
closed = 1;
nodes = (
(288,0,l),
(498,688,l),
(412,688,l),
(224,58,l),
(218,58,l),
(21,688,l),
(10,688,l),
(226,0,l)
);
}
);
width = 508;
},
{
layerId = m013;
shapes = (
{
closed = 1;
nodes = (
(478,0,l),
(714,688,l),
(627,688,l),
(437,128,l),
(431,128,l),
(241,688,l),
(8,688,l),
(244,0,l)
);
}
);
width = 722;
},
{
background = {
shapes = (
{
closed = 1;
nodes = (
(272,0,l),
(498,688,l),
(487,688,l),
(290,88,l),
(284,88,l),
(96,688,l),
(10,688,l),
(234,0,l)
);
}
);
};
layerId = m014;
shapes = (
{
closed = 1;
nodes = (
(282,0,l),
(498,688,l),
(487,688,l),
(290,58,l),
(284,58,l),
(96,688,l),
(10,688,l),
(220,0,l)
);
}
);
width = 508;
},
{
layerId = m015;
shapes = (
{
closed = 1;
nodes = (
(478,0,l),
(714,688,l),
(481,688,l),
(291,128,l),
(285,128,l),
(95,688,l),
(8,688,l),
(244,0,l)
);
}
);
width = 722;
},
{
layerId = m016;
shapes = (
{
closed = 1;
nodes = (
(342,0,l),
(568,688,l),
(482,688,l),
(292,88,l),
(286,88,l),
(96,688,l),
(10,688,l),
(236,0,l)
);
}
);
width = 578;
},
{
layerId = m017;
shapes = (
{
closed = 1;
nodes = (
(341,0,l),
(567,688,l),
(481,688,l),
(291,88,l),
(285,88,l),
(95,688,l),
(9,688,l),
(235,0,l)
);
}
);
width = 576;
},
{
layerId = m018;
shapes = (
{
closed = 1;
nodes = (
(342,0,l),
(568,688,l),
(482,688,l),
(292,88,l),
(286,88,l),
(96,688,l),
(10,688,l),
(236,0,l)
);
}
);
width = 578;
}
);
metricLeft = "=H*.10";
metricRight = "=|";
unicode = 86;
userData = {
com.typespan.data.v1 = {
masters = {
m009 = {
track_data = {
"2026-04-21" = {
"15" = 4.21064;
};
"2026-04-23" = {
"14" = 172.80265;
"15" = 36.63591;
"16" = 23.51624;
"17" = 11.70167;
};
"2026-04-27" = {
"12" = 63.50905;
};
};
};
m010 = {
track_data = {
"2026-04-21" = {
"10" = 8.22579;
};
"2026-04-23" = {
"14" = 68.20443;
"16" = 15.48798;
"17" = 57.90045;
};
"2026-04-27" = {
"12" = 80.98009;
};
};
};
m011 = {
track_data = {
"2026-04-23" = {
"14" = 59.85353;
"16" = 0.26401;
"17" = 4.22526;
};
"2026-04-27" = {
"12" = 108.92025;
};
};
};
m012 = {
track_data = {
"2026-04-23" = {
"14" = 133.07078;
"15" = 11.41872;
"16" = 170.63426;
"17" = 61.60808;
};
"2026-04-27" = {
"12" = 75.88376;
};
};
};
m013 = {
track_data = {
"2026-04-23" = {
"14" = 183.48902;
"15" = 17.92607;
"16" = 0.79369;
"17" = 36.23896;
};
"2026-04-27" = {
"12" = 2.15486;
};
};
};
m014 = {
track_data = {
"2026-04-23" = {
"14" = 29.26245;
"16" = 8.06072;
"17" = 7.49446;
};
"2026-04-27" = {
"12" = 11.63909;
};
};
};
m015 = {
track_data = {
"2026-04-23" = {
"14" = 13.18458;
"17" = 16.99519;
};
};
};
m016 = {
track_data = {
"2026-04-23" = {
"14" = 8.94094;
};
};
};
m017 = {
track_data = {
"2026-04-23" = {
"14" = 9.58121;
"17" = 0.83794;
};
};
};
m018 = {
track_data = {
"2026-04-23" = {
"14" = 29.21266;
"16" = 19.90779;
"17" = 39.96055;
};
};
};
};
};
};
},
{
color = 4;
glyphname = W;
kernLeft = A;
kernRight = A;
layers = (
{
layerId = m009;
shapes = (
{
closed = 1;
nodes = (
(262,0,l),
(356,583,l),
(450,0,l),
(573,0,l),
(702,688,l),
(620,688,l),
(513,103,l),
(509,103,l),
(414,688,l),
(298,688,l),
(203,103,l),
(199,103,l),
(92,688,l),
(10,688,l),
(139,0,l)
);
}
);
width = 712;
},
{
layerId = m010;
shapes = (
{
closed = 1;
nodes = (
(166,0,l),
(192,555,l),
(218,0,l),
(335,0,l),
(379,688,l),
(296,688,l),
(274,103,l),
(270,103,l),
(243,688,l),
(141,688,l),
(114,103,l),
(110,103,l),
(88,688,l),
(5,688,l),
(49,0,l)
);
}
);
width = 384;
},
{
layerId = m011;
shapes = (
{
closed = 1;
nodes = (
(286,0,l),
(452,613,l),
(618,0,l),
(718,0,l),
(894,688,l),
(812,688,l),
(666,108,l),
(662,108,l),
(506,688,l),
(398,688,l),
(242,108,l),
(238,108,l),
(92,688,l),
(10,688,l),
(186,0,l)
);
}
);
width = 904;
},
{
layerId = m012;
shapes = (
{
closed = 1;
nodes = (
(205,0,l),
(300,627,l),
(397,0,l),
(473,0,l),
(592,688,l),
(510,688,l),
(405,56,l),
(400,56,l),
(301,688,l),
(229,688,l),
(134,56,l),
(129,56,l),
(20,688,l),
(10,688,l),
(129,0,l)
);
}
);
width = 602;
},
{
layerId = m013;
shapes = (
{
closed = 1;
nodes = (
(340,0,l),
(428,466,l),
(498,0,l),
(721,0,l),
(830,688,l),
(749,688,l),
(668,147,l),
(664,147,l),
(583,688,l),
(395,688,l),
(298,147,l),
(294,147,l),
(229,688,l),
(8,688,l),
(117,0,l)
);
}
);
width = 838;
},
{
layerId = m014;
shapes = (
{
closed = 1;
nodes = (
(205,0,l),
(302,627,l),
(397,0,l),
(473,0,l),
(592,688,l),
(582,688,l),
(473,56,l),
(468,56,l),
(373,688,l),
(301,688,l),
(202,56,l),
(197,56,l),
(92,688,l),
(10,688,l),
(129,0,l)
);
}
);
width = 602;
},
{
background = {
shapes = (
{
closed = 1;
nodes = (
(310,0,l),
(421,509,l),
(538,0,l),
(778,0,l),
(929,688,l),
(708,688,l),
(590,128,l),
(586,128,l),
(457,688,l),
(240,688,l),
(122,128,l),
(118,128,l),
(-11,688,l),
(-88,688,l),
(70,0,l)
);
}
);
};
layerId = m015;
shapes = (
{
closed = 1;
nodes = (
(340,0,l),
(410,466,l),
(498,0,l),
(721,0,l),
(830,688,l),
(609,688,l),
(544,147,l),
(540,147,l),
(443,688,l),
(255,688,l),
(174,147,l),
(170,147,l),
(89,688,l),
(8,688,l),
(117,0,l)
);
}
);
width = 838;
},
{
layerId = m016;
shapes = (
{
closed = 1;
nodes = (
(258,0,l),
(356,583,l),
(454,0,l),
(573,0,l),
(702,688,l),
(620,688,l),
(517,103,l),
(513,103,l),
(414,688,l),
(298,688,l),
(199,103,l),
(195,103,l),
(92,688,l),
(10,688,l),
(139,0,l)
);
}
);
width = 712;
},
{
layerId = m017;
shapes = (
{
closed = 1;
nodes = (
(257,0,l),
(355,583,l),
(453,0,l),
(572,0,l),
(701,688,l),
(619,688,l),
(516,103,l),
(512,103,l),
(413,688,l),
(297,688,l),
(198,103,l),
(194,103,l),
(91,688,l),
(9,688,l),
(138,0,l)
);
}
);
width = 710;
},
{
layerId = m018;
shapes = (
{
closed = 1;
nodes = (
(307,0,l),
(442,593,l),
(576,0,l),
(676,0,l),
(874,688,l),
(790,688,l),
(624,108,l),
(620,108,l),
(490,688,l),
(394,688,l),
(263,108,l),
(259,108,l),
(94,688,l),
(10,688,l),
(207,0,l)
);
}
);
width = 884;
}
);
metricLeft = "=H*.10";
metricRight = "=|";
unicode = 87;
userData = {
com.typespan.data.v1 = {
masters = {
"012BA043-702D-495A-8F59-5B92BD9EF877" = {
track_data = {
"2026-04-21" = {
"21" = 0.55047;
};
};
};
"01D6653B-8400-4FD7-AFA0-145425155DB8" = {
track_data = {
"2026-04-21" = {
"21" = 0.04996;
};
};
};
"01FE7FD4-FB4D-494C-B865-C9618DBB85E0" = {
track_data = {
"2026-04-21" = {
"21" = 0.03407;
};
};
};
"027E756A-8C9A-4AB3-A2DE-6E6D301AC9A1" = {
track_data = {
"2026-04-21" = {
"21" = 0.31754;
};
};
};
"099D79F7-CA7D-4912-9D95-CA748F9A9BC2" = {
track_data = {
"2026-04-21" = {
"21" = 0.01645;
};
};
};
"09DCC71A-ADB4-45C4-AC60-CB50C77D7E32" = {
track_data = {
"2026-04-21" = {
"21" = 0.11487;
};
};
};
"11C70CAF-772B-49B5-8B17-595177B84692" = {
track_data = {
"2026-04-21" = {
"21" = 0.1337;
};
};
};
"1B6C3D3F-AC6F-43BF-AA05-2B19D8DE3EB4" = {
track_data = {
"2026-04-21" = {
"21" = 0.08246;
};
};
};
"1CBF3786-0AA2-4597-8440-5EFD0C3ECC3D" = {
track_data = {
"2026-04-21" = {
"21" = 0.11639;
};
};
};
"1DEE16B4-FC66-4C4C-9B4B-2C0183C24481" = {
track_data = {
"2026-04-21" = {
"21" = 0.13346;
};
};
};
"21DD4F4C-B5DE-4292-B958-282D35485658" = {
track_data = {
"2026-04-21" = {
"21" = 0.41258;
};
};
};
"223D7E8E-DC2F-4D52-98CE-B0E86C77EC53" = {
track_data = {
"2026-04-21" = {
"21" = 0.11647;
};
};
};
"2A1A5069-6365-4376-B29A-7C9FBBFE18E7" = {
track_data = {
"2026-04-21" = {
"21" = 0.47152;
};
};
};
"2B29617D-1298-4ED2-B1B4-7A0E7FAF4CDA" = {
track_data = {
"2026-04-21" = {
"21" = 0.11379;
};
};
};
"2BF7284D-0FF1-449B-895A-41F55359E923" = {
track_data = {
"2026-04-21" = {
"21" = 0.1173;
};
};
};
"33574681-E013-42D2-AD0C-E384E956F6E2" = {
track_data = {
"2026-04-21" = {
"21" = 0.09887;
};
};
};
"39853AF5-2BE7-4363-872C-B3007E9544BA" = {
track_data = {
};
};
"39EE723B-EE2E-476A-BB6A-3BD0C5B07645" = {
track_data = {
"2026-04-21" = {
"21" = 0.01695;
};
};
};
"3AA76B79-C480-4E77-B3B7-CB8EF1AD74B1" = {
track_data = {
"2026-04-21" = {
"21" = 0.11661;
};
};
};
"3DCA8F09-8D7E-459C-BF81-E3BC93FB50C2" = {
track_data = {
"2026-04-21" = {
"21" = 0.08619;
};
};
};
"3EAE91A0-F418-4613-B0B9-5FB2D0765A19" = {
track_data = {
"2026-04-21" = {
"21" = 0.11765;
};
};
};
"3F09F7BB-0CDE-49F0-BBD6-554D2D6761A1" = {
track_data = {
"2026-04-22" = {
"15" = 5.14073;
};
};
};
"3F406764-EDB7-4275-9C48-57A03F956460" = {
track_data = {
"2026-04-21" = {
"21" = 0.43611;
};
};
};
"4250E827-3B6B-4CCE-92A5-CD42B0B54699" = {
track_data = {
"2026-04-21" = {
"21" = 0.11654;
};
};
};
"425D7807-CFB5-4251-ADBD-D220EC706AF6" = {
track_data = {
"2026-04-21" = {
"21" = 0.09929;
};
};
};
"45BA3BD7-5489-4EAC-BEB9-E68305983974" = {
track_data = {
"2026-04-21" = {
"21" = 0.11658;
};
};
};
"47945C83-DF11-44DA-A18B-BCDCAED937A2" = {
track_data = {
"2026-04-21" = {
"21" = 0.01638;
};
};
};
"47AFBA12-B401-47CD-891D-6D345CF19C6E" = {
track_data = {
"2026-04-21" = {
"21" = 0.45448;
};
};
};
"488EC664-F0EE-4E9B-BA11-95ECDD2728ED" = {
track_data = {
"2026-04-21" = {
"21" = 0.08381;
};
};
};
"4934A496-5E40-49BA-92C5-E6C1FD2492D5" = {
track_data = {
"2026-04-21" = {
"21" = 0.301;
};
};
};
"4B29BC5C-5C77-4C1E-9266-2050560F4783" = {
track_data = {
"2026-04-21" = {
"21" = 0.11659;
};
};
};
"4C604F4B-21B0-4D5F-8734-1F714CDDE183" = {
track_data = {
"2026-04-21" = {
"21" = 0.03078;
};
};
};
"53BC680A-FB44-4FA4-A7DA-B28F48A71165" = {
track_data = {
"2026-04-21" = {
"21" = 0.15261;
};
};
};
"543E4FD3-CA18-4759-9999-0D5E6AD84C62" = {
track_data = {
"2026-04-21" = {
"21" = 0.28378;
};
};
};
"5929ED90-B37B-4234-AF18-A69BFE54514B" = {
track_data = {
"2026-04-21" = {
"21" = 0.35311;
};
};
};
"5A1C49AE-7D3B-4525-B8CC-8D41C2233BEA" = {
track_data = {
"2026-04-21" = {
"21" = 0.02648;
};
};
};
"606F372C-207C-415A-A8B8-D7C84B2B6BC9" = {
track_data = {
"2026-04-21" = {
"21" = 0.87765;
};
};
};
"60F05A1F-F60B-4AD6-ADA7-6315E4B417B9" = {
track_data = {
"2026-04-21" = {
"21" = 0.10022;
};
};
};
"62FB0758-C049-4E6A-BEF2-27EEB37BCFD7" = {
track_data = {
"2026-04-21" = {
"21" = 0.08392;
};
};
};
"65D2980F-DA79-407F-87EB-F8659F6AC61B" = {
track_data = {
"2026-04-21" = {
"21" = 0.28795;
};
};
};
"66F47844-853C-4C07-A533-C43F9D967ED3" = {
track_data = {
"2026-04-22" = {
"15" = 20.67765;
};
};
};
"6702BF57-F173-49B9-90BB-43A0B4E57A84" = {
track_data = {
"2026-04-21" = {
"21" = 0.1172;
};
};
};
"6850C09F-9013-4AD5-BE40-004CFB9641B4" = {
track_data = {
"2026-04-21" = {
"21" = 0.55004;
};
};
};
"6A319616-9B1D-418E-BF65-592DF0C255E3" = {
track_data = {
"2026-04-21" = {
"21" = 0.11323;
};
};
};
"703EEF78-E13D-441C-8BA3-2BC07FBAFD37" = {
track_data = {
"2026-04-21" = {
"21" = 0.03331;
};
};
};
"73593169-9BB5-4C24-802B-0B6ECBD1381E" = {
track_data = {
"2026-04-21" = {
"21" = 0.25095;
};
};
};
"758A93BA-8633-48CA-93EA-0E72DE1B8F85" = {
track_data = {
"2026-04-21" = {
"21" = 0.41667;
};
};
};
"75960EAE-3A4E-4FC2-BEED-F26B646632C4" = {
track_data = {
};
};
"77641502-1765-4510-9102-0AFDA1CBE2B8" = {
track_data = {
"2026-04-21" = {
"21" = 0.21465;
};
};
};
"789B44BE-2996-4643-9AD8-C4F3BDA48A51" = {
track_data = {
"2026-04-21" = {
"21" = 0.11635;
};
};
};
"78F03773-9286-406A-9BCB-7CF1CB9BE67C" = {
track_data = {
"2026-04-21" = {
"21" = 0.78761;
};
};
};
"79B5A596-8B8B-44A8-A4F3-34BD60A8CBB5" = {
track_data = {
"2026-04-21" = {
"21" = 0.48448;
};
};
};
"7DB6A66A-9AD1-45BC-B461-54A9F49FAADF" = {
track_data = {
"2026-04-21" = {
"21" = 0.09065;
};
};
};
"80DDC7E2-85C9-490B-937F-591396DAB479" = {
track_data = {
"2026-04-21" = {
"21" = 0.55401;
};
};
};
"81682F13-423A-45A6-9AD5-1EB68289CF5F" = {
track_data = {
"2026-04-21" = {
"21" = 0.11478;
};
};
};
"844D6BB3-747A-4C6A-9D93-8A8BD27A74CF" = {
track_data = {
"2026-04-21" = {
"21" = 0.11679;
};
};
};
"8578F7F6-A9CF-4E03-A69C-0C8FC15BC1E4" = {
track_data = {
"2026-04-21" = {
"21" = 0.21922;
};
};
};
"86B66FD5-BC22-4D2E-A9C4-7F2F8A721A4D" = {
track_data = {
};
};
"8C5425AC-9F82-444D-8B68-CC2271BCBEA5" = {
track_data = {
"2026-04-21" = {
"21" = 0.11696;
};
};
};
"8E4EA137-DAF4-44EA-9E76-FA892554C169" = {
track_data = {
"2026-04-21" = {
"21" = 0.11446;
};
};
};
"8F014373-A270-4CB6-8406-BE4B052A6ED8" = {
track_data = {
"2026-04-21" = {
"21" = 0.12299;
};
};
};
"90188A6F-3C71-4857-93E2-47FA51EBAC15" = {
track_data = {
"2026-04-21" = {
"21" = 0.11669;
};
};
};
"935C9D1E-1192-43E2-B56F-380F583DAA20" = {
track_data = {
"2026-04-21" = {
"21" = 0.09907;
};
};
};
"94A85A35-1124-47BC-AF46-9787F1ADE7D1" = {
track_data = {
"2026-04-21" = {
"21" = 0.79958;
};
};
};
"963698E6-36FC-4667-9E34-47B3C811FADD" = {
track_data = {
"2026-04-21" = {
"21" = 0.11739;
};
};
};
"975AD37C-BB1E-4FA7-B1F2-60A94952CA22" = {
track_data = {
"2026-04-21" = {
"21" = 0.48623;
};
};
};
"984CD4CD-8C2E-41E1-A4B9-43BF0BBAE28E" = {
track_data = {
"2026-04-21" = {
"21" = 0.33067;
};
};
};
"9860F239-244E-4D3B-9A03-3D05A35DB288" = {
track_data = {
"2026-04-21" = {
"21" = 0.01721;
};
};
};
"988129DA-4BFE-4D75-A458-C1722C8D7A32" = {
track_data = {
"2026-04-21" = {
"21" = 0.09936;
};
};
};
"9A5B2FFC-B37C-44F6-859A-349EB5EBEBFB" = {
track_data = {
"2026-04-21" = {
"21" = 0.06618;
};
};
};
"9A61E395-C410-4A73-8076-D6734F9A6F51" = {
track_data = {
"2026-04-21" = {
"21" = 0.01753;
};
};
};
"9B85E4ED-22D9-4D29-A6A7-14188FA61200" = {
track_data = {
"2026-04-21" = {
"21" = 0.04711;
};
};
};
"9E44692E-7085-4B8E-9518-347EBB79DC0F" = {
track_data = {
"2026-04-21" = {
"21" = 0.11745;
};
};
};
"9F30F831-1491-411F-9598-251D526EA195" = {
track_data = {
"2026-04-21" = {
"21" = 0.28442;
};
};
};
"A0D8A7D8-C2A9-4BAB-9149-E079CF5AA286" = {
track_data = {
"2026-04-21" = {
"21" = 0.0845;
};
};
};
"A1EF3DF8-8165-42FC-BD58-98C4A247BFAD" = {
track_data = {
"2026-04-21" = {
"21" = 0.1171;
};
};
};
"A1F8016F-D18C-4930-8022-6FB7FA244083" = {
track_data = {
"2026-04-21" = {
"21" = 0.4183;
};
};
};
"A20E0CC4-3241-4C87-830B-A0A152CD1EA0" = {
track_data = {
"2026-04-21" = {
"21" = 0.09975;
};
};
};
"A37B4B12-3148-4ACC-B776-BC94483B91E5" = {
track_data = {
"2026-04-21" = {
"21" = 0.11655;
};
};
};
"A425377E-5420-4E26-A9DB-15BF863ACA0A" = {
track_data = {
"2026-04-21" = {
"21" = 0.10177;
};
};
};
"A709BB90-8F59-4130-A314-7FC650FD4274" = {
track_data = {
"2026-04-21" = {
"21" = 0.42932;
};
};
};
"A7E4855F-BD29-4211-8DB1-805134D9834C" = {
track_data = {
"2026-04-21" = {
"21" = 0.10046;
};
};
};
"A83A129C-8389-41CF-A598-2FDD70EF2392" = {
track_data = {
"2026-04-21" = {
"21" = 0.9152;
};
};
};
"AB9EFA2D-EFD5-4857-99CB-F171256FCC6D" = {
track_data = {
"2026-04-21" = {
"21" = 0.17969;
};
};
};
"ACC77C13-39D1-43BC-BFAD-39FF3ACAC63E" = {
track_data = {
"2026-04-21" = {
"21" = 0.23859;
};
};
};
"ACD46AA7-7410-41E1-90D2-D8CC1962385E" = {
track_data = {
"2026-04-21" = {
"21" = 0.39961;
};
};
};
"B0B57F5B-AB1E-4CC1-90F8-836A5C7F4698" = {
track_data = {
"2026-04-21" = {
"21" = 0.11634;
};
};
};
"B56D5719-BA9A-4062-9E9E-FE7728665B5C" = {
track_data = {
"2026-04-21" = {
"21" = 0.11611;
};
};
};
"B710092D-D3C7-4565-B28F-041187E3B77C" = {
track_data = {
"2026-04-21" = {
"21" = 0.63764;
};
};
};
"B8E9D561-A7B4-4F46-BA05-301D11ED63CD" = {
track_data = {
"2026-04-21" = {
"21" = 0.51519;
};
};
};
"B977B789-BA7F-4395-A6A2-21D18718DE7F" = {
track_data = {
"2026-04-21" = {
"21" = 0.1165;
};
};
};
"BBFB3176-1346-4600-BB4F-A36E314F67D6" = {
track_data = {
"2026-04-21" = {
"21" = 0.15477;
};
};
};
"BC674F57-EBDC-471E-9307-F4B9E1E33033" = {
track_data = {
"2026-04-21" = {
"21" = 0.11688;
};
};
};
"BDEFCD3E-CE59-4899-AF3D-4DE90992F470" = {
track_data = {
"2026-04-21" = {
"21" = 0.07104;
};
};
};
"BFA47CC9-0743-4144-B240-46AB70362066" = {
track_data = {
"2026-04-21" = {
"21" = 0.11657;
};
};
};
"C031210D-FB50-4CD5-B33A-284346C42CE6" = {
track_data = {
"2026-04-21" = {
"21" = 0.11597;
};
};
};
"C9302F9C-3ECB-4A80-83DF-7EA85523D884" = {
track_data = {
"2026-04-21" = {
"21" = 0.1167;
};
};
};
"C93E59B5-7662-4BFC-9939-B51AACA846CC" = {
track_data = {
};
};
"CDC9F3FD-FC0C-4E47-8313-BDA6F2092AC5" = {
track_data = {
"2026-04-21" = {
"21" = 0.26635;
};
};
};
"CEF6BC50-4A9B-488D-80D1-8C28FF0010F2" = {
track_data = {
};
};
"D0258893-504E-44D2-A6A3-4D84243F21BB" = {
track_data = {
"2026-04-21" = {
"21" = 0.11538;
};
};
};
"D178D739-314B-48D9-84E1-C02E7A4D735B" = {
track_data = {
"2026-04-21" = {
"21" = 0.11654;
};
};
};
"D1AAB19A-5FF2-4E8C-9ED0-A710D9EF4D06" = {
track_data = {
"2026-04-21" = {
"21" = 0.49554;
};
};
};
"D27A112A-176A-4D14-9D8C-1E71CC76C65D" = {
track_data = {
"2026-04-21" = {
"21" = 0.70073;
};
};
};
"D62D98CA-08C7-4044-A368-BD76CC5E4872" = {
track_data = {
"2026-04-22" = {
"15" = 29.77588;
};
};
};
"DA1AE983-6944-458D-9802-A424E26124B2" = {
track_data = {
"2026-04-21" = {
"21" = 0.09275;
};
};
};
"DEA5E9A0-4BA5-4CD8-8D05-8914CD9E5F78" = {
track_data = {
"2026-04-21" = {
"21" = 0.18194;
};
};
};
"DF62876F-CDC4-4BF2-8187-00039005691C" = {
track_data = {
"2026-04-21" = {
"21" = 0.04717;
};
};
};
"E10DF811-EC88-481F-A048-59A9D33AEB8C" = {
track_data = {
"2026-04-21" = {
"21" = 0.26865;
};
};
};
"E21B6F3A-BC69-4502-9CC1-4B05A2F0B8B2" = {
track_data = {
"2026-04-21" = {
"21" = 0.1137;
};
};
};
"E3C3E628-1021-4996-9F55-AC7788E6E066" = {
track_data = {
"2026-04-21" = {
"21" = 0.14657;
};
};
};
"EA92342C-EFDF-422B-921A-73771BFA9885" = {
track_data = {
"2026-04-21" = {
"21" = 0.11718;
};
};
};
"EB78D1E5-8AC2-403C-9650-63422763717D" = {
track_data = {
};
};
"EEC59CFE-B82E-40DD-9A7E-AAEE9C12374C" = {
track_data = {
"2026-04-21" = {
"21" = 0.78151;
};
};
};
"EF16B5B7-11BC-41BF-AE72-D3FEE389EC6B" = {
track_data = {
"2026-04-21" = {
"21" = 0.04318;
};
};
};
"F2625EF9-1E7C-4400-82AC-1C65A5EEE1DE" = {
track_data = {
"2026-04-21" = {
"21" = 0.11751;
};
};
};
"F262F647-2DD9-403A-BABC-E2C7E6F68958" = {
track_data = {
"2026-04-21" = {
"21" = 0.34282;
};
};
};
"F2D60C1C-1C51-4FCD-B322-7B99438E3517" = {
track_data = {
"2026-04-21" = {
"21" = 0.63371;
};
};
};
"F31AD237-0440-4B76-A0A4-0B2DA0EC66F5" = {
track_data = {
"2026-04-21" = {
"21" = 0.28374;
};
};
};
"F4267F91-B47E-4FD4-9A7B-C631E5DA6D01" = {
track_data = {
"2026-04-21" = {
"21" = 0.58335;
};
};
};
"F46E84A9-AB2B-4392-ADDE-77B4B0A5E18A" = {
track_data = {
"2026-04-21" = {
"21" = 0.40094;
};
};
};
"F86B4493-C639-4F11-8028-C70A35C7FFEE" = {
track_data = {
"2026-04-21" = {
"21" = 0.11371;
};
};
};
"FD4DD227-C674-4150-8A3E-C0F86F5EE7A9" = {
track_data = {
"2026-04-21" = {
"21" = 0.12057;
};
};
};
"FE2C1D16-473A-4144-AC25-825465668782" = {
track_data = {
"2026-04-21" = {
"21" = 0.11889;
};
};
};
"FEF6D5A7-0C55-4456-B29E-265C2706ACC4" = {
track_data = {
"2026-04-21" = {
"21" = 0.12237;
};
};
};
m009 = {
track_data = {
"2026-04-21" = {
"08" = 134.68023;
"10" = 41.6159;
"12" = 107.15738;
"13" = 423.14157;
"14" = 194.7181;
"15" = 94.32215;
"16" = 45.19361;
"18" = 180.39536;
"19" = 31.83897;
};
"2026-04-22" = {
"11" = 26.52386;
"15" = 135.81511;
"16" = 8.31822;
"17" = 2.54615;
};
"2026-04-23" = {
"08" = 2.35957;
"11" = 58.11418;
"14" = 55.66242;
"17" = 41.97494;
"18" = 78.86608;
};
"2026-04-24" = {
"15" = 2.09526;
"16" = 0.67694;
};
"2026-04-27" = {
"12" = 21.63697;
"13" = 1.47492;
};
};
};
m010 = {
track_data = {
"2026-04-20" = {
"18" = 1.1806;
};
"2026-04-21" = {
"08" = 35.86864;
"10" = 97.93447;
"12" = 181.17941;
"13" = 132.17921;
"15" = 168.70656;
"16" = 155.66586;
"21" = 7.5075;
};
"2026-04-22" = {
"07" = 6.55877;
"11" = 51.32782;
};
"2026-04-23" = {
"09" = 7.60683;
"11" = 56.33939;
"14" = 10.56168;
"17" = 53.12179;
"18" = 38.52588;
"19" = 15.56292;
};
"2026-04-24" = {
"16" = 3.52432;
};
"2026-04-27" = {
"12" = 21.02707;
"13" = 15.63618;
};
};
};
m011 = {
track_data = {
"2026-04-20" = {
"18" = 3.82661;
};
"2026-04-21" = {
"08" = 4.96256;
"10" = 64.79563;
"12" = 23.98712;
"13" = 340.98723;
"16" = 126.56537;
};
"2026-04-22" = {
"15" = 13.06275;
};
"2026-04-23" = {
"11" = 24.79136;
"14" = 33.01024;
"17" = 36.95729;
"18" = 13.72298;
};
"2026-04-24" = {
"16" = 0.84602;
};
"2026-04-27" = {
"12" = 3.76602;
};
};
};
m012 = {
track_data = {
"2026-04-20" = {
"18" = 0.76286;
};
"2026-04-21" = {
"08" = 10.09629;
"10" = 383.47176;
"12" = 199.31357;
"13" = 18.21052;
"15" = 45.5541;
"16" = 19.39089;
};
"2026-04-22" = {
"15" = 2.01596;
};
"2026-04-23" = {
"14" = 17.71347;
"17" = 402.89141;
"18" = 168.33355;
};
"2026-04-24" = {
"16" = 16.79856;
};
"2026-04-27" = {
"12" = 50.37952;
};
};
};
m013 = {
track_data = {
"2026-04-21" = {
"08" = 4.41755;
"10" = 129.16172;
"12" = 231.17894;
"13" = 65.59363;
"15" = 13.12008;
"16" = 57.65192;
"18" = 30.40884;
"19" = 116.83414;
};
"2026-04-22" = {
"15" = 2.72001;
};
"2026-04-23" = {
"09" = 18.64024;
"11" = 35.37864;
"14" = 22.63293;
"17" = 148.87341;
"18" = 108.73964;
};
"2026-04-24" = {
"16" = 10.50694;
};
};
};
m014 = {
track_data = {
"2026-04-21" = {
"08" = 3.69071;
"10" = 225.89143;
"11" = 14.90885;
"12" = 324.77446;
"13" = 11.69184;
"15" = 30.0873;
"16" = 7.90437;
};
"2026-04-22" = {
"15" = 3.65623;
};
"2026-04-23" = {
"17" = 92.87799;
"18" = 53.00166;
};
};
};
m015 = {
track_data = {
"2026-04-21" = {
"08" = 4.53593;
"10" = 13.72773;
"11" = 1.17377;
"12" = 457.03882;
"13" = 17.254;
"16" = 11.03649;
};
"2026-04-22" = {
"15" = 5.81879;
};
"2026-04-23" = {
"09" = 32.98689;
"11" = 13.03831;
"14" = 32.23498;
"17" = 22.04408;
"18" = 10.81784;
};
};
};
m016 = {
track_data = {
"2026-04-20" = {
"18" = 2.69611;
};
"2026-04-21" = {
"13" = 9.49074;
};
"2026-04-22" = {
"15" = 7.25084;
};
"2026-04-23" = {
"14" = 10.6369;
"17" = 0.10133;
"18" = 3.7683;
};
};
};
m017 = {
track_data = {
"2026-04-22" = {
"15" = 4.93435;
"16" = 5.16315;
};
"2026-04-23" = {
"14" = 8.4993;
"17" = 1.96595;
"18" = 4.83911;
};
};
};
m018 = {
track_data = {
"2026-04-20" = {
"18" = 276.23742;
"19" = 17.02676;
};
"2026-04-22" = {
"15" = 37.86972;
"16" = 158.59835;
"17" = 91.11839;
};
"2026-04-23" = {
"08" = 59.87272;
"09" = 40.95402;
"10" = 2.66999;
"11" = 83.82166;
"14" = 118.61386;
"17" = 64.73876;
"18" = 57.99217;
"19" = 6.24149;
};
"2026-04-24" = {
"16" = 1.44582;
};
"2026-04-27" = {
"12" = 22.65313;
};
};
};
m019 = {
track_data = {
"2026-04-22" = {
"15" = 11.93119;
};
};
};
};
};
};
},
{
color = 4;
glyphname = X;
kernLeft = x;
kernRight = x;
layers = (
{
anchors = (
{
name = bottom;
pos = (294,0);
},
{
name = top;
pos = (294,510);
}
);
background = {
shapes = (
{
closed = 1;
nodes = (
(155,510,l),
(58,510,l),
(440,0,l),
(537,0,l)
);
},
{
closed = 1;
nodes = (
(269,292,l),
(51,0,l),
(141,0,l),
(313,230,l)
);
},
{
closed = 1;
nodes = (
(312,218,l),
(530,510,l),
(440,510,l),
(268,280,l)
);
}
);
};
layerId = m009;
shapes = (
{
closed = 1;
nodes = (
(574,0,l),
(128,688,l),
(30,688,l),
(476,0,l)
);
},
{
closed = 1;
nodes = (
(118,0,l),
(564,688,l),
(466,688,l),
(20,0,l)
);
}
);
width = 594;
},
{
anchors = (
{
name = bottom;
pos = (175,0);
},
{
name = top;
pos = (175,510);
}
);
layerId = m010;
shapes = (
{
closed = 1;
nodes = (
(333,0,l),
(97,688,l),
(15,688,l),
(251,0,l)
);
},
{
closed = 1;
nodes = (
(92,0,l),
(328,688,l),
(246,688,l),
(10,0,l)
);
}
);
width = 343;
},
{
anchors = (
{
name = bottom;
pos = (585,0);
},
{
name = top;
pos = (585,510);
}
);
layerId = m011;
shapes = (
{
closed = 1;
nodes = (
(764,0,l),
(147,688,l),
(35,688,l),
(652,0,l)
);
},
{
closed = 1;
nodes = (
(132,0,l),
(749,688,l),
(637,688,l),
(20,0,l)
);
}
);
width = 784;
},
{
anchors = (
{
name = bottom;
pos = (296,0);
},
{
name = top;
pos = (296,510);
}
);
layerId = m012;
shapes = (
{
closed = 1;
nodes = (
(505,0,l),
(42,688,l),
(30,688,l),
(493,0,l)
);
},
{
closed = 1;
nodes = (
(114,0,l),
(495,688,l),
(401,688,l),
(20,0,l)
);
}
);
width = 525;
},
{
anchors = (
{
name = bottom;
pos = (463,0);
},
{
name = top;
pos = (463,510);
}
);
layerId = m013;
shapes = (
{
closed = 1;
nodes = (
(673,0,l),
(286,688,l),
(26,688,l),
(413,0,l)
);
},
{
closed = 1;
nodes = (
(122,0,l),
(663,688,l),
(556,688,l),
(16,0,l)
);
}
);
width = 689;
},
{
anchors = (
{
name = bottom;
pos = (295,0);
},
{
name = top;
pos = (295,510);
}
);
layerId = m014;
shapes = (
{
closed = 1;
nodes = (
(505,0,l),
(124,688,l),
(30,688,l),
(411,0,l)
);
},
{
closed = 1;
nodes = (
(32,0,l),
(495,688,l),
(483,688,l),
(20,0,l)
);
}
);
width = 525;
},
{
anchors = (
{
name = bottom;
pos = (284,0);
},
{
name = top;
pos = (284,510);
}
);
layerId = m015;
shapes = (
{
closed = 1;
nodes = (
(673,0,l),
(132,688,l),
(26,688,l),
(567,0,l)
);
},
{
closed = 1;
nodes = (
(276,0,l),
(663,688,l),
(403,688,l),
(16,0,l)
);
}
);
width = 689;
},
{
anchors = (
{
name = bottom;
pos = (274,0);
},
{
name = top;
pos = (274,510);
}
);
layerId = m016;
shapes = (
{
closed = 1;
nodes = (
(574,0,l),
(128,688,l),
(30,688,l),
(476,0,l)
);
},
{
closed = 1;
nodes = (
(118,0,l),
(564,688,l),
(466,688,l),
(20,0,l)
);
}
);
width = 594;
},
{
anchors = (
{
name = bottom;
pos = (263,0);
},
{
name = top;
pos = (263,510);
}
);
layerId = m017;
shapes = (
{
closed = 1;
nodes = (
(572,0,l),
(126,688,l),
(28,688,l),
(473,0,l)
);
},
{
closed = 1;
nodes = (
(116,0,l),
(562,688,l),
(462,688,l),
(18,0,l)
);
}
);
width = 590;
},
{
anchors = (
{
name = bottom;
pos = (294,0);
},
{
name = top;
pos = (294,510);
}
);
layerId = m018;
shapes = (
{
closed = 1;
nodes = (
(674,0,l),
(135,688,l),
(30,688,l),
(569,0,l)
);
},
{
closed = 1;
nodes = (
(125,0,l),
(664,688,l),
(559,688,l),
(20,0,l)
);
}
);
width = 694;
}
);
metricLeft = "=l*.2";
metricRight = "=|";
unicode = 88;
userData = {
com.typespan.data.v1 = {
masters = {
m009 = {
track_data = {
"2026-04-20" = {
"10" = 147.31101;
};
"2026-04-27" = {
"10" = 30.59128;
"12" = 6.04658;
};
};
};
m010 = {
track_data = {
"2026-04-20" = {
"10" = 88.45094;
};
"2026-04-27" = {
"10" = 58.82606;
"12" = 24.22951;
};
};
};
m011 = {
track_data = {
"2026-04-20" = {
"10" = 81.82257;
};
"2026-04-27" = {
"10" = 20.56708;
"12" = 9.30294;
};
};
};
m012 = {
track_data = {
"2026-04-20" = {
"10" = 68.85358;
};
"2026-04-27" = {
"10" = 51.5103;
"12" = 10.93587;
};
};
};
m013 = {
track_data = {
"2026-04-20" = {
"10" = 107.24599;
};
"2026-04-27" = {
"10" = 153.96402;
"12" = 12.30645;
};
};
};
m014 = {
track_data = {
"2026-04-20" = {
"10" = 32.81011;
};
"2026-04-27" = {
"10" = 26.80454;
"12" = 4.79384;
};
};
};
m015 = {
track_data = {
"2026-04-20" = {
"10" = 13.59676;
};
"2026-04-27" = {
"10" = 142.92484;
"12" = 4.3145;
};
};
};
m016 = {
track_data = {
"2026-04-20" = {
"10" = 15.15077;
};
"2026-04-27" = {
"10" = 28.80043;
"12" = 3.99386;
};
};
};
m017 = {
track_data = {
"2026-04-20" = {
"10" = 32.37458;
};
"2026-04-27" = {
"10" = 16.16351;
"12" = 5.36314;
};
};
};
m018 = {
track_data = {
"2026-04-23" = {
"08" = 0.86155;
};
"2026-04-27" = {
"10" = 54.54151;
"12" = 25.04928;
};
};
};
};
};
};
},
{
color = 4;
glyphname = Y;
kernLeft = Y;
kernRight = Y;
layers = (
{
anchors = (
{
name = bottom;
pos = (279,0);
},
{
name = top;
pos = (279,688);
},
{
name = topleft;
pos = (-14,688);
}
);
layerId = m009;
shapes = (
{
closed = 1;
nodes = (
(319,0,l),
(319,300,l),
(300,231,l),
(546,688,l),
(453,688,l),
(280,350,l),
(276,350,l),
(103,688,l),
(10,688,l),
(256,231,l),
(237,300,l),
(237,0,l)
);
}
);
width = 556;
},
{
anchors = (
{
name = bottom;
pos = (145,0);
},
{
name = top;
pos = (145,688);
},
{
name = topleft;
pos = (-2,688);
}
);
layerId = m010;
shapes = (
{
closed = 1;
nodes = (
(186,0,l),
(186,289,l),
(173,197,l),
(285,688,l),
(195,688,l),
(147,328,l),
(143,328,l),
(95,688,l),
(5,688,l),
(117,197,l),
(104,289,l),
(104,0,l)
);
}
);
width = 290;
},
{
anchors = (
{
name = bottom;
pos = (366,0);
},
{
name = top;
pos = (366,688);
},
{
name = topleft;
pos = (4,688);
}
);
layerId = m011;
shapes = (
{
closed = 1;
nodes = (
(407,0,l),
(407,289,l),
(399,255,l),
(722,688,l),
(621,688,l),
(368,346,l),
(364,346,l),
(111,688,l),
(10,688,l),
(333,255,l),
(325,289,l),
(325,0,l)
);
}
);
width = 732;
},
{
anchors = (
{
name = bottom;
pos = (246,0);
},
{
name = top;
pos = (246,688);
},
{
name = topleft;
pos = (-47,688);
}
);
layerId = m012;
shapes = (
{
closed = 1;
nodes = (
(247,0,l),
(247,312,l),
(243,259,l),
(474,688,l),
(380,688,l),
(207,351,l),
(203,351,l),
(21,688,l),
(10,688,l),
(241,259,l),
(237,312,l),
(237,0,l)
);
}
);
width = 484;
},
{
anchors = (
{
name = bottom;
pos = (753,0);
},
{
name = top;
pos = (753,688);
},
{
name = topleft;
pos = (460,688);
}
);
background = {
shapes = (
{
closed = 1;
nodes = (
(616,0,l),
(616,333,l),
(571,189,l),
(845,688,l),
(753,688,l),
(584,368,l),
(580,368,l),
(411,688,l),
(154,688,l),
(430,186,l),
(386,333,l),
(386,0,l)
);
}
);
};
layerId = m013;
shapes = (
{
closed = 1;
nodes = (
(465,0,l),
(465,300,l),
(446,231,l),
(692,688,l),
(599,688,l),
(426,350,l),
(422,350,l),
(249,688,l),
(8,688,l),
(254,231,l),
(235,300,l),
(235,0,l)
);
}
);
width = 700;
},
{
anchors = (
{
name = bottom;
pos = (256,0);
},
{
name = top;
pos = (256,688);
},
{
name = topleft;
pos = (549,688);
}
);
background = {
shapes = (
{
closed = 1;
nodes = (
(319,0,l),
(319,275,l),
(306,242,l),
(546,688,l),
(535,688,l),
(316,280,l),
(312,280,l),
(104,688,l),
(10,688,l),
(250,242,l),
(237,275,l),
(237,0,l)
);
}
);
};
layerId = m014;
shapes = (
{
closed = 1;
nodes = (
(283,0,l),
(283,342,l),
(259,289,l),
(474,688,l),
(463,688,l),
(281,351,l),
(277,351,l),
(104,688,l),
(10,688,l),
(225,289,l),
(201,342,l),
(201,0,l)
);
}
);
width = 484;
},
{
anchors = (
{
name = bottom;
pos = (249,0);
},
{
name = top;
pos = (249,688);
},
{
name = topleft;
pos = (-44,688);
}
);
background = {
shapes = (
{
closed = 1;
nodes = (
(348,0,l),
(348,344,l),
(327,232,l),
(609,688,l),
(357,688,l),
(228,471,l),
(224,471,l),
(95,688,l),
(6,688,l),
(287,232,l),
(266,344,l),
(266,0,l)
);
}
);
};
layerId = m015;
shapes = (
{
closed = 1;
nodes = (
(391,0,l),
(391,300,l),
(372,231,l),
(692,688,l),
(451,688,l),
(278,429,l),
(274,429,l),
(101,688,l),
(8,688,l),
(328,231,l),
(309,300,l),
(309,0,l)
);
}
);
width = 700;
},
{
anchors = (
{
name = bottom;
pos = (305,0);
},
{
name = top;
pos = (305,688);
},
{
name = topleft;
pos = (12,688);
}
);
layerId = m016;
shapes = (
{
closed = 1;
nodes = (
(319,0,l),
(319,300,l),
(300,231,l),
(546,688,l),
(453,688,l),
(280,348,l),
(276,348,l),
(103,688,l),
(10,688,l),
(256,231,l),
(237,300,l),
(237,0,l)
);
}
);
width = 556;
},
{
anchors = (
{
name = bottom;
pos = (303,0);
},
{
name = top;
pos = (303,688);
},
{
name = topleft;
pos = (10,688);
}
);
layerId = m017;
shapes = (
{
closed = 1;
nodes = (
(318,0,l),
(318,300,l),
(299,231,l),
(545,688,l),
(452,688,l),
(279,348,l),
(275,348,l),
(102,688,l),
(9,688,l),
(255,231,l),
(236,300,l),
(236,0,l)
);
}
);
width = 554;
},
{
anchors = (
{
name = bottom;
pos = (263,0);
},
{
name = top;
pos = (263,688);
},
{
name = topleft;
pos = (-30,688);
}
);
layerId = m018;
shapes = (
{
closed = 1;
nodes = (
(319,0,l),
(319,300,l),
(300,231,l),
(546,688,l),
(453,688,l),
(280,350,l),
(276,350,l),
(103,688,l),
(10,688,l),
(256,231,l),
(237,300,l),
(237,0,l)
);
}
);
width = 556;
}
);
metricLeft = V;
metricRight = "=|";
unicode = 89;
userData = {
com.typespan.data.v1 = {
masters = {
m009 = {
track_data = {
"2026-04-23" = {
"08" = 4.00594;
"14" = 42.35816;
"15" = 104.27204;
"16" = 82.86926;
"17" = 6.20969;
};
};
};
m010 = {
track_data = {
"2026-04-23" = {
"14" = 5.5947;
"15" = 175.22426;
"16" = 129.49833;
};
};
};
m011 = {
track_data = {
"2026-04-22" = {
"16" = 1.26175;
};
"2026-04-23" = {
"14" = 4.38882;
"15" = 79.89965;
"16" = 40.20267;
};
};
};
m012 = {
track_data = {
"2026-04-23" = {
"15" = 263.67575;
"16" = 392.30649;
};
};
};
m013 = {
track_data = {
"2026-04-23" = {
"15" = 256.13903;
"16" = 117.83281;
"17" = 12.23901;
};
};
};
m014 = {
track_data = {
"2026-04-23" = {
"15" = 154.87451;
"16" = 231.20108;
};
};
};
m015 = {
track_data = {
"2026-04-23" = {
"15" = 513.90235;
"16" = 189.82822;
};
};
};
m016 = {
track_data = {
"2026-04-23" = {
"08" = 0.60046;
"15" = 7.89223;
"16" = 4.74192;
};
};
};
m017 = {
track_data = {
"2026-04-23" = {
"08" = 1.43531;
"15" = 8.35394;
};
};
};
m018 = {
track_data = {
"2026-04-22" = {
"16" = 95.91001;
};
"2026-04-23" = {
"08" = 23.74607;
"15" = 119.77499;
"16" = 52.97473;
"17" = 20.05739;
};
};
};
};
};
};
},
{
color = 4;
glyphname = Z;
kernLeft = Z;
kernRight = Z;
layers = (
{
anchors = (
{
name = bottom;
pos = (292,0);
},
{
name = center;
pos = (292,344);
},
{
name = top;
pos = (292,688);
}
);
layerId = m009;
shapes = (
{
closed = 1;
nodes = (
(543,0,l),
(543,74,l),
(158,74,l),
(158,78,l),
(537,622,l),
(537,688,l),
(61,688,l),
(61,614,l),
(429,614,l),
(429,610,l),
(50,66,l),
(50,0,l)
);
}
);
width = 593;
},
{
anchors = (
{
name = bottom;
pos = (154,0);
},
{
name = center;
pos = (154,344);
},
{
name = top;
pos = (154,688);
}
);
layerId = m010;
shapes = (
{
closed = 1;
nodes = (
(282,0,l),
(282,74,l),
(114,74,l),
(114,78,l),
(281,622,l),
(281,688,l),
(29,688,l),
(29,614,l),
(192,614,l),
(192,610,l),
(25,66,l),
(25,0,l)
);
}
);
width = 307;
},
{
anchors = (
{
name = bottom;
pos = (326,0);
},
{
name = center;
pos = (326,344);
},
{
name = top;
pos = (326,688);
}
);
layerId = m011;
shapes = (
{
closed = 1;
nodes = (
(651,0,l),
(651,74,l),
(169,74,l),
(169,78,l),
(643,622,l),
(643,688,l),
(64,688,l),
(64,614,l),
(524,614,l),
(524,610,l),
(50,66,l),
(50,0,l)
);
}
);
width = 701;
},
{
anchors = (
{
name = bottom;
pos = (328,0);
},
{
name = center;
pos = (328,344);
},
{
name = top;
pos = (328,688);
}
);
layerId = m012;
shapes = (
{
closed = 1;
nodes = (
(471,0,l),
(471,10,l),
(144,10,l),
(144,14,l),
(466,679,l),
(466,688,l),
(59,688,l),
(59,678,l),
(372,678,l),
(372,674,l),
(50,9,l),
(50,0,l)
);
}
);
width = 521;
},
{
anchors = (
{
name = bottom;
pos = (256,0);
},
{
name = center;
pos = (256,344);
},
{
name = top;
pos = (256,688);
}
);
layerId = m014;
shapes = (
{
closed = 1;
nodes = (
(471,0,l),
(471,74,l),
(88,74,l),
(88,78,l),
(466,649,l),
(466,688,l),
(59,688,l),
(59,614,l),
(428,614,l),
(428,610,l),
(50,39,l),
(50,0,l)
);
}
);
width = 521;
},
{
anchors = (
{
name = bottom;
pos = (302,0);
},
{
name = center;
pos = (302,344);
},
{
name = top;
pos = (302,688);
}
);
layerId = m016;
shapes = (
{
closed = 1;
nodes = (
(553,0,l),
(553,74,l),
(158,74,l),
(158,78,l),
(547,622,l),
(547,688,l),
(61,688,l),
(61,614,l),
(439,614,l),
(439,610,l),
(50,66,l),
(50,0,l)
);
}
);
width = 603;
},
{
anchors = (
{
name = bottom;
pos = (232,0);
},
{
name = center;
pos = (232,344);
},
{
name = top;
pos = (232,688);
}
);
layerId = m013;
name = "XOPQ-max";
shapes = (
{
closed = 1;
nodes = (
(674,0,l),
(674,180,l),
(209,180,l),
(209,184,l),
(669,529,l),
(669,688,l),
(52,688,l),
(52,508,l),
(499,508,l),
(499,504,l),
(39,159,l),
(39,0,l)
);
}
);
width = 713;
},
{
anchors = (
{
name = bottom;
pos = (321,0);
},
{
name = center;
pos = (321,344);
},
{
name = top;
pos = (321,688);
}
);
layerId = m015;
name = "YOPQ-max";
shapes = (
{
closed = 1;
nodes = (
(674,0,l),
(674,74,l),
(318,74,l),
(318,78,l),
(668,622,l),
(668,688,l),
(51,688,l),
(51,614,l),
(389,614,l),
(389,610,l),
(39,66,l),
(39,0,l)
);
}
);
width = 713;
},
{
anchors = (
{
name = bottom;
pos = (287,0);
},
{
name = center;
pos = (287,344);
},
{
name = top;
pos = (287,688);
}
);
layerId = m017;
shapes = (
{
closed = 1;
nodes = (
(538,0,l),
(538,74,l),
(153,74,l),
(153,78,l),
(532,622,l),
(532,688,l),
(56,688,l),
(56,614,l),
(424,614,l),
(424,610,l),
(45,66,l),
(45,0,l)
);
}
);
width = 583;
},
{
anchors = (
{
name = bottom;
pos = (292,0);
},
{
name = center;
pos = (292,344);
},
{
name = top;
pos = (292,688);
}
);
layerId = m018;
shapes = (
{
closed = 1;
nodes = (
(543,0,l),
(543,74,l),
(158,74,l),
(158,78,l),
(537,622,l),
(537,688,l),
(61,688,l),
(61,614,l),
(429,614,l),
(429,610,l),
(50,66,l),
(50,0,l)
);
}
);
width = 593;
}
);
metricLeft = "=H*.5";
metricRight = "=|";
unicode = 90;
},
{
color = 4;
glyphname = C.001;
kernLeft = O;
kernRight = C;
layers = (
{
anchors = (
{
name = bottom;
pos = (284,0);
},
{
name = top;
pos = (284,688);
}
);
layerId = m009;
shapes = (
{
closed = 1;
nodes = (
(410,-8,o),
(476,-3,o),
(514,5,c),
(514,76,l),
(477,70,o),
(414,66,o),
(354,66,cs),
(171,66,o),
(158,83,o),
(158,310,cs),
(158,378,ls),
(158,605,o),
(171,622,o),
(354,622,cs),
(411,622,o),
(467,618,o),
(510,612,c),
(510,681,l),
(473,690,o),
(408,696,o),
(354,696,cs),
(118,696,o),
(76,644,o),
(76,349,cs),
(76,339,ls),
(76,44,o),
(118,-8,o),
(354,-8,cs)
);
}
);
width = 609;
},
{
anchors = (
{
name = bottom;
pos = (146,0);
},
{
name = top;
pos = (146,688);
}
);
layerId = m010;
shapes = (
{
closed = 1;
nodes = (
(217,-8,o),
(249,-5,o),
(267,0,c),
(267,73,l),
(248,69,o),
(217,66,o),
(190,66,cs),
(121,66,o),
(117,82,o),
(117,310,cs),
(117,378,ls),
(117,606,o),
(121,622,o),
(190,622,cs),
(209,622,o),
(235,620,o),
(265,615,c),
(265,686,l),
(247,692,o),
(216,696,o),
(190,696,cs),
(54,696,o),
(35,642,o),
(35,349,cs),
(35,339,ls),
(35,46,o),
(54,-8,o),
(190,-8,cs)
);
}
);
width = 315;
},
{
anchors = (
{
name = bottom;
pos = (375,0);
},
{
name = top;
pos = (375,688);
}
);
layerId = m011;
shapes = (
{
closed = 1;
nodes = (
(530,-8,o),
(631,-1,o),
(698,10,c),
(698,81,l),
(643,71,o),
(554,66,o),
(444,66,cs),
(174,66,o),
(152,84,o),
(152,310,cs),
(152,378,ls),
(152,601,o),
(178,622,o),
(444,622,cs),
(547,622,o),
(634,617,o),
(693,607,c),
(693,676,l),
(627,688,o),
(525,696,o),
(444,696,cs),
(129,696,o),
(70,643,o),
(70,349,cs),
(70,339,ls),
(70,43,o),
(124,-8,o),
(444,-8,cs)
);
}
);
width = 793;
},
{
anchors = (
{
name = bottom;
pos = (248,0);
},
{
name = top;
pos = (248,688);
}
);
layerId = m012;
shapes = (
{
closed = 1;
nodes = (
(338,-8,o),
(404,-3,o),
(442,5,c),
(442,76,l),
(405,70,o),
(342,66,o),
(282,66,cs),
(109,66,o),
(86,95,o),
(86,310,cs),
(86,378,ls),
(86,593,o),
(109,622,o),
(282,622,cs),
(339,622,o),
(395,619,o),
(438,612,c),
(438,681,l),
(401,690,o),
(336,696,o),
(282,696,cs),
(107,696,o),
(76,644,o),
(76,349,cs),
(76,339,ls),
(76,44,o),
(107,-8,o),
(282,-8,cs)
);
}
);
width = 537;
},
{
anchors = (
{
name = bottom;
pos = (284,0);
},
{
name = top;
pos = (284,688);
}
);
layerId = m014;
shapes = (
{
closed = 1;
nodes = (
(410,-8,o),
(476,-3,o),
(514,5,c),
(514,14,l),
(477,7,o),
(414,2,o),
(354,2,cs),
(171,2,o),
(158,24,o),
(158,310,cs),
(158,378,ls),
(158,664,o),
(171,686,o),
(354,686,cs),
(411,686,o),
(467,681,o),
(510,673,c),
(510,682,l),
(473,690,o),
(408,696,o),
(354,696,cs),
(118,696,o),
(76,644,o),
(76,349,cs),
(76,339,ls),
(76,44,o),
(118,-8,o),
(354,-8,cs)
);
}
);
width = 609;
},
{
anchors = (
{
name = bottom;
pos = (270,0);
},
{
name = top;
pos = (270,688);
}
);
layerId = m015;
shapes = (
{
closed = 1;
nodes = (
(394,-8,o),
(460,-3,o),
(498,5,c),
(498,177,l),
(461,174,o),
(398,172,o),
(338,172,cs),
(155,172,o),
(142,183,o),
(142,310,cs),
(142,378,ls),
(142,505,o),
(155,516,o),
(338,516,cs),
(395,516,o),
(451,514,o),
(494,511,c),
(494,681,l),
(457,690,o),
(392,696,o),
(338,696,cs),
(102,696,o),
(60,644,o),
(60,349,cs),
(60,339,ls),
(60,44,o),
(102,-8,o),
(338,-8,cs)
);
}
);
width = 572;
},
{
anchors = (
{
name = bottom;
pos = (311,0);
},
{
name = top;
pos = (311,688);
}
);
layerId = m016;
shapes = (
{
closed = 1;
nodes = (
(443,-8,o),
(515,-3,o),
(561,6,c),
(561,88,l),
(520,81,o),
(454,77,o),
(387,77,cs),
(196,77,o),
(183,94,o),
(183,310,cs),
(183,378,ls),
(183,593,o),
(197,611,o),
(387,611,cs),
(449,611,o),
(507,607,o),
(557,600,c),
(557,679,l),
(514,689,o),
(441,696,o),
(381,696,cs),
(131,696,o),
(87,641,o),
(87,350,cs),
(87,338,ls),
(87,47,o),
(130,-8,o),
(381,-8,cs)
);
}
);
width = 661;
},
{
anchors = (
{
name = bottom;
pos = (363,0);
},
{
name = top;
pos = (363,688);
}
);
layerId = m013;
name = "XOPQ-max - 212";
shapes = (
{
closed = 1;
nodes = (
(542,-8,o),
(608,-3,o),
(646,5,c),
(646,76,l),
(609,70,o),
(546,66,o),
(486,66,cs),
(303,66,o),
(290,83,o),
(290,310,cs),
(290,378,ls),
(290,605,o),
(303,622,o),
(486,622,cs),
(543,622,o),
(599,618,o),
(642,612,c),
(642,681,l),
(605,690,o),
(540,696,o),
(486,696,cs),
(124,696,o),
(60,644,o),
(60,349,cs),
(60,339,ls),
(60,44,o),
(124,-8,o),
(486,-8,cs)
);
}
);
width = 720;
},
{
anchors = (
{
name = bottom;
pos = (284,0);
},
{
name = top;
pos = (284,688);
}
);
layerId = m017;
shapes = (
{
closed = 1;
nodes = (
(410,-8,o),
(476,-3,o),
(514,5,c),
(514,76,l),
(477,70,o),
(414,66,o),
(354,66,cs),
(171,66,o),
(158,83,o),
(158,310,cs),
(158,378,ls),
(158,605,o),
(171,622,o),
(354,622,cs),
(411,622,o),
(467,618,o),
(510,612,c),
(510,681,l),
(473,690,o),
(408,696,o),
(354,696,cs),
(118,696,o),
(76,644,o),
(76,349,cs),
(76,339,ls),
(76,44,o),
(118,-8,o),
(354,-8,cs)
);
}
);
width = 606;
},
{
anchors = (
{
name = bottom;
pos = (284,0);
},
{
name = top;
pos = (284,688);
}
);
layerId = m018;
shapes = (
{
closed = 1;
nodes = (
(410,-8,o),
(476,-3,o),
(514,5,c),
(514,76,l),
(477,70,o),
(414,66,o),
(354,66,cs),
(171,66,o),
(158,83,o),
(158,310,cs),
(158,378,ls),
(158,605,o),
(171,622,o),
(354,622,cs),
(411,622,o),
(467,618,o),
(510,612,c),
(510,681,l),
(473,690,o),
(408,696,o),
(354,696,cs),
(118,696,o),
(76,644,o),
(76,349,cs),
(76,339,ls),
(76,44,o),
(118,-8,o),
(354,-8,cs)
);
}
);
width = 609;
}
);
metricLeft = O;
metricRight = "=H*.95";
},
{
color = 4;
glyphname = M.001;
kernLeft = H;
kernRight = H;
layers = (
{
anchors = (
{
name = bottom;
pos = (413,0);
},
{
name = top;
pos = (413,688);
}
);
layerId = m009;
shapes = (
{
closed = 1;
nodes = (
(182,0,l),
(182,568,l),
(186,568,l),
(374,0,l),
(452,0,l),
(640,568,l),
(644,568,l),
(644,0,l),
(726,0,l),
(726,688,l),
(600,688,l),
(415,120,l),
(411,120,l),
(226,688,l),
(100,688,l),
(100,0,l)
);
}
);
width = 826;
},
{
anchors = (
{
name = bottom;
pos = (216,0);
},
{
name = top;
pos = (216,688);
}
);
layerId = m010;
shapes = (
{
closed = 1;
nodes = (
(132,0,l),
(132,568,l),
(136,568,l),
(182,0,l),
(249,0,l),
(296,568,l),
(300,568,l),
(300,0,l),
(382,0,l),
(382,688,l),
(259,688,l),
(218,170,l),
(214,170,l),
(173,688,l),
(50,688,l),
(50,0,l)
);
}
);
width = 432;
},
{
anchors = (
{
name = bottom;
pos = (485,0);
},
{
name = top;
pos = (485,688);
}
);
layerId = m011;
shapes = (
{
closed = 1;
nodes = (
(182,0,l),
(182,560,l),
(186,560,l),
(449,0,l),
(522,0,l),
(784,560,l),
(788,560,l),
(788,0,l),
(870,0,l),
(870,688,l),
(756,688,l),
(487,110,l),
(483,110,l),
(214,688,l),
(100,688,l),
(100,0,l)
);
}
);
width = 970;
},
{
anchors = (
{
name = bottom;
pos = (465,0);
},
{
name = top;
pos = (465,688);
}
);
layerId = m013;
shapes = (
{
closed = 1;
nodes = (
(160,0,l),
(160,478,l),
(164,478,l),
(322,0,l),
(460,0,l),
(618,478,l),
(622,478,l),
(622,0,l),
(852,0,l),
(852,688,l),
(613,688,l),
(471,240,l),
(466,240,l),
(322,688,l),
(78,688,l),
(78,0,l)
);
}
);
width = 930;
},
{
anchors = (
{
name = bottom;
pos = (392,0);
},
{
name = top;
pos = (392,688);
}
);
background = {
shapes = (
{
closed = 1;
nodes = (
(105,0,l),
(105,623,l),
(109,623,l),
(328,0,l),
(384,0,l),
(603,623,l),
(607,623,l),
(607,0,l),
(689,0,l),
(689,688,l),
(615,688,l),
(391,50,l),
(387,50,l),
(164,688,l),
(95,688,l),
(95,0,l)
);
}
);
};
layerId = m014;
shapes = (
{
closed = 1;
nodes = (
(110,0,l),
(110,603,l),
(114,603,l),
(365,0,l),
(405,0,l),
(630,603,l),
(634,603,l),
(634,0,l),
(716,0,l),
(716,688,l),
(651,688,l),
(422,75,l),
(418,75,l),
(166,688,l),
(100,688,l),
(100,0,l)
);
}
);
width = 816;
},
{
anchors = (
{
name = bottom;
pos = (465,0);
},
{
name = top;
pos = (465,688);
}
);
background = {
shapes = (
{
closed = 1;
nodes = (
(288,0,l),
(288,478,l),
(292,478,l),
(466,0,l),
(612,0,l),
(786,478,l),
(790,478,l),
(790,0,l),
(872,0,l),
(872,688,l),
(645,688,l),
(464,190,l),
(459,190,l),
(281,688,l),
(58,688,l),
(58,0,l)
);
}
);
};
layerId = m015;
shapes = (
{
closed = 1;
nodes = (
(308,0,l),
(308,478,l),
(312,478,l),
(470,0,l),
(608,0,l),
(766,478,l),
(770,478,l),
(770,0,l),
(852,0,l),
(852,688,l),
(608,688,l),
(464,240,l),
(459,240,l),
(317,688,l),
(78,688,l),
(78,0,l)
);
}
);
width = 930;
},
{
anchors = (
{
name = bottom;
pos = (413,0);
},
{
name = top;
pos = (413,688);
}
);
layerId = m016;
shapes = (
{
closed = 1;
nodes = (
(182,0,l),
(182,560,l),
(186,560,l),
(385,0,l),
(441,0,l),
(640,560,l),
(644,560,l),
(644,0,l),
(726,0,l),
(726,688,l),
(609,688,l),
(415,141,l),
(411,141,l),
(217,688,l),
(100,688,l),
(100,0,l)
);
}
);
width = 826;
},
{
anchors = (
{
name = bottom;
pos = (393,0);
},
{
name = top;
pos = (393,688);
}
);
layerId = m012;
name = "XOPQ-min - 32";
shapes = (
{
closed = 1;
nodes = (
(182,0,l),
(182,603,l),
(186,603,l),
(411,0,l),
(451,0,l),
(702,603,l),
(706,603,l),
(706,0,l),
(716,0,l),
(716,688,l),
(650,688,l),
(398,75,l),
(394,75,l),
(165,688,l),
(100,688,l),
(100,0,l)
);
}
);
width = 816;
},
{
anchors = (
{
name = bottom;
pos = (403,0);
},
{
name = top;
pos = (403,688);
}
);
layerId = m017;
shapes = (
{
closed = 1;
nodes = (
(172,0,l),
(172,568,l),
(176,568,l),
(364,0,l),
(442,0,l),
(630,568,l),
(634,568,l),
(634,0,l),
(716,0,l),
(716,688,l),
(590,688,l),
(405,120,l),
(401,120,l),
(216,688,l),
(90,688,l),
(90,0,l)
);
}
);
width = 806;
},
{
anchors = (
{
name = bottom;
pos = (433,0);
},
{
name = top;
pos = (433,688);
}
);
layerId = m018;
shapes = (
{
closed = 1;
nodes = (
(182,0,l),
(182,592,l),
(186,592,l),
(421,0,l),
(505,0,l),
(740,592,l),
(744,592,l),
(744,0,l),
(826,0,l),
(826,688,l),
(700,688,l),
(465,96,l),
(461,96,l),
(226,688,l),
(100,688,l),
(100,0,l)
);
}
);
width = 926;
},
{
anchors = (
{
name = bottom;
pos = (433,0);
},
{
name = top;
pos = (433,688);
}
);
associatedMasterId = m018;
layerId = "7787C08C-7FE1-40E3-ABDE-D31B4E35D1C4";
name = "23 Apr 26 at 11:04";
shapes = (
{
closed = 1;
nodes = (
(182,0,l),
(182,592,l),
(186,592,l),
(421,0,l),
(445,0,l),
(680,592,l),
(684,592,l),
(684,0,l),
(766,0,l),
(766,688,l),
(700,688,l),
(435,20,l),
(431,20,l),
(166,688,l),
(100,688,l),
(100,0,l)
);
}
);
width = 866;
}
);
metricLeft = H;
metricRight = "=|";
userData = {
com.typespan.data.v1 = {
masters = {
m009 = {
track_data = {
"2026-04-23" = {
"09" = 79.4236;
"10" = 4.20446;
"14" = 55.47586;
"19" = 28.54986;
};
};
};
m010 = {
track_data = {
"2026-04-23" = {
"09" = 90.41203;
"10" = 52.64509;
"11" = 144.85662;
"14" = 6.54181;
"16" = 0.35154;
"19" = 47.66574;
};
};
};
m011 = {
track_data = {
"2026-04-23" = {
"09" = 11.70031;
"10" = 0.86188;
"11" = 93.1995;
"14" = 9.46466;
"15" = 2.18119;
"19" = 32.54589;
};
};
};
m012 = {
track_data = {
"2026-04-23" = {
"09" = 94.81411;
"10" = 17.76623;
"11" = 14.03342;
"19" = 43.5522;
};
};
};
m013 = {
track_data = {
"2026-04-23" = {
"10" = 16.45386;
"11" = 20.05771;
"19" = 29.32847;
};
};
};
m014 = {
track_data = {
"2026-04-23" = {
"09" = 8.44692;
"10" = 13.01477;
"11" = 10.81526;
"15" = 3.18414;
"19" = 5.97341;
};
};
};
m015 = {
track_data = {
"2026-04-23" = {
"09" = 0.91588;
"10" = 5.13208;
};
};
};
m016 = {
track_data = {
"2026-04-23" = {
"09" = 7.67212;
"10" = 4.96936;
};
};
};
m017 = {
track_data = {
"2026-04-23" = {
"09" = 11.05919;
"11" = 3.72906;
};
};
};
m018 = {
track_data = {
"2026-04-23" = {
"09" = 126.5119;
"10" = 58.15285;
"11" = 93.51256;
"19" = 2.76619;
};
};
};
};
};
};
},
{
glyphname = X.001;
kernLeft = X;
kernRight = X;
layers = (
{
anchors = (
{
name = bottom;
pos = (337.543,0);
},
{
name = top;
pos = (337.543,688);
}
);
layerId = m009;
shapes = (
{
closed = 1;
nodes = (
(127,0,l),
(332,276,l),
(340,276,l),
(544,0,l),
(645,0,l),
(390,348,l),
(642,688,l),
(544,688,l),
(343,418,l),
(335,418,l),
(135,688,l),
(33,688,l),
(285,345,l),
(29,0,l)
);
}
);
width = 674.54348;
},
{
anchors = (
{
name = bottom;
pos = (337.543,0);
},
{
name = top;
pos = (337.543,688);
}
);
layerId = m010;
shapes = (
{
closed = 1;
nodes = (
(127.478,0,l),
(331.913,276.043,l),
(339.913,276.043,l),
(543.891,0,l),
(645.413,0,l),
(389.978,347.543,l),
(642.413,688,l),
(543.522,688,l),
(342.63,417.674,l),
(335.087,417.674,l),
(134.652,688,l),
(33.13,688,l),
(285.109,345.457,l),
(29.13,0,l)
);
}
);
width = 674.54348;
},
{
anchors = (
{
name = bottom;
pos = (337.543,0);
},
{
name = top;
pos = (337.543,688);
}
);
layerId = m011;
shapes = (
{
closed = 1;
nodes = (
(127.478,0,l),
(331.913,276.043,l),
(339.913,276.043,l),
(543.891,0,l),
(645.413,0,l),
(389.978,347.543,l),
(642.413,688,l),
(543.522,688,l),
(342.63,417.674,l),
(335.087,417.674,l),
(134.652,688,l),
(33.13,688,l),
(285.109,345.457,l),
(29.13,0,l)
);
}
);
width = 674.54348;
},
{
anchors = (
{
name = bottom;
pos = (337.543,0);
},
{
name = top;
pos = (337.543,688);
}
);
layerId = m012;
shapes = (
{
closed = 1;
nodes = (
(127.478,0,l),
(331.913,276.043,l),
(339.913,276.043,l),
(543.891,0,l),
(645.413,0,l),
(389.978,347.543,l),
(642.413,688,l),
(543.522,688,l),
(342.63,417.674,l),
(335.087,417.674,l),
(134.652,688,l),
(33.13,688,l),
(285.109,345.457,l),
(29.13,0,l)
);
}
);
width = 674.54348;
},
{
anchors = (
{
name = bottom;
pos = (337.543,0);
},
{
name = top;
pos = (337.543,688);
}
);
layerId = m013;
shapes = (
{
closed = 1;
nodes = (
(127.478,0,l),
(331.913,276.043,l),
(339.913,276.043,l),
(543.891,0,l),
(645.413,0,l),
(389.978,347.543,l),
(642.413,688,l),
(543.522,688,l),
(342.63,417.674,l),
(335.087,417.674,l),
(134.652,688,l),
(33.13,688,l),
(285.109,345.457,l),
(29.13,0,l)
);
}
);
width = 674.54348;
},
{
anchors = (
{
name = bottom;
pos = (337.543,0);
},
{
name = top;
pos = (337.543,688);
}
);
layerId = m014;
shapes = (
{
closed = 1;
nodes = (
(127.478,0,l),
(331.913,276.043,l),
(339.913,276.043,l),
(543.891,0,l),
(645.413,0,l),
(389.978,347.543,l),
(642.413,688,l),
(543.522,688,l),
(342.63,417.674,l),
(335.087,417.674,l),
(134.652,688,l),
(33.13,688,l),
(285.109,345.457,l),
(29.13,0,l)
);
}
);
width = 674.54348;
},
{
anchors = (
{
name = bottom;
pos = (337.543,0);
},
{
name = top;
pos = (337.543,688);
}
);
layerId = m015;
shapes = (
{
closed = 1;
nodes = (
(127.478,0,l),
(331.913,276.043,l),
(339.913,276.043,l),
(543.891,0,l),
(645.413,0,l),
(389.978,347.543,l),
(642.413,688,l),
(543.522,688,l),
(342.63,417.674,l),
(335.087,417.674,l),
(134.652,688,l),
(33.13,688,l),
(285.109,345.457,l),
(29.13,0,l)
);
}
);
width = 674.54348;
},
{
anchors = (
{
name = bottom;
pos = (337.543,0);
},
{
name = top;
pos = (337.543,688);
}
);
layerId = m016;
shapes = (
{
closed = 1;
nodes = (
(127.478,0,l),
(331.913,276.043,l),
(339.913,276.043,l),
(543.891,0,l),
(645.413,0,l),
(389.978,347.543,l),
(642.413,688,l),
(543.522,688,l),
(342.63,417.674,l),
(335.087,417.674,l),
(134.652,688,l),
(33.13,688,l),
(285.109,345.457,l),
(29.13,0,l)
);
}
);
width = 674.54348;
},
{
anchors = (
{
name = bottom;
pos = (337.543,0);
},
{
name = top;
pos = (337.543,688);
}
);
layerId = m017;
shapes = (
{
closed = 1;
nodes = (
(127.478,0,l),
(331.913,276.043,l),
(339.913,276.043,l),
(543.891,0,l),
(645.413,0,l),
(389.978,347.543,l),
(642.413,688,l),
(543.522,688,l),
(342.63,417.674,l),
(335.087,417.674,l),
(134.652,688,l),
(33.13,688,l),
(285.109,345.457,l),
(29.13,0,l)
);
}
);
width = 674.54348;
},
{
anchors = (
{
name = bottom;
pos = (337.543,0);
},
{
name = top;
pos = (337.543,688);
}
);
layerId = m018;
shapes = (
{
closed = 1;
nodes = (
(127,0,l),
(332,276,l),
(340,276,l),
(544,0,l),
(645,0,l),
(390,348,l),
(642,688,l),
(544,688,l),
(343,418,l),
(335,418,l),
(135,688,l),
(33,688,l),
(285,345,l),
(29,0,l)
);
}
);
width = 674.54348;
}
);
userData = {
com.typespan.data.v1 = {
masters = {
m009 = {
track_data = {
"2026-04-20" = {
"10" = 15.18867;
};
};
};
};
};
};
},
{
color = 4;
glyphname = Y.001;
kernLeft = Y;
kernRight = Y;
layers = (
{
anchors = (
{
name = bottom;
pos = (279,0);
},
{
name = top;
pos = (279,688);
},
{
name = topleft;
pos = (-14,688);
}
);
layerId = m009;
shapes = (
{
closed = 1;
nodes = (
(319,0,l),
(319,300,l),
(300,231,l),
(546,688,l),
(453,688,l),
(280,350,l),
(276,350,l),
(103,688,l),
(10,688,l),
(256,231,l),
(237,300,l),
(237,0,l)
);
}
);
width = 556;
},
{
anchors = (
{
name = bottom;
pos = (145,0);
},
{
name = top;
pos = (145,688);
},
{
name = topleft;
pos = (-2,688);
}
);
layerId = m010;
shapes = (
{
closed = 1;
nodes = (
(186,0,l),
(186,319,l),
(170,197,l),
(285,688,l),
(200,688,l),
(147,348,l),
(143,348,l),
(90,688,l),
(5,688,l),
(120,197,l),
(104,319,l),
(104,0,l)
);
}
);
width = 290;
},
{
anchors = (
{
name = bottom;
pos = (366,0);
},
{
name = top;
pos = (366,688);
},
{
name = topleft;
pos = (4,688);
}
);
layerId = m011;
shapes = (
{
closed = 1;
nodes = (
(407,0,l),
(407,289,l),
(399,255,l),
(722,688,l),
(621,688,l),
(368,346,l),
(364,346,l),
(111,688,l),
(10,688,l),
(333,255,l),
(325,289,l),
(325,0,l)
);
}
);
width = 732;
},
{
anchors = (
{
name = bottom;
pos = (283,0);
},
{
name = top;
pos = (283,688);
},
{
name = topleft;
pos = (-10,688);
}
);
layerId = m012;
shapes = (
{
closed = 1;
nodes = (
(284,0,l),
(284,312,l),
(280,259,l),
(546,688,l),
(452,688,l),
(240,344,l),
(236,344,l),
(22,688,l),
(10,688,l),
(278,259,l),
(274,312,l),
(274,0,l)
);
}
);
width = 556;
},
{
anchors = (
{
name = bottom;
pos = (607,0);
},
{
name = top;
pos = (607,688);
},
{
name = topleft;
pos = (314,688);
}
);
layerId = m013;
shapes = (
{
closed = 1;
nodes = (
(470,0,l),
(470,333,l),
(425,189,l),
(699,688,l),
(607,688,l),
(438,368,l),
(434,368,l),
(265,688,l),
(8,688,l),
(284,186,l),
(240,333,l),
(240,0,l)
);
}
);
width = 707;
},
{
anchors = (
{
name = bottom;
pos = (256,0);
},
{
name = top;
pos = (256,688);
},
{
name = topleft;
pos = (549,688);
}
);
layerId = m014;
shapes = (
{
closed = 1;
nodes = (
(319,0,l),
(319,275,l),
(306,242,l),
(546,688,l),
(535,688,l),
(316,280,l),
(312,280,l),
(104,688,l),
(10,688,l),
(250,242,l),
(237,275,l),
(237,0,l)
);
}
);
width = 556;
},
{
anchors = (
{
name = bottom;
pos = (251,0);
},
{
name = top;
pos = (251,688);
},
{
name = topleft;
pos = (-42,688);
}
);
layerId = m015;
shapes = (
{
closed = 1;
nodes = (
(350,0,l),
(350,344,l),
(329,232,l),
(611,688,l),
(359,688,l),
(230,471,l),
(226,471,l),
(97,688,l),
(8,688,l),
(289,232,l),
(268,344,l),
(268,0,l)
);
}
);
width = 619;
},
{
anchors = (
{
name = bottom;
pos = (305,0);
},
{
name = top;
pos = (305,688);
},
{
name = topleft;
pos = (12,688);
}
);
layerId = m016;
shapes = (
{
closed = 1;
nodes = (
(319,0,l),
(319,300,l),
(300,231,l),
(546,688,l),
(453,688,l),
(280,348,l),
(276,348,l),
(103,688,l),
(10,688,l),
(256,231,l),
(237,300,l),
(237,0,l)
);
}
);
width = 556;
},
{
anchors = (
{
name = bottom;
pos = (303,0);
},
{
name = top;
pos = (303,688);
},
{
name = topleft;
pos = (10,688);
}
);
layerId = m017;
shapes = (
{
closed = 1;
nodes = (
(318,0,l),
(318,300,l),
(299,231,l),
(545,688,l),
(452,688,l),
(279,348,l),
(275,348,l),
(102,688,l),
(9,688,l),
(255,231,l),
(236,300,l),
(236,0,l)
);
}
);
width = 554;
},
{
anchors = (
{
name = bottom;
pos = (263,0);
},
{
name = top;
pos = (263,688);
},
{
name = topleft;
pos = (-30,688);
}
);
layerId = m018;
shapes = (
{
closed = 1;
nodes = (
(383,0,l),
(383,293,l),
(378,259,l),
(674,688,l),
(578,688,l),
(344,340,l),
(340,340,l),
(106,688,l),
(10,688,l),
(306,259,l),
(301,293,l),
(301,0,l)
);
}
);
width = 684;
}
);
metricLeft = V;
metricRight = "=|";
userData = {
com.typespan.data.v1 = {
masters = {
m009 = {
track_data = {
"2026-04-23" = {
"08" = 4.00594;
"14" = 42.35816;
"15" = 104.27204;
"16" = 28.11397;
};
};
};
m010 = {
track_data = {
"2026-04-23" = {
"14" = 5.5947;
"15" = 175.22426;
"16" = 29.43123;
};
};
};
m011 = {
track_data = {
"2026-04-22" = {
"16" = 1.26175;
};
"2026-04-23" = {
"14" = 4.38882;
"15" = 79.89965;
"16" = 9.02807;
};
};
};
m012 = {
track_data = {
"2026-04-23" = {
"15" = 263.67575;
"16" = 123.53126;
};
};
};
m013 = {
track_data = {
"2026-04-23" = {
"15" = 256.13903;
"16" = 18.84063;
};
};
};
m014 = {
track_data = {
"2026-04-23" = {
"15" = 154.87451;
"16" = 127.25901;
};
};
};
m015 = {
track_data = {
"2026-04-23" = {
"15" = 513.90235;
"16" = 39.96225;
};
};
};
m016 = {
track_data = {
"2026-04-23" = {
"08" = 0.60046;
"15" = 7.89223;
"16" = 1.79782;
};
};
};
m017 = {
track_data = {
"2026-04-23" = {
"08" = 1.43531;
"15" = 8.35394;
};
};
};
m018 = {
track_data = {
"2026-04-22" = {
"16" = 95.91001;
};
"2026-04-23" = {
"08" = 23.74607;
"15" = 119.77499;
"16" = 30.66536;
};
};
};
};
};
};
},
